<svg xmlns="http://www.w3.org/2000/svg" xmlns:xlink="http://www.w3.org/1999/xlink" width="1925.631" height="514.242" viewBox="0 0 1925.631 514.242">
  <defs>
    <clipPath id="clip-path">
      <rect id="Rectángulo_15" data-name="Rectángulo 15" width="1925.631" height="514.242" transform="translate(-0.578 280.11)" fill="none"/>
    </clipPath>
  </defs>
  <g id="Grupo_496" data-name="Grupo 496" transform="translate(0.578 -280.11)">
    <g id="Imagen_header" data-name="Imagen header">
      <rect id="Rectángulo_1" data-name="Rectángulo 1" width="326.042" height="56.573" transform="translate(709.869 514)" fill="#fff"/>
    </g>
    <g id="Capa_5" data-name="Capa 5">
      <g id="Grupo_41" data-name="Grupo 41">
        <g id="Grupo_40" data-name="Grupo 40" clip-path="url(#clip-path)">
          <rect id="Rectángulo_2" data-name="Rectángulo 2" width="1951.893" height="530.91" transform="translate(-14.578 271.776)" fill="#9ccaa7"/>
          <g id="Grupo_7" data-name="Grupo 7">
            <path id="Rectángulo_3" data-name="Rectángulo 3" d="M1.328,0H8A1.328,1.328,0,0,1,9.327,1.328V5.783a0,0,0,0,1,0,0H0a0,0,0,0,1,0,0V1.328A1.328,1.328,0,0,1,1.328,0Z" transform="matrix(-0.832, 0.554, -0.554, -0.832, 162.844, 399.389)" fill="#d68e35"/>
            <g id="Grupo_6" data-name="Grupo 6">
              <path id="Trazado_2" data-name="Trazado 2" d="M-48.6,459.59A258.7,258.7,0,0,0,53.688,419.985c20.5-13.541,43.294-23.14,44.41-47.678.365-8.012-3.883-16.507-13.4-18.339-20.141-3.879-40.283,15.133-40.354,35.644s16.773,38.75,36.644,43.835S122.444,432.109,139,420c17.363-12.7,29.959-31.126,47.585-43.462,31.038-21.727,72.018-21.184,109.811-18.513,28.713,2.029,58.136,4.728,85.826-3.14,43.9-12.472,77.443-49.788,121.34-62.281,47.338-13.472,98.6-16.622,147.812-17.389" fill="none" stroke="#fff" stroke-miterlimit="10" stroke-width="1"/>
              <g id="Grupo_1" data-name="Grupo 1">
                <path id="Trazado_3" data-name="Trazado 3" d="M94.278,453.185c1.2-12.112-3.717-11.513-9.656-12.1s-10.646-2.144-11.848,9.969,2.258,26.229,8.195,26.817S93.076,465.3,94.278,453.185Z" fill="#70a14e"/>
                <path id="Rectángulo_4" data-name="Rectángulo 4" d="M1.328,0H9.864a1.327,1.327,0,0,1,1.327,1.327V6.939a0,0,0,0,1,0,0H0a0,0,0,0,1,0,0V1.328A1.328,1.328,0,0,1,1.328,0Z" transform="matrix(0.995, 0.099, -0.099, 0.995, 79.737, 433.954)" fill="#d68e35"/>
                <path id="Trazado_4" data-name="Trazado 4" d="M80.234,472.227c-1.382-4.357-2.692-17.323-3.033-21.88" fill="none" stroke="#fff" stroke-miterlimit="10" stroke-width="2.343"/>
              </g>
              <g id="Grupo_2" data-name="Grupo 2">
                <path id="Trazado_5" data-name="Trazado 5" d="M50.872,342.5c2.193,11.8,6.688,9.884,12.474,8.808s10.672-.9,8.48-12.7-9.348-24.219-15.135-23.143S48.681,330.693,50.872,342.5Z" fill="#c7dfee"/>
                <path id="Trazado_6" data-name="Trazado 6" d="M60.386,358.486l8.24-1.532a1.326,1.326,0,0,0,1.064-1.546l-1.008-5.424L57.832,352l1.006,5.423A1.331,1.331,0,0,0,60.386,358.486Z" fill="#d68e35"/>
                <path id="Trazado_7" data-name="Trazado 7" d="M58.938,320.6c2.507,3.745,7.314,15.665,8.891,19.889" fill="none" stroke="#fff" stroke-miterlimit="10" stroke-width="2.311"/>
              </g>
              <path id="Trazado_8" data-name="Trazado 8" d="M143.31,394.675c5.625,8.443,8.48,5.456,12.618,2.7s7.994-4.244,2.37-12.688-15.313-15.71-19.452-12.951S137.685,386.233,143.31,394.675Z" fill="#82a88a"/>
              <path id="Trazado_9" data-name="Trazado 9" d="M142.3,374.982c3.195,2.077,10.89,9.741,13.516,12.5" fill="none" stroke="#fff" stroke-miterlimit="10" stroke-width="1.953"/>
              <g id="Grupo_3" data-name="Grupo 3">
                <path id="Trazado_10" data-name="Trazado 10" d="M346.825,352.307c9.416,9.454,12.337,4.87,16.971.253s9.23-7.519-.187-16.973-23.776-16.353-28.411-11.736S337.41,342.856,346.825,352.307Z" fill="#70a14e"/>
                <path id="Trazado_11" data-name="Trazado 11" d="M365.482,361.11l6.809-6.784a1.327,1.327,0,0,0,.005-1.876L367.866,348l-8.692,8.657,4.431,4.448A1.328,1.328,0,0,0,365.482,361.11Z" fill="#d68e35"/>
                <path id="Trazado_12" data-name="Trazado 12" d="M340.486,327.156c4.651,1.865,16.539,9.785,20.636,12.67" fill="none" stroke="#fff" stroke-miterlimit="10" stroke-width="2.568"/>
              </g>
              <g id="Grupo_4" data-name="Grupo 4">
                <path id="Trazado_13" data-name="Trazado 13" d="M468.521,326.254c-7.388-9-10.31-5.267-14.726-1.645s-8.649,5.757-1.261,14.761,19.285,16.2,23.7,12.582S475.908,335.258,468.521,326.254Z" fill="#c7dfee"/>
                <path id="Trazado_14" data-name="Trazado 14" d="M452.918,317.144l-6.224,5.108a1.331,1.331,0,0,0-.184,1.87l3.369,4.1,8.279-6.794-3.369-4.1A1.333,1.333,0,0,0,452.918,317.144Z" fill="#d68e35"/>
                <path id="Trazado_15" data-name="Trazado 15" d="M471.917,348.636c-3.885-2.011-13.547-9.889-16.866-12.738" fill="none" stroke="#fff" stroke-miterlimit="10" stroke-width="2.242"/>
              </g>
              <g id="Grupo_5" data-name="Grupo 5">
                <path id="Trazado_16" data-name="Trazado 16" d="M257.476,377.843c1.051-13.225-4.3-12.466-10.781-12.984s-11.647-2.108-12.7,11.114,3.019,28.531,9.5,29.047S256.424,391.063,257.476,377.843Z" fill="#e7c062"/>
                <path id="Trazado_17" data-name="Trazado 17" d="M252.057,358.057l-9.514-.757a1.327,1.327,0,0,0-1.426,1.22l-.5,6.214,12.159.966.494-6.214A1.329,1.329,0,0,0,252.057,358.057Z" fill="#d68e35"/>
                <path id="Trazado_18" data-name="Trazado 18" d="M242.578,398.889c-1.6-4.719-3.3-18.819-3.773-23.777" fill="none" stroke="#fff" stroke-miterlimit="10" stroke-width="2.554"/>
              </g>
            </g>
          </g>
          <text id="precios_de" data-name="precios de" transform="translate(517.921 541.889)" fill="#fff" font-size="46.643" font-family="MADETOMMY-Light, MADE TOMMY" font-weight="300" letter-spacing="0.2em"><tspan x="-154.085" y="0">precios de</tspan></text>
          <text id="navidad" transform="translate(363.578 672.645)" fill="#fff" font-size="237.001" font-family="GelatoRegular, Gelato"><tspan x="0" y="0">navidad</tspan></text>
          <g id="Grupo_33" data-name="Grupo 33">
            <g id="Grupo_19" data-name="Grupo 19">
              <g id="Grupo_17" data-name="Grupo 17">
                <g id="Grupo_8" data-name="Grupo 8">
                  <path id="Trazado_19" data-name="Trazado 19" d="M1251.088,589.2l-2.755-1.044c2.672-7.054,2.7-13.079.071-17.906-4.25-7.811-14.156-10.026-14.256-10.048l.615-2.88c.459.1,11.3,2.494,16.217,11.5C1254.048,574.438,1254.083,581.294,1251.088,589.2Z" fill="#fff"/>
                </g>
                <g id="Grupo_16" data-name="Grupo 16">
                  <g id="Grupo_9" data-name="Grupo 9">
                    <path id="Trazado_20" data-name="Trazado 20" d="M1278.6,592.979c-20.1,0-41.428-3.93-43.112-10.142-4.444-16.373-1.679-66.36-1.56-68.482l2.942.169c-.03.515-2.856,51.627,1.46,67.543,1.251,4.606,29.021,10.034,54.151,7.256,10.626-1.171,28.53-4.832,29.038-16.146.72-16.034-18.431-19.2-32.416-21.5-8.908-1.471-15.344-2.534-15.543-6.654-.474-9.692-.807-30.217-.811-30.426l2.946-.045c0,.2.334,20.681.8,30.325.086,1.746,7.293,2.938,13.083,3.893,14.223,2.346,35.718,5.891,34.88,24.54-.45,10.009-11.694,16.74-31.659,18.945A131.429,131.429,0,0,1,1278.6,592.979Z" fill="#fff"/>
                  </g>
                  <g id="Grupo_10" data-name="Grupo 10">
                    <path id="Trazado_21" data-name="Trazado 21" d="M1255.137,517.481a109.844,109.844,0,0,1-24.554-2.6,4.689,4.689,0,0,1-3.177-2.908c-2.98-6.574.415-23.8,2.236-27.19a1.476,1.476,0,0,1,1.677-.73c.266.073,26.985,7,50.923.009a1.478,1.478,0,0,1,1.861,1.141c.528,2.8,4.873,27.424-5.039,29.685A107.9,107.9,0,0,1,1255.137,517.481Zm-23.329-30.275c-1.592,4.564-3.985,18.549-1.719,23.549.5,1.1,1.016,1.222,1.184,1.262.251.062,22.775,5.559,47.136,0,5.122-1.17,4.661-15.139,3.078-24.686C1259.915,493.1,1237.348,488.511,1231.808,487.206Z" fill="#fff"/>
                  </g>
                  <g id="Grupo_11" data-name="Grupo 11">
                    <rect id="Rectángulo_5" data-name="Rectángulo 5" width="40.002" height="2.946" transform="translate(1234.456 524.999)" fill="#fff"/>
                  </g>
                  <g id="Grupo_12" data-name="Grupo 12">
                    <rect id="Rectángulo_6" data-name="Rectángulo 6" width="40.576" height="2.947" transform="translate(1234.456 544.616)" fill="#fff"/>
                  </g>
                  <g id="Grupo_13" data-name="Grupo 13">
                    <rect id="Rectángulo_7" data-name="Rectángulo 7" width="43.841" height="2.946" transform="translate(1249.041 568.664) rotate(-26.905)" fill="#fff"/>
                  </g>
                  <g id="Grupo_14" data-name="Grupo 14">
                    <rect id="Rectángulo_8" data-name="Rectángulo 8" width="49.377" height="2.947" transform="matrix(0.599, -0.801, 0.801, 0.599, 1268.255, 590.648)" fill="#fff"/>
                  </g>
                  <g id="Grupo_15" data-name="Grupo 15">
                    <path id="Trazado_22" data-name="Trazado 22" d="M1307.479,588.3c-14.33-19.655,2.639-33.505,2.812-33.641l1.832,2.3-.916-1.152.92,1.15c-.616.493-14.91,12.262-2.268,29.6Z" fill="#fff"/>
                  </g>
                </g>
              </g>
              <g id="Grupo_18" data-name="Grupo 18">
                <rect id="Rectángulo_9" data-name="Rectángulo 9" width="2.487" height="208.152" transform="translate(1254.7 280.19)" fill="#fff"/>
              </g>
            </g>
            <g id="Grupo_31" data-name="Grupo 31">
              <g id="Grupo_29" data-name="Grupo 29">
                <g id="Grupo_27" data-name="Grupo 27">
                  <g id="Grupo_20" data-name="Grupo 20">
                    <path id="Trazado_23" data-name="Trazado 23" d="M1490.495,531.77l19.315,6.165,1.878,11.555-19.315-6.167-1.878-11.553m-3.678-4.268,2.939,18.077,25.61,8.177-2.939-18.078-25.61-8.176Z" fill="#fff"/>
                  </g>
                  <g id="Grupo_21" data-name="Grupo 21">
                    <path id="Trazado_24" data-name="Trazado 24" d="M1485.6,501.668l19.316,6.168,1.878,11.552-19.315-6.167-1.879-11.553m-3.677-4.266,2.937,18.075,25.611,8.176-2.939-18.073-25.609-8.178Z" fill="#fff"/>
                  </g>
                  <g id="Grupo_22" data-name="Grupo 22">
                    <path id="Trazado_25" data-name="Trazado 25" d="M1480.708,471.568l19.313,6.166,1.878,11.553-19.312-6.166-1.879-11.553m-3.68-4.265,2.939,18.075,25.612,8.179-2.939-18.08-25.612-8.174Z" fill="#fff"/>
                  </g>
                  <g id="Grupo_23" data-name="Grupo 23">
                    <path id="Trazado_26" data-name="Trazado 26" d="M1476.81,438.992c.344.262.693.515,1.039.769.67.47,1.349.934,2.006,1.364,1.311.866,2.829,1.766,4.527,2.682,1.495.8,3.05,1.545,4.629,2.228,1.435.613,2.815,1.154,4.1,1.605q1.063.372,2.15.712c0,.018.006.036.009.052l.052.367.988,6.12.7,4.3-19.313-6.171-.17-1.043a65.825,65.825,0,0,1-.747-7.331c-.081-1.8-.068-3.79.034-5.654m-2.332-5.754s-.254,1.466-.466,3.648a60.489,60.489,0,0,0-.178,7.891,68.1,68.1,0,0,0,.779,7.662c.277,1.7.461,2.838.461,2.838l25.611,8.176-1.47-9.037c-.359-2.221-.719-4.445-.986-6.112-.1-.669-.185-1.226-.217-1.613s-.07-.609-.07-.609l-1.066-.309c-.673-.2-1.633-.506-2.79-.915s-2.478-.914-3.915-1.532c-1.415-.61-2.919-1.329-4.405-2.119-1.466-.792-2.954-1.659-4.284-2.541-.672-.439-1.32-.88-1.933-1.314s-1.165-.857-1.685-1.26c-1.045-.8-1.893-1.518-2.471-2.034s-.915-.82-.915-.82Z" fill="#fff"/>
                  </g>
                  <g id="Grupo_24" data-name="Grupo 24">
                    <path id="Trazado_27" data-name="Trazado 27" d="M1495.166,405.885c-.04.421-.072.815-.1,1.214-.049.849-.076,1.7-.08,2.543,0,.436.005.874.019,1.343q.027.68.076,1.364c.073,1,.166,1.891.288,2.728a34.992,34.992,0,0,0,1.152,5.153,32.381,32.381,0,0,0,1.6,4.214c.342.752.687,1.421,1,1.989a21.029,21.029,0,0,0-2,3.566,23.45,23.45,0,0,0-.92,2.428c-.973-.654-1.985-1.4-3-2.215-.539-.437-1.092-.91-1.686-1.444s-1.165-1.08-1.689-1.619a38.88,38.88,0,0,1-5.419-6.916c-.522-.857-.951-1.642-1.308-2.325.306-.5.745-1.153,1.217-1.854a37.154,37.154,0,0,1,5.555-6.256,36.268,36.268,0,0,1,5.292-3.913m3.816-5.222-1.016.436c-.647.279-1.558.743-2.641,1.3a39.286,39.286,0,0,0-7.418,5.2,40.056,40.056,0,0,0-6,6.762c-.682,1.011-1.246,1.857-1.589,2.468s-.562.954-.562.954.186.416.555,1.132.894,1.71,1.588,2.849a41.944,41.944,0,0,0,5.85,7.463c.581.6,1.19,1.174,1.8,1.723s1.207,1.064,1.8,1.547c1.217.974,2.342,1.8,3.363,2.47s1.86,1.183,2.465,1.534.958.545.958.545.025-.205.089-.547c.035-.173.076-.379.124-.613s.1-.5.174-.787a21.952,21.952,0,0,1,1.29-3.9,18.534,18.534,0,0,1,1.854-3.265c.147-.2.282-.378.4-.536s.238-.281.328-.39.162-.194.208-.252a.737.737,0,0,1,.076-.086s-.208-.323-.552-.912a28.469,28.469,0,0,1-1.319-2.533,29.542,29.542,0,0,1-1.463-3.841,32.235,32.235,0,0,1-1.06-4.744c-.121-.831-.2-1.662-.263-2.507-.031-.423-.054-.842-.069-1.262s-.017-.821-.017-1.227c0-.813.03-1.611.073-2.375s.12-1.467.2-2.136.166-1.284.253-1.833.182-1.013.259-1.406c.156-.78.261-1.232.261-1.232Z" fill="#fff"/>
                  </g>
                  <g id="Grupo_25" data-name="Grupo 25">
                    <path id="Trazado_28" data-name="Trazado 28" d="M1516.939,400.24l.56.035.234.014c.149.012.3.026.463.035.378.024.736.048,1.134.108l.5.065c.477.067.97.132,1.458.222l.393.082c.581.118,1.182.243,1.766.393l.557.158c.6.172,1.169.333,1.673.515.2.077.407.153.61.228.6.219,1.17.429,1.71.686l.508.237.71.328c.228.109.446.231.665.35l.346.188.221.125c.275.15.547.3.812.455l1.053.67c.611.381,1.185.81,1.78,1.261.021.013.04.029.061.043-.361.1-.739.2-1.126.317-.962.292-1.722.543-2.461.824-.855.327-1.7.688-2.5,1.065-.756.351-1.569.786-2.494,1.331-.4.231-.783.475-1.2.743-.385.256-.759.521-1.128.793-.813.605-1.465,1.132-2.049,1.66a25.95,25.95,0,0,0-3.123,3.366c-.365.476-.714.964-1.044,1.456-.076.113-.151.231-.228.349a16.858,16.858,0,0,0-3.338.069l-.075.008-.066.01c-.1.019-.2.028-.3.039-.187.021-.375.045-.568.08-.08.01-.16.025-.229.039l-.713.134-.369.072-.076.013-.028.005a32.373,32.373,0,0,1,.316-3.705,38.291,38.291,0,0,1,.909-4.4,37.151,37.151,0,0,1,1.475-4.415,31.473,31.473,0,0,1,1.785-3.73c.547-.966,1.036-1.769,1.419-2.325m-1.493-2.969s-.285.374-.748,1.034a32.055,32.055,0,0,0-1.741,2.808,34.125,34.125,0,0,0-1.95,4.069,40.429,40.429,0,0,0-1.584,4.74,40.946,40.946,0,0,0-.988,4.764,34.748,34.748,0,0,0-.346,4.131c-.024,1.206.014,2.182.057,2.868s.1,1.082.1,1.082l.112-.048a3.042,3.042,0,0,1,.322-.135l.516-.184a6.19,6.19,0,0,1,.686-.228c.263-.071.533-.17.838-.25s.634-.152.971-.237c.35-.068.712-.133,1.082-.2a1.486,1.486,0,0,1,.152-.028c.3-.051.577-.071.872-.117h.009a12.924,12.924,0,0,1,3.285,0,7.575,7.575,0,0,1,1.232.25s.172-.34.513-.923c.17-.292.39-.653.65-1.044s.564-.821.923-1.286a22.76,22.76,0,0,1,4.594-4.463c.327-.241.665-.48,1.014-.713s.693-.44,1.054-.655c.717-.421,1.484-.842,2.239-1.192s1.532-.685,2.307-.984,1.518-.532,2.257-.753,1.457-.411,2.1-.559c1.013-.233,1.936-.4,2.667-.524.215-.034.411-.065.59-.091.791-.112,1.253-.163,1.253-.163s-.272-.306-.779-.825c-.267-.259-.589-.568-.958-.926-.186-.176-.381-.366-.6-.562s-.456-.4-.7-.605c-.491-.417-1.018-.872-1.633-1.314s-1.237-.928-1.949-1.377c-.353-.223-.711-.448-1.072-.682s-.763-.43-1.147-.644-.776-.433-1.184-.627-.822-.381-1.234-.57c-.817-.391-1.68-.679-2.516-1s-1.686-.523-2.5-.763c-.816-.21-1.61-.365-2.364-.522-.75-.141-1.456-.222-2.114-.313s-1.243-.118-1.769-.16-.985-.064-1.36-.08c-.74,0-1.162,0-1.162,0Z" fill="#fff"/>
                  </g>
                  <g id="Grupo_26" data-name="Grupo 26">
                    <path id="Trazado_29" data-name="Trazado 29" d="M1532.624,424.568l.727-.115c.775-.112,1.543-.2,2.307-.263a52.742,52.742,0,0,1,8.909.045c1.02.086,1.883.186,2.557.271l.044.1.09.212.212.555.279.722c.786,2.06,1.59,4.538,2.2,6.813.485,1.761.885,3.482,1.192,4.932-1.2-.395-2.385-.766-3.545-1.113-1.826-.534-3.435-.97-4.915-1.335-1.779-.435-3.443-.8-4.931-1.087-1.455-.285-2.953-.538-4.323-.728-.808-.115-1.6-.214-2.293-.294-.051-.145-.106-.294-.162-.447a41.389,41.389,0,0,0-2.078-4.738c-.4-.782-.853-1.565-1.313-2.288a29.578,29.578,0,0,1,3.6-.978c.435-.094.907-.179,1.442-.267m-.474-2.908c-.538.086-1.06.181-1.573.29a33.2,33.2,0,0,0-4,1.093,26.549,26.549,0,0,0-2.659,1.062c-.624.293-.966.474-.966.474s.109.119.3.321c.095.112.21.252.341.411a6.943,6.943,0,0,1,.439.554,24.041,24.041,0,0,1,2.247,3.587,38.146,38.146,0,0,1,1.926,4.4c.239.638.42,1.192.558,1.57s.194.617.194.617l1.114.1c.714.066,1.722.187,2.94.363s2.65.4,4.174.7,3.158.657,4.793,1.057,3.253.854,4.79,1.3c1.52.455,2.941.908,4.164,1.319,2.423.814,4.048,1.429,4.048,1.429s-.054-.313-.149-.867-.231-1.346-.42-2.3c-.364-1.9-.913-4.45-1.619-7.012s-1.554-5.144-2.294-7.085c-.186-.485-.359-.927-.512-1.321s-.309-.742-.427-1.022c-.239-.566-.378-.891-.378-.891l-1.209-.167c-.772-.1-1.848-.233-3.158-.341a55.273,55.273,0,0,0-9.424-.048c-.828.067-1.663.165-2.476.287-.258.04-.515.075-.767.118Z" fill="#fff"/>
                  </g>
                </g>
                <g id="Grupo_28" data-name="Grupo 28">
                  <path id="Trazado_30" data-name="Trazado 30" d="M1509.487,400.163c12.458-2.025,23.587,2.285,31.334,12.146,5.731,7.292,9.7,17.517,11.789,30.386a9.58,9.58,0,0,1-18.911,3.075c-3.168-19.481-10.28-28.461-21.136-26.7-15.466,2.514-18.744,17.139-16.656,29.984l17.087,105.087a9.579,9.579,0,0,1-18.911,3.072L1477,452.133c-2.01-12.364-.374-23.76,4.73-32.958,5.7-10.275,15.56-17.031,27.76-19.012m-.473-2.908c-13.109,2.132-23.714,9.409-29.864,20.491-5.428,9.782-7.178,21.839-5.061,34.859l17.087,105.084a12.525,12.525,0,1,0,24.726-4.022l-17.087-105.083c-.9-5.55-2.545-23.877,14.218-26.6,8.93-1.453,14.906,6.71,17.759,24.262a12.525,12.525,0,1,0,24.725-4.022c-2.171-13.365-6.337-24.041-12.38-31.73-8.439-10.743-20.558-15.44-34.123-13.235Z" fill="#fff"/>
                </g>
              </g>
              <g id="Grupo_30" data-name="Grupo 30">
                <rect id="Rectángulo_10" data-name="Rectángulo 10" width="2.489" height="172.377" transform="translate(1500.093 228.521)" fill="#fff"/>
              </g>
            </g>
            <path id="Trazado_31" data-name="Trazado 31" d="M1419.768,583.018c5.93,0,7.5-2.925,7.863-3.9,1.052-4.276-10.188-21.441-14.753-28.169,4.156-.159,5.412-2.293,5.787-3.3,1.125-4.628-13.966-25.843-18.119-31.129-3.971-5.05-6.051-6.87-7.315-7.529V262.968h-3.338V509.109c-1.289.757-3.355,2.64-7.1,7.4-4.157,5.286-19.238,26.542-18.046,31.34.171.484,1.228,2.835,5.742,3.007-4.57,6.752-15.833,24.014-14.723,28.494.346.845,1.943,3.59,7.9,3.59.35,0,.712-.011,1.083-.031-5.177,7.611-22.043,33.014-20.584,38.881.264.736,1.981,4.391,9.87,4.391a43.27,43.27,0,0,0,10.7-1.613,21.642,21.642,0,0,1,5.46-.832,15.342,15.342,0,0,1,6.363,1.592,34.959,34.959,0,0,0,6.375,2.12v16.389a3.3,3.3,0,0,0,.031.385l.045.643h16.686l.625-.131.073-.608a2.269,2.269,0,0,0,.022-.289V627.287a28.184,28.184,0,0,0,5.485-2.175,11.88,11.88,0,0,1,5.93-1.7,25.9,25.9,0,0,1,6.742,1.152,40.833,40.833,0,0,0,10.8,1.753c7.819,0,9.588-3.887,9.884-4.738,1.384-5.717-15.437-30.992-20.621-38.6C1419.021,583.009,1419.4,583.018,1419.768,583.018Zm16.136,37.618c-.291.484-1.679,2.234-6.538,2.234a37.462,37.462,0,0,1-9.865-1.627,28.716,28.716,0,0,0-7.676-1.279,15.181,15.181,0,0,0-7.47,2.058,24.025,24.025,0,0,1-5.29,2.046l-2.106.515,0,16.834h-10.578v-16.78l-2.21-.452a31.082,31.082,0,0,1-6.363-2.075,18.49,18.49,0,0,0-7.616-1.822,25.169,25.169,0,0,0-6.337.943,39.745,39.745,0,0,1-9.819,1.5c-4.77,0-6.226-1.548-6.556-2.016-.059-2.688,6.277-15.7,20.931-37.044l3.409-4.961-5.985.653a20.635,20.635,0,0,1-2.168.127c-3.062,0-4.2-.858-4.557-1.253.22-2.183,4.334-10.955,14.974-26.519l3.141-4.6-5.562.279c-2.173.107-3.2-.369-3.535-.634.512-3.459,9.648-18.286,17.381-28.122,4.748-6.035,6.169-6.584,6.072-6.584h.085c.291.139,1.851,1.09,6.166,6.584,7.667,9.75,17.048,24.877,17.449,28.062-.279.325-1.214.9-3.562.78l-5.606-.316,3.175,4.634c10.177,14.857,14.806,24.186,14.978,26.357-.306.415-1.367,1.4-4.5,1.4a17.644,17.644,0,0,1-2.2-.142l-6.072-.732,3.465,5.038C1429.458,604.815,1435.955,618.06,1435.9,620.636Z" fill="#fff"/>
            <path id="Trazado_32" data-name="Trazado 32" d="M1192.575,643.983c5.931,0,7.5-2.924,7.864-3.9,1.052-4.28-10.188-21.44-14.753-28.17,4.154-.158,5.412-2.294,5.786-3.306,1.126-4.628-13.965-25.842-18.117-31.128-3.972-5.05-6.052-6.871-7.314-7.527V280.19h-3.34V570.08c-1.289.752-3.356,2.635-7.1,7.4-4.158,5.286-19.239,26.542-18.046,31.336.171.487,1.23,2.836,5.742,3.01-4.57,6.753-15.833,24.014-14.723,28.494.346.846,1.943,3.588,7.9,3.588.348,0,.711-.01,1.082-.027-5.178,7.61-22.043,33.014-20.584,38.88.264.735,1.98,4.39,9.871,4.39a43.372,43.372,0,0,0,10.695-1.613,21.875,21.875,0,0,1,5.461-.832,15.3,15.3,0,0,1,6.362,1.592,34.83,34.83,0,0,0,6.374,2.119v16.39a3.807,3.807,0,0,0,.031.385l.046.644H1172.5l.625-.133.071-.6a2.215,2.215,0,0,0,.024-.292V688.253a28.193,28.193,0,0,0,5.484-2.176,11.89,11.89,0,0,1,5.933-1.7,25.87,25.87,0,0,1,6.739,1.154,40.892,40.892,0,0,0,10.8,1.754c7.818,0,9.588-3.888,9.886-4.739,1.382-5.717-15.439-30.993-20.62-38.6C1191.829,643.975,1192.208,643.983,1192.575,643.983Zm16.137,37.619c-.291.485-1.68,2.233-6.538,2.233a37.413,37.413,0,0,1-9.865-1.626,28.758,28.758,0,0,0-7.673-1.28,15.2,15.2,0,0,0-7.475,2.059,23.892,23.892,0,0,1-5.29,2.047l-2.1.514,0,16.833h-10.578V685.6l-2.21-.452a31.332,31.332,0,0,1-6.363-2.073,18.445,18.445,0,0,0-7.615-1.823,25.31,25.31,0,0,0-6.338.943,39.754,39.754,0,0,1-9.818,1.5c-4.77,0-6.227-1.548-6.557-2.014-.059-2.69,6.277-15.7,20.932-37.044l3.407-4.962-5.984.652a20.336,20.336,0,0,1-2.167.124c-3.063,0-4.2-.856-4.559-1.254.221-2.18,4.338-10.951,14.976-26.515l3.139-4.6-5.56.279c-2.175.109-3.2-.37-3.534-.635.51-3.458,9.646-18.286,17.379-28.123,4.748-6.037,6.169-6.584,6.072-6.584h.086c.29.141,1.849,1.094,6.165,6.587,7.667,9.749,17.048,24.874,17.449,28.061-.279.327-1.213.9-3.562.778l-5.606-.315,3.175,4.632c10.177,14.857,14.806,24.188,14.978,26.358-.305.415-1.367,1.4-4.5,1.4a18.437,18.437,0,0,1-2.2-.14l-6.072-.735,3.465,5.039C1202.266,665.779,1208.763,679.027,1208.712,681.6Z" fill="#fff"/>
            <g id="Grupo_32" data-name="Grupo 32">
              <path id="Trazado_33" data-name="Trazado 33" d="M1124.867,365.922a3.522,3.522,0,1,0,3.524,3.52,3.522,3.522,0,0,0-3.524-3.52Z" fill="#fff"/>
              <path id="Trazado_34" data-name="Trazado 34" d="M1197.082,397.663a1.017,1.017,0,1,1-1.019,1.016,1.017,1.017,0,0,1,1.019-1.016m0-4.971a5.989,5.989,0,1,0,5.987,5.987,5.988,5.988,0,0,0-5.987-5.987Z" fill="#fff"/>
              <path id="Trazado_35" data-name="Trazado 35" d="M1242.171,449.052a1.764,1.764,0,1,0,1.76,1.763,1.763,1.763,0,0,0-1.76-1.763Z" fill="#fff"/>
              <path id="Trazado_36" data-name="Trazado 36" d="M1324.248,463.184a4.188,4.188,0,1,1-4.187,4.186,4.193,4.193,0,0,1,4.187-4.186m0-4.969a9.159,9.159,0,1,0,9.159,9.155,9.155,9.155,0,0,0-9.159-9.155Z" fill="#fff"/>
              <path id="Trazado_37" data-name="Trazado 37" d="M1349.26,396.213a4.58,4.58,0,1,0,4.578,4.582,4.583,4.583,0,0,0-4.578-4.582Z" fill="#fff"/>
              <path id="Trazado_38" data-name="Trazado 38" d="M1446.837,431.44a1.41,1.41,0,1,0,1.408,1.408,1.408,1.408,0,0,0-1.408-1.408Z" fill="#fff"/>
              <path id="Trazado_39" data-name="Trazado 39" d="M1471.495,504.71a3.523,3.523,0,1,0,3.523,3.525,3.524,3.524,0,0,0-3.523-3.525Z" fill="#fff"/>
              <path id="Trazado_40" data-name="Trazado 40" d="M1513.767,587.886a1.37,1.37,0,1,1-1.371,1.37,1.372,1.372,0,0,1,1.371-1.37m0-4.973a6.341,6.341,0,1,0,6.339,6.343,6.341,6.341,0,0,0-6.339-6.343Z" fill="#fff"/>
              <path id="Trazado_41" data-name="Trazado 41" d="M1563.787,499.114a.665.665,0,1,1-.665.666.668.668,0,0,1,.665-.666m0-4.972a5.637,5.637,0,1,0,5.637,5.638,5.639,5.639,0,0,0-5.637-5.638Z" fill="#fff"/>
              <path id="Trazado_42" data-name="Trazado 42" d="M1638.819,501.191a3.874,3.874,0,1,0,3.875,3.875,3.876,3.876,0,0,0-3.875-3.875Z" fill="#fff"/>
              <path id="Trazado_43" data-name="Trazado 43" d="M1563.787,354.689a.665.665,0,1,1-.665.663.664.664,0,0,1,.665-.663m0-4.972a5.635,5.635,0,1,0,5.637,5.635,5.635,5.635,0,0,0-5.637-5.635Z" fill="#fff"/>
              <path id="Trazado_44" data-name="Trazado 44" d="M1607.469,415.277a2.075,2.075,0,1,1-2.076,2.074,2.076,2.076,0,0,1,2.076-2.074m0-4.97a7.044,7.044,0,1,0,7.045,7.044,7.044,7.044,0,0,0-7.045-7.044Z" fill="#fff"/>
              <path id="Trazado_45" data-name="Trazado 45" d="M1124.162,498.37a3.523,3.523,0,1,0,3.524,3.525,3.523,3.523,0,0,0-3.524-3.525Z" fill="#fff"/>
              <path id="Trazado_46" data-name="Trazado 46" d="M1128.742,534.3a3.169,3.169,0,1,0,3.17,3.168,3.167,3.167,0,0,0-3.17-3.168Z" fill="#fff"/>
              <path id="Trazado_47" data-name="Trazado 47" d="M1218.57,561.776a2.818,2.818,0,1,0,2.817,2.821,2.82,2.82,0,0,0-2.817-2.821Z" fill="#fff"/>
              <path id="Trazado_48" data-name="Trazado 48" d="M1091.049,633.68a1.37,1.37,0,1,1-1.369,1.369,1.371,1.371,0,0,1,1.369-1.369m0-4.973a6.341,6.341,0,1,0,6.342,6.342,6.342,6.342,0,0,0-6.342-6.342Z" fill="#fff"/>
              <path id="Trazado_49" data-name="Trazado 49" d="M1235.479,628.707a4.229,4.229,0,1,0,4.226,4.228,4.228,4.228,0,0,0-4.226-4.228Z" fill="#fff"/>
              <path id="Trazado_50" data-name="Trazado 50" d="M1295.01,671.724a6.655,6.655,0,1,1-6.652,6.655,6.661,6.661,0,0,1,6.652-6.655m0-4.97a11.623,11.623,0,1,0,11.625,11.625,11.623,11.623,0,0,0-11.625-11.625Z" fill="#fff"/>
              <path id="Trazado_51" data-name="Trazado 51" d="M1329.181,614.656a.665.665,0,1,1-.665.665.666.666,0,0,1,.665-.665m0-4.971a5.635,5.635,0,1,0,5.634,5.636,5.636,5.636,0,0,0-5.634-5.636Z" fill="#fff"/>
              <path id="Trazado_52" data-name="Trazado 52" d="M1475.37,572.385a3.131,3.131,0,1,1-3.133,3.13,3.135,3.135,0,0,1,3.133-3.13m0-4.973a8.1,8.1,0,1,0,8.1,8.1,8.1,8.1,0,0,0-8.1-8.1Z" fill="#fff"/>
              <path id="Trazado_53" data-name="Trazado 53" d="M1440.848,374.374a3.17,3.17,0,1,0,3.17,3.171,3.172,3.172,0,0,0-3.17-3.171Z" fill="#fff"/>
              <path id="Trazado_54" data-name="Trazado 54" d="M1276.341,365.958a2.074,2.074,0,1,1-2.074,2.073,2.078,2.078,0,0,1,2.074-2.073m0-4.97a7.044,7.044,0,1,0,7.045,7.043,7.046,7.046,0,0,0-7.045-7.043Z" fill="#fff"/>
              <path id="Trazado_55" data-name="Trazado 55" d="M1352.43,346.191a3.523,3.523,0,1,0,3.523,3.526,3.525,3.525,0,0,0-3.523-3.526Z" fill="#fff"/>
              <path id="Trazado_56" data-name="Trazado 56" d="M1590.561,557.551a3.523,3.523,0,1,0,3.52,3.522,3.523,3.523,0,0,0-3.52-3.522Z" fill="#fff"/>
              <path id="Trazado_57" data-name="Trazado 57" d="M1513.062,644.21a3.521,3.521,0,1,0,3.521,3.519,3.52,3.52,0,0,0-3.521-3.519Z" fill="#fff"/>
              <path id="Trazado_58" data-name="Trazado 58" d="M1396.463,682.292a1.721,1.721,0,1,1-1.723,1.723,1.721,1.721,0,0,1,1.723-1.723m0-4.973a6.693,6.693,0,1,0,6.693,6.7,6.692,6.692,0,0,0-6.693-6.7Z" fill="#fff"/>
              <path id="Trazado_59" data-name="Trazado 59" d="M1477.131,691.412a4.227,4.227,0,1,0,4.227,4.226,4.226,4.226,0,0,0-4.227-4.226Z" fill="#fff"/>
              <path id="Trazado_60" data-name="Trazado 60" d="M1605.355,651.292a5.6,5.6,0,1,1-5.6,5.6,5.6,5.6,0,0,1,5.6-5.6m0-4.971a10.569,10.569,0,1,0,10.567,10.568,10.57,10.57,0,0,0-10.567-10.568Z" fill="#fff"/>
            </g>
          </g>
          <g id="Grupo_39" data-name="Grupo 39">
            <path id="Trazado_61" data-name="Trazado 61" d="M1933.925,753.14c-13.684-25.846-30.443-59.492-52.121-79.121-20.422-18.5-64.139-21.386-61.617,6.416,1.472,16.214,21.777,26.314,37.187,21.062s24.738-22.609,23.414-38.835-11.727-30.765-25.093-40.057c-14.024-9.746-31.108-14.431-44.924-24.465-24.333-17.673-34.526-48.565-42.3-77.614-5.906-22.072-11.491-44.849-24.555-63.591-20.716-29.72-57.392-45.238-78.122-74.947-22.354-32.035-37.977-69.69-51.282-106.418" fill="none" stroke="#fff" stroke-miterlimit="10" stroke-width="1"/>
            <g id="Grupo_34" data-name="Grupo 34">
              <path id="Trazado_62" data-name="Trazado 62" d="M1891.6,644.528c-9.4,2.231-7.677,5.769-6.583,10.378s1.145,8.542,10.544,6.314,19.1-8.48,18-13.088S1901,642.3,1891.6,644.528Z" fill="#70a14e"/>
              <path id="Trazado_63" data-name="Trazado 63" d="M1879.122,652.8l1.561,6.592a1.057,1.057,0,0,0,1.27.782l4.334-1.029-2.051-8.643-4.334,1.029A1.048,1.048,0,0,0,1879.122,652.8Z" fill="#d68e35"/>
              <path id="Trazado_64" data-name="Trazado 64" d="M1909.519,650.142c-2.91,2.167-12.3,6.5-15.634,7.936" fill="none" stroke="#fff" stroke-miterlimit="10" stroke-width="2.343"/>
            </g>
            <g id="Grupo_35" data-name="Grupo 35">
              <path id="Trazado_65" data-name="Trazado 65" d="M1817.566,706.684c8.288-4.7,5.686-7.575,3.383-11.639s-3.434-7.775-11.723-3.078-15.758,13.278-13.452,17.343S1809.278,711.382,1817.566,706.684Z" fill="#c7dfee"/>
              <path id="Rectángulo_11" data-name="Rectángulo 11" d="M1.054,0H7.7A1.055,1.055,0,0,1,8.76,1.055V5.43a0,0,0,0,1,0,0H0a0,0,0,0,1,0,0V1.054A1.054,1.054,0,0,1,1.054,0Z" transform="translate(1823.306 688.704) rotate(60.483)" fill="#d68e35"/>
              <path id="Trazado_66" data-name="Trazado 66" d="M1799.05,706.293c2.162-2.848,9.862-9.537,12.624-11.814" fill="none" stroke="#fff" stroke-miterlimit="10" stroke-width="2.311"/>
            </g>
            <path id="Trazado_67" data-name="Trazado 67" d="M1835.4,625.772c4.879-6.406,1.9-7.775-1.24-10.168s-5.252-4.9-10.131,1.5-7.83,15.556-4.693,17.949S1830.52,632.175,1835.4,625.772Z" fill="#6ba077"/>
            <path id="Trazado_68" data-name="Trazado 68" d="M1838.934,613.74l-4.212-3.207a1.054,1.054,0,0,0-1.477.2l-2.143,2.813,5.888,4.487,2.144-2.811A1.06,1.06,0,0,0,1838.934,613.74Z" fill="#d68e35"/>
            <path id="Trazado_69" data-name="Trazado 69" d="M1820.883,631.623c.733-2.935,4.5-10.691,5.884-13.377" fill="none" stroke="#fff" stroke-miterlimit="10" stroke-width="1.953"/>
            <g id="Grupo_36" data-name="Grupo 36">
              <path id="Trazado_70" data-name="Trazado 70" d="M1750.956,482.924c4.658-9.509.464-10.518-4.2-12.8s-8.03-4.979-12.687,4.529-6.122,22.073-1.46,24.358S1746.3,492.434,1750.956,482.924Z" fill="#70a14e"/>
              <path id="Rectángulo_12" data-name="Rectángulo 12" d="M1.054,0H8.685A1.053,1.053,0,0,1,9.738,1.053V6.037a0,0,0,0,1,0,0H0a0,0,0,0,1,0,0V1.054A1.054,1.054,0,0,1,1.054,0Z" transform="matrix(0.898, 0.44, -0.44, 0.898, 1744.937, 462.827)" fill="#d68e35"/>
              <path id="Trazado_71" data-name="Trazado 71" d="M1733.722,494.185c.2-3.972,3.064-14.941,4.17-18.76" fill="none" stroke="#fff" stroke-miterlimit="10" stroke-width="2.568"/>
            </g>
            <g id="Grupo_37" data-name="Grupo 37">
              <path id="Trazado_72" data-name="Trazado 72" d="M1700.688,398.08c-4.846,7.873-1.285,9.1,2.576,11.475s6.558,5,11.4-2.871,7.169-18.664,3.31-21.039S1705.533,390.209,1700.688,398.08Z" fill="#c7dfee"/>
              <path id="Rectángulo_13" data-name="Rectángulo 13" d="M1.054,0h6.39A1.056,1.056,0,0,1,8.5,1.056V5.268a0,0,0,0,1,0,0H0a0,0,0,0,1,0,0V1.054A1.054,1.054,0,0,1,1.054,0Z" transform="translate(1704.229 416.046) rotate(-148.385)" fill="#d68e35"/>
              <path id="Trazado_73" data-name="Trazado 73" d="M1716.606,389.742c-.505,3.435-3.917,12.724-5.2,15.951" fill="none" stroke="#fff" stroke-miterlimit="10" stroke-width="2.242"/>
            </g>
            <g id="Grupo_38" data-name="Grupo 38">
              <path id="Trazado_74" data-name="Trazado 74" d="M1795.557,549.064c-10.195,2.629-8.241,6.45-6.954,11.448s1.429,9.283,11.625,6.653,20.629-9.645,19.339-14.643S1805.752,546.432,1795.557,549.064Z" fill="#e7c062"/>
              <path id="Rectángulo_14" data-name="Rectángulo 14" d="M1.055,0h7.57A1.055,1.055,0,0,1,9.681,1.055V6a0,0,0,0,1,0,0H0A0,0,0,0,1,0,6V1.055A1.055,1.055,0,0,1,1.055,0Z" transform="matrix(-0.25, -0.968, 0.968, -0.25, 1784.27, 566.602)" fill="#d68e35"/>
              <path id="Trazado_75" data-name="Trazado 75" d="M1815.207,554.8c-3.127,2.421-13.269,7.347-16.87,8.98" fill="none" stroke="#fff" stroke-miterlimit="10" stroke-width="2.554"/>
            </g>
          </g>
        </g>
      </g>
      <path id="Trazado_76" data-name="Trazado 76" d="M941.906,763.785a6.384,6.384,0,1,1-6.384-6.384A6.385,6.385,0,0,1,941.906,763.785Z" fill="#acafae"/>
      <path id="Trazado_77" data-name="Trazado 77" d="M968.621,763.785a6.383,6.383,0,1,1-6.384-6.384A6.385,6.385,0,0,1,968.621,763.785Z" fill="#cdd1d0"/>
      <path id="Trazado_78" data-name="Trazado 78" d="M993.992,763.785a6.384,6.384,0,1,1-6.384-6.384A6.385,6.385,0,0,1,993.992,763.785Z" fill="#cdd1d0"/>
    </g>
  </g>
</svg>
