<svg xmlns="http://www.w3.org/2000/svg" xmlns:xlink="http://www.w3.org/1999/xlink" width="652.921" height="239.834" viewBox="0 0 652.921 239.834">
  <defs>
    <linearGradient id="linear-gradient" x1="6.715" y1="-0.032" x2="7.1" y2="0.873" gradientUnits="objectBoundingBox">
      <stop offset="0" stop-color="#53cd9f"/>
      <stop offset="1" stop-color="#0d7a5c"/>
    </linearGradient>
    <linearGradient id="linear-gradient-2" x1="31.907" y1="1.27" x2="30.504" y2="-0.122" gradientUnits="objectBoundingBox">
      <stop offset="0" stop-color="#00503e"/>
      <stop offset="1" stop-color="#023222"/>
    </linearGradient>
    <linearGradient id="linear-gradient-3" x1="31.906" y1="0.151" x2="30.933" y2="0.75" gradientUnits="objectBoundingBox">
      <stop offset="0" stop-color="#c7a44f"/>
      <stop offset="1" stop-color="#609a3f"/>
    </linearGradient>
    <linearGradient id="linear-gradient-4" x1="35.092" y1="-0.905" x2="34.018" y2="0.713" xlink:href="#linear-gradient-3"/>
    <linearGradient id="linear-gradient-5" x1="34.887" y1="2.487" x2="33.337" y2="-2.545" xlink:href="#linear-gradient-2"/>
    <linearGradient id="linear-gradient-6" x1="17.63" y1="0.5" x2="18.63" y2="0.5" xlink:href="#linear-gradient-2"/>
    <linearGradient id="linear-gradient-7" x1="32.872" y1="-0.163" x2="31.89" y2="1.214" gradientUnits="objectBoundingBox">
      <stop offset="0" stop-color="#c9cd55"/>
      <stop offset="0.507" stop-color="#659c52"/>
      <stop offset="1" stop-color="#287f50"/>
    </linearGradient>
    <linearGradient id="linear-gradient-8" x1="80.524" y1="-4.247" x2="66.247" y2="2.157" xlink:href="#linear-gradient"/>
    <linearGradient id="linear-gradient-9" x1="64.791" y1="-0.51" x2="55.161" y2="3.93" xlink:href="#linear-gradient"/>
    <linearGradient id="linear-gradient-10" x1="125.65" y1="5.2" x2="125.696" y2="0.853" gradientUnits="objectBoundingBox">
      <stop offset="0" stop-color="#fb9a2b"/>
      <stop offset="1" stop-color="#e65925"/>
    </linearGradient>
    <linearGradient id="linear-gradient-11" x1="128.686" y1="-4.617" x2="120.577" y2="3.468" xlink:href="#linear-gradient-3"/>
    <linearGradient id="linear-gradient-12" x1="121.657" y1="5.172" x2="121.703" y2="0.825" xlink:href="#linear-gradient-10"/>
    <linearGradient id="linear-gradient-13" x1="125.832" y1="-5.755" x2="117.722" y2="2.33" xlink:href="#linear-gradient-3"/>
    <linearGradient id="linear-gradient-14" x1="117.64" y1="5.144" x2="117.686" y2="0.797" xlink:href="#linear-gradient-10"/>
    <linearGradient id="linear-gradient-15" x1="134.395" y1="-2.344" x2="126.286" y2="5.741" xlink:href="#linear-gradient-3"/>
    <linearGradient id="linear-gradient-16" x1="129.652" y1="5.227" x2="129.698" y2="0.881" xlink:href="#linear-gradient-10"/>
    <linearGradient id="linear-gradient-17" x1="131.539" y1="-3.48" x2="123.43" y2="4.605" xlink:href="#linear-gradient-3"/>
    <linearGradient id="linear-gradient-18" x1="122.966" y1="-6.892" x2="114.857" y2="1.193" xlink:href="#linear-gradient-3"/>
    <linearGradient id="linear-gradient-19" x1="106.139" y1="1.957" x2="107.365" y2="-1.626" xlink:href="#linear-gradient-10"/>
    <linearGradient id="linear-gradient-20" x1="68.725" y1="1.547" x2="69.539" y2="-2.036" xlink:href="#linear-gradient-10"/>
    <linearGradient id="linear-gradient-21" x1="74.63" y1="2.725" x2="75.445" y2="-0.857" xlink:href="#linear-gradient-10"/>
    <linearGradient id="linear-gradient-22" x1="109.025" y1="2.343" x2="110.25" y2="-1.239" xlink:href="#linear-gradient-10"/>
    <linearGradient id="linear-gradient-23" x1="26.594" y1="0.5" x2="27.594" y2="0.5" xlink:href="#linear-gradient-10"/>
  </defs>
  <g id="Grupo_291" data-name="Grupo 291" transform="translate(-97.891 -2288.813)">
    <g id="Grupo_112" data-name="Grupo 112" transform="translate(-201 -560)">
      <rect id="Rectángulo_63" data-name="Rectángulo 63" width="652.921" height="239.834" transform="translate(298.891 2848.813)" fill="#dcf9f7"/>
      <g id="Grupo_111" data-name="Grupo 111">
        <path id="Trazado_278" data-name="Trazado 278" d="M774.719,3077.3s79.316-5.836,88.853-44.617-11.6-44.063-18.818-65.786,25.52-34.533,3.608-64.087-54.226-30.073-67.843-16.153-29.316-8.508-54.593,4.124-31.464,38.157-23.472,58.094-24.778,39-28.887,61.6S706.549,3087.265,774.719,3077.3Z" fill="url(#linear-gradient)"/>
        <path id="Trazado_279" data-name="Trazado 279" d="M855.084,3087.9H807.556l-3.943-10.614a15.015,15.015,0,0,0-7.909-8.436,37.8,37.8,0,0,1-12.565-9.426,87.292,87.292,0,0,1-13.377-20.333l29.455-.145s-2.652-16.476,11.989-38.358a12.4,12.4,0,0,0,2.035-7.96l-1.388-15.961s-9.949-11.117-3.845-24.91c0,0,5.837-8.081,8.153-5.123,0,0,17.63,41.983,19.234,48.225s3.747,10.165,1.606,29.785a119.1,119.1,0,0,0-.763,13.086,46.423,46.423,0,0,0,4.464,19.767Z" fill="#ffc0bb"/>
        <path id="Trazado_280" data-name="Trazado 280" d="M810.755,3060.664c4.411-4.9,10.54-4.123,16.985-6.358s8.511-18.343,8.511-18.343h0c-.01.606-.015,1.2-.014,1.765a46.423,46.423,0,0,0,4.464,19.767l14.382,30.4H807.556l-3.943-10.614a15.015,15.015,0,0,0-7.909-8.436,37.025,37.025,0,0,1-10.555-7.32C798.24,3067.031,806.343,3065.562,810.755,3060.664Z" fill="#ffc0bb" opacity="0.2" style="mix-blend-mode: multiply;isolation: isolate"/>
        <path id="Trazado_281" data-name="Trazado 281" d="M706.75,2950.844a1.64,1.64,0,0,1,1.6-1.272,1.716,1.716,0,0,1,.414.052,2.413,2.413,0,0,1,2.9-1.283,2.976,2.976,0,0,1,5.345.52,2.042,2.042,0,0,1,3.034,1.785c0,.066,0,.133-.009.2Z" fill="#edfdfc"/>
        <path id="Trazado_282" data-name="Trazado 282" d="M725.926,2902.76a4.283,4.283,0,0,1,4.172-3.32,4.38,4.38,0,0,1,1.081.138,6.307,6.307,0,0,1,7.583-3.349,7.77,7.77,0,0,1,13.954,1.357,5.331,5.331,0,0,1,7.92,4.658,5.159,5.159,0,0,1-.026.516Z" fill="#edfdfc"/>
        <path id="Trazado_283" data-name="Trazado 283" d="M820.02,2935.441a3.585,3.585,0,0,1,3.492-2.778,3.544,3.544,0,0,1,.9.114,5.276,5.276,0,0,1,6.346-2.8,6.5,6.5,0,0,1,11.679,1.135,4.463,4.463,0,0,1,6.629,3.9c0,.146-.008.291-.022.433Z" fill="#edfdfc"/>
        <g id="Grupo_97" data-name="Grupo 97">
          <path id="Trazado_284" data-name="Trazado 284" d="M831.771,2897.7c-10.926,17.24-37.857,32.606-37.857,32.606s21.408-1.739,32.033-15.577l-3.852-3.189s3.061.3,5.626.593A28.984,28.984,0,0,0,831.771,2897.7Z" fill="url(#linear-gradient-2)"/>
          <path id="Trazado_285" data-name="Trazado 285" d="M803.1,2904.833c1.661.755,4.119,1.9,4.119,1.9l-2.369-3.4a27.627,27.627,0,0,1,8.8-4.512c1.219,1.775,2.653,3.759,2.653,3.759l.284-4.53a42.031,42.031,0,0,1,15.179-.347c-10.926,17.24-37.857,32.606-37.857,32.606C794.036,2917.641,797.893,2909.73,803.1,2904.833Z" fill="url(#linear-gradient-3)"/>
        </g>
        <g id="Grupo_98" data-name="Grupo 98">
          <path id="Trazado_286" data-name="Trazado 286" d="M835.784,2922.029a25.407,25.407,0,0,0-9.644-3.322c-.955,1.09-2.126,2.371-2.126,2.371l-.065-2.566c-12.179-.583-22.448,7.088-22.448,7.088,6.97,4.238,12.968,5.429,17.91,5.077.311-.9.754-2.234.754-2.234l.827,2.065a22.392,22.392,0,0,0,6.295-1.868c-.438-1.072-.9-2.295-.9-2.295l2.6,1.424A23.1,23.1,0,0,0,835.784,2922.029Z" fill="url(#linear-gradient-4)"/>
          <path id="Trazado_287" data-name="Trazado 287" d="M819.411,2930.677c.311-.9.754-2.234.754-2.234l.827,2.065a22.392,22.392,0,0,0,6.295-1.868c-.438-1.072-.9-2.295-.9-2.295l2.6,1.424a23.1,23.1,0,0,0,6.8-5.74c-14.171-1.621-34.283,3.571-34.283,3.571C808.471,2929.838,814.469,2931.029,819.411,2930.677Z" fill="url(#linear-gradient-5)"/>
        </g>
        <g id="Grupo_99" data-name="Grupo 99">
          <path id="Trazado_288" data-name="Trazado 288" d="M743.187,2918.639s-10.067-6.739-12.365-2.3,13.078,20.147,13.078,20.147Z" fill="#eaa0a0"/>
          <path id="Trazado_289" data-name="Trazado 289" d="M743.187,2948s-10.067-6.738-12.365-2.3,13.078,20.148,13.078,20.148Z" fill="#eaa0a0"/>
          <path id="Trazado_290" data-name="Trazado 290" d="M743.187,2968s-10.067-6.74-12.365-2.3,13.078,20.147,13.078,20.147Z" fill="#eaa0a0"/>
        </g>
        <path id="Trazado_291" data-name="Trazado 291" d="M750.14,2911.089h55.267a7.451,7.451,0,0,1,7.452,7.451v112.952a7.453,7.453,0,0,1-7.452,7.451H750.14a7.454,7.454,0,0,1-7.453-7.451V2918.54A7.454,7.454,0,0,1,750.14,2911.089Z" fill="url(#linear-gradient-6)"/>
        <path id="Trazado_292" data-name="Trazado 292" d="M807.824,3006.059s10,24.47,9.027,29.1-7.036,10.815-21.919,8.752a228.441,228.441,0,0,1-25.17-4.82s-.622-33.024,0-34.7,27.382-13.563,28.434-13.563S807.824,3006.059,807.824,3006.059Z" fill="#ffc0bb" opacity="0.2" style="mix-blend-mode: multiply;isolation: isolate"/>
        <rect id="Rectángulo_64" data-name="Rectángulo 64" width="62.946" height="107.542" transform="translate(809.247 3028.787) rotate(180)" fill="#edfdfc"/>
        <g id="Grupo_101" data-name="Grupo 101">
          <path id="Rectángulo_65" data-name="Rectángulo 65" d="M3.908,0H34.873a3.91,3.91,0,0,1,3.91,3.91V44.918a3.908,3.908,0,0,1-3.908,3.908H3.908A3.908,3.908,0,0,1,0,44.918V3.908A3.908,3.908,0,0,1,3.908,0Z" transform="translate(797.165 2994.604) rotate(180)" fill="url(#linear-gradient-7)"/>
          <g id="Grupo_100" data-name="Grupo 100">
            <path id="Trazado_293" data-name="Trazado 293" d="M764.29,2965.55l3.073,14.748a1.362,1.362,0,0,0,1.322,1.1h18.177a1.362,1.362,0,0,0,1.322-1.1l3.073-14.748Zm20.8,13.675,1.033-10.452a.744.744,0,1,1,1.488,0l-1.031,10.452a.745.745,0,0,1-1.49,0Zm-3.743,0,.413-10.452a.745.745,0,1,1,1.489,0l-.413,10.452a.744.744,0,0,1-.744.744h0A.745.745,0,0,1,781.348,2979.225Zm-4.319-10.452a.745.745,0,1,1,1.489,0v10.452a.745.745,0,0,1-1.489,0Zm-4.731,0a.744.744,0,1,1,1.488,0l.413,10.452a.744.744,0,0,1-1.488,0Zm-4.364,0a.744.744,0,1,1,1.489,0l1.032,10.452a.744.744,0,0,1-1.488,0Z" fill="#edfdfc"/>
            <path id="Trazado_294" data-name="Trazado 294" d="M764.1,2966.742h27.349a1.193,1.193,0,0,0,1.192-1.192h0a1.194,1.194,0,0,0-1.192-1.191H764.1a1.191,1.191,0,0,0-1.191,1.191h0A1.191,1.191,0,0,0,764.1,2966.742Z" fill="#edfdfc"/>
            <path id="Trazado_295" data-name="Trazado 295" d="M785.705,2964.449v-1.027a3.1,3.1,0,0,0-3.1-3.106h-9.657a3.105,3.105,0,0,0-3.1,3.106v1.027a.667.667,0,0,1-.667.667h0a.667.667,0,0,1-.667-.667v-1.027a4.438,4.438,0,0,1,4.437-4.439H782.6a4.437,4.437,0,0,1,4.437,4.439v1.027a.667.667,0,0,1-.667.667h0A.666.666,0,0,1,785.705,2964.449Z" fill="#edfdfc"/>
          </g>
        </g>
        <path id="Rectángulo_66" data-name="Rectángulo 66" d="M.541,0H26.393a.541.541,0,0,1,.541.541V.8a.542.542,0,0,1-.542.542H.542A.542.542,0,0,1,0,.8V.541A.541.541,0,0,1,.541,0Z" transform="translate(791.19 2917.865) rotate(180)" fill="#b7d972"/>
        <path id="Trazado_296" data-name="Trazado 296" d="M814.112,2986.295a4.7,4.7,0,0,1-1.239,2.107l-1.02-11.738s-7.318-8.18-5.55-19.209a16.484,16.484,0,0,1,5.355-9.775c1.641-1.443,3.441-2.405,4.5-1.049,0,0,8.291,19.742,14.019,34.163Z" fill="#ffc0bb"/>
        <g id="Grupo_103" data-name="Grupo 103">
          <path id="Trazado_297" data-name="Trazado 297" d="M774.719,3033.969a3.091,3.091,0,1,0,3.09-3.092A3.091,3.091,0,0,0,774.719,3033.969Z" fill="#daeef7" opacity="0.3"/>
          <g id="Grupo_102" data-name="Grupo 102">
            <path id="Trazado_298" data-name="Trazado 298" d="M776.522,3034.89v-1.843a.365.365,0,0,1,.366-.365h1.843a.365.365,0,0,1,.367.365v1.843a.366.366,0,0,1-.367.366h-1.843A.366.366,0,0,1,776.522,3034.89Zm.366-2.111a.266.266,0,0,0-.266.268v1.843a.266.266,0,0,0,.266.266h1.843a.267.267,0,0,0,.267-.266v-1.843a.267.267,0,0,0-.267-.268Z" fill="#daeef7"/>
          </g>
        </g>
        <rect id="Rectángulo_67" data-name="Rectángulo 67" width="62.946" height="6.361" transform="translate(809.247 3028.787) rotate(180)" fill="#b7d972"/>
        <rect id="Rectángulo_68" data-name="Rectángulo 68" width="62.946" height="5.708" transform="translate(809.247 2926.953) rotate(180)" fill="#c0efff"/>
        <path id="Trazado_299" data-name="Trazado 299" d="M814.669,2958.227c-2.29-1.055-3.486-7.015-3.914-9.694,1.839-1.849,4.145-3.515,5.406-1.9,0,0,1.825,4.348,4.355,10.451C818.786,2958.047,816.382,2959.016,814.669,2958.227Z" fill="#eaa0a0"/>
        <path id="Trazado_300" data-name="Trazado 300" d="M841.39,3059.852c-5.029,3.089-21.22,12.33-37.962,14.3a1.469,1.469,0,0,0-1.38,1.791l2.925,7.835a1.3,1.3,0,0,0,1.43.74c4.934-.6,25.292-3.662,39.615-14.743a1.285,1.285,0,0,0,.511-1.437l-2.985-7.995A1.458,1.458,0,0,0,841.39,3059.852Z" fill="#473b1e"/>
        <path id="Trazado_301" data-name="Trazado 301" d="M842.859,3067.344l.056-.022a.568.568,0,0,0,.333-.73l-.9-2.41a.567.567,0,0,0-.73-.334l-.056.021a.568.568,0,0,0-.333.731l.9,2.41A.569.569,0,0,0,842.859,3067.344Z" fill="#212121"/>
        <path id="Trazado_302" data-name="Trazado 302" d="M839.848,3069.2l.055-.021a.568.568,0,0,0,.333-.731l-.9-2.411a.567.567,0,0,0-.729-.334l-.055.021a.566.566,0,0,0-.333.729l.9,2.412A.568.568,0,0,0,839.848,3069.2Z" fill="#212121"/>
        <path id="Trazado_303" data-name="Trazado 303" d="M836.832,3071.042l.055-.021a.568.568,0,0,0,.334-.73l-.9-2.411a.568.568,0,0,0-.73-.333l-.055.021a.566.566,0,0,0-.334.729l.9,2.412A.568.568,0,0,0,836.832,3071.042Z" fill="#212121"/>
        <path id="Trazado_304" data-name="Trazado 304" d="M833.728,3072.542l.055-.021a.567.567,0,0,0,.333-.73l-.9-2.412a.569.569,0,0,0-.73-.334l-.055.021a.568.568,0,0,0-.334.731l.9,2.411A.569.569,0,0,0,833.728,3072.542Z" fill="#212121"/>
        <path id="Trazado_305" data-name="Trazado 305" d="M830.675,3074.283l.054-.019a.568.568,0,0,0,.333-.731l-.9-2.41a.567.567,0,0,0-.73-.335l-.055.021a.569.569,0,0,0-.334.731l.9,2.411A.565.565,0,0,0,830.675,3074.283Z" fill="#212121"/>
        <path id="Trazado_306" data-name="Trazado 306" d="M827.486,3075.666l.055-.021a.568.568,0,0,0,.333-.73l-.9-2.411a.568.568,0,0,0-.731-.334l-.056.021a.569.569,0,0,0-.333.731l.9,2.41A.568.568,0,0,0,827.486,3075.666Z" fill="#212121"/>
        <path id="Trazado_307" data-name="Trazado 307" d="M824.234,3076.88l.056-.021a.567.567,0,0,0,.333-.729l-.9-2.411a.567.567,0,0,0-.729-.336l-.056.022a.569.569,0,0,0-.334.73l.9,2.412A.566.566,0,0,0,824.234,3076.88Z" fill="#212121"/>
        <path id="Trazado_308" data-name="Trazado 308" d="M820.92,3077.925l.056-.021a.569.569,0,0,0,.334-.729l-.9-2.411a.567.567,0,0,0-.73-.334l-.056.02a.569.569,0,0,0-.333.73l.9,2.413A.565.565,0,0,0,820.92,3077.925Z" fill="#212121"/>
        <path id="Trazado_309" data-name="Trazado 309" d="M817.472,3078.611l.056-.021a.567.567,0,0,0,.332-.731l-.9-2.41a.57.57,0,0,0-.731-.336l-.056.022a.569.569,0,0,0-.333.73l.9,2.412A.568.568,0,0,0,817.472,3078.611Z" fill="#212121"/>
        <path id="Trazado_310" data-name="Trazado 310" d="M814.115,3079.539l.055-.021a.566.566,0,0,0,.333-.73l-.9-2.411a.569.569,0,0,0-.731-.334l-.055.022a.566.566,0,0,0-.333.728l.9,2.412A.57.57,0,0,0,814.115,3079.539Z" fill="#212121"/>
        <path id="Trazado_311" data-name="Trazado 311" d="M810.628,3080.123l.056-.019a.57.57,0,0,0,.333-.731l-.9-2.412a.567.567,0,0,0-.729-.334l-.056.021a.567.567,0,0,0-.333.73l.9,2.412A.568.568,0,0,0,810.628,3080.123Z" fill="#212121"/>
        <path id="Trazado_312" data-name="Trazado 312" d="M807.137,3080.7l.056-.02a.569.569,0,0,0,.333-.731l-.9-2.411a.571.571,0,0,0-.731-.335l-.055.023a.565.565,0,0,0-.333.728l.9,2.414A.566.566,0,0,0,807.137,3080.7Z" fill="#212121"/>
        <path id="Trazado_313" data-name="Trazado 313" d="M831.452,3077.991l-.013-.036a.645.645,0,0,0,.158-.039l3.962-1.478a.792.792,0,0,0,.424-1.032l-3.573-9.57a.791.791,0,0,0-1-.5l-3.962,1.479a.736.736,0,0,0-.452.52c-.311.136-.624.27-.941.405a1.713,1.713,0,0,1,1.044-1.86l3.962-1.48a1.755,1.755,0,0,1,2.21,1.116l3.573,9.567a1.757,1.757,0,0,1-.94,2.29l-3.962,1.479a1.67,1.67,0,0,1-1.71-.37C830.64,3078.323,831.046,3078.158,831.452,3077.991Z" fill="#edfdfc"/>
        <path id="Trazado_314" data-name="Trazado 314" d="M832.321,3070.4l1.724-.642a.646.646,0,0,1,.451,1.207l-1.723.643Z" fill="#b7d972"/>
        <g id="Grupo_104" data-name="Grupo 104">
          <path id="Trazado_315" data-name="Trazado 315" d="M756.947,2992.074s8.5.713,8.8,2.971-.357,6.244-8.384,7.017h-8.312s2.487-6.9,2.368-7.135S756.947,2992.074,756.947,2992.074Z" fill="#efadab"/>
          <path id="Trazado_316" data-name="Trazado 316" d="M770.588,3025.775a2.307,2.307,0,0,1,.9,3.194c-3.913,6.748-19.468,33.561-20.87,35.742-1.606,2.5-5.531,8.383-18.55,11.416s-18.37,11.77-18.37,11.77h-40.13s9.453-14.981,17.3-53.864c0,0,6.063-32.281,17.478-31.21,0,0,6.956-7.311,13.733-5.885,0,0,12.842-7.67,20.154-7.67L759.8,2968.51a5.083,5.083,0,0,1,6.94-.822,3.319,3.319,0,0,1,1.357,2.138c.535,3.389-3.924,11.951-11.058,22.3s-24.792,43.162-17.122,57.608a77.526,77.526,0,0,0,14.625-15.337C760.215,3026.477,766.891,3023.813,770.588,3025.775Z" fill="#ffc0bb"/>
          <path id="Trazado_317" data-name="Trazado 317" d="M742.168,2989.275a73.443,73.443,0,0,0-6.578,6.434,75.932,75.932,0,0,0-8.369,11,34.979,34.979,0,0,0-5.137,12.783l.053.012a40.5,40.5,0,0,1,5.509-12.527,92.938,92.938,0,0,1,8.262-10.989c1.868-2.156,4.237-4.7,6.3-6.672Z" fill="#eaa0a0"/>
          <path id="Trazado_318" data-name="Trazado 318" d="M722.194,2996.881a19.851,19.851,0,0,0-5.082,3.853,24.632,24.632,0,0,0-3.851,5.139,25.106,25.106,0,0,0-2.411,5.949,24.25,24.25,0,0,0-.807,6.325l.054.005a31.091,31.091,0,0,1,1.156-6.21,28.184,28.184,0,0,1,2.474-5.807,27.373,27.373,0,0,1,3.7-5.115,23.787,23.787,0,0,1,4.8-4.092Z" fill="#eaa0a0"/>
          <path id="Trazado_319" data-name="Trazado 319" d="M708.494,3002.673a17.666,17.666,0,0,0-4.2,5.03,22.655,22.655,0,0,0-2.4,6.115,18.993,18.993,0,0,0-.559,4.328l.052.008a32.234,32.234,0,0,1,.911-4.22,29.564,29.564,0,0,1,2.436-5.99,23.907,23.907,0,0,1,3.779-5.231Z" fill="#eaa0a0"/>
          <path id="Trazado_320" data-name="Trazado 320" d="M762.488,3034.077c-.356-1.806,1.748-4.669,3.658-6.829a4.437,4.437,0,0,1,4.729-1.289,2.309,2.309,0,0,1,.612,3.01c-1.052,1.813-2.944,5.076-5.176,8.918C764.64,3037.037,762.818,3035.748,762.488,3034.077Z" fill="#eaa0a0"/>
          <path id="Trazado_321" data-name="Trazado 321" d="M760.8,2976.656c-1.015-.2-5.618-1.735-5.336-2.573h0l4.54-5.366a5.164,5.164,0,0,1,3.461-1.807h0a.087.087,0,0,1,.022,0c.036,0,.12-.01.236-.01a2.3,2.3,0,0,1,2.438,1.824c.325,1.628-2.369,5.585-3.558,7.229A1.784,1.784,0,0,1,760.8,2976.656Z" fill="#eaa0a0"/>
          <path id="Trazado_322" data-name="Trazado 322" d="M713.7,3087.9h-40.13s6.2-9.823,12.722-34.2c2.863,17.951,18.661,16.915,24.93,17.911,7.218,1.148,35.238-4.694,39.164-6.536-1.746,2.667-5.885,8.16-18.316,11.057C719.047,3079.158,713.7,3087.9,713.7,3087.9Z" fill="#ffc0bb" opacity="0.2" style="mix-blend-mode: multiply;isolation: isolate"/>
          <path id="Trazado_323" data-name="Trazado 323" d="M754.915,2995.377c-7.869,12.641-21.985,41.682-15,54.352l-4.636,4.577s-11.713-12.976,6.926-41.59A190.658,190.658,0,0,1,754.915,2995.377Z" fill="#ffc0bb" opacity="0.2" style="mix-blend-mode: multiply;isolation: isolate"/>
        </g>
        <path id="Trazado_324" data-name="Trazado 324" d="M863.539,2958.6c1.632-8.264-10.69-11.038-12.673-2.856a12.683,12.683,0,0,0-.33,2.489c-.384,9.836,5.566,20.542,11.9,18.74s2.687-8.521.768-12.552C862.307,2962.537,863.119,2960.725,863.539,2958.6Z" fill="url(#linear-gradient-8)"/>
        <path id="Trazado_325" data-name="Trazado 325" d="M684.3,2940.578a7.094,7.094,0,0,1,8.921,4.235,33.558,33.558,0,0,1,2.375,10.066c.2,6.149-2.247,19.349-11.6,22.609s-14.934-5.339-8.707-15.287C677.944,2957.951,676.617,2943.258,684.3,2940.578Z" fill="url(#linear-gradient-9)"/>
        <path id="Trazado_326" data-name="Trazado 326" d="M730.586,2939.284a3.389,3.389,0,0,0-4.159-2.52,5,5,0,0,0-6.006-2.653,6.152,6.152,0,0,0-11.051,1.074,4.221,4.221,0,0,0-6.272,3.689,3.97,3.97,0,0,0,.02.41Z" fill="#edfdfc"/>
        <path id="Trazado_327" data-name="Trazado 327" d="M717.028,2981.819s.413,4.077,3.631,4.359c-3.218.283-3.631,4.359-3.631,4.359s-.414-4.076-3.631-4.359C716.614,2985.9,717.028,2981.819,717.028,2981.819Z" fill="#edfdfc"/>
        <path id="Trazado_328" data-name="Trazado 328" d="M834.546,2951.692s.413,4.076,3.63,4.359c-3.217.281-3.63,4.357-3.63,4.357s-.414-4.076-3.63-4.357C834.132,2955.768,834.546,2951.692,834.546,2951.692Z" fill="#edfdfc"/>
        <path id="Trazado_329" data-name="Trazado 329" d="M708.517,2970.541s.274,2.7,2.4,2.884c-2.128.186-2.4,2.884-2.4,2.884s-.273-2.7-2.4-2.884C708.244,2973.238,708.517,2970.541,708.517,2970.541Z" fill="#edfdfc"/>
        <path id="Trazado_330" data-name="Trazado 330" d="M827.778,2942.154s.273,2.7,2.4,2.883c-2.129.188-2.4,2.884-2.4,2.884s-.274-2.7-2.4-2.884C827.5,2944.853,827.778,2942.154,827.778,2942.154Z" fill="#edfdfc"/>
        <path id="Trazado_331" data-name="Trazado 331" d="M720.953,2962.443s.122,1.207,1.073,1.291c-.951.084-1.073,1.291-1.073,1.291s-.124-1.207-1.075-1.291C720.829,2963.65,720.953,2962.443,720.953,2962.443Z" fill="#edfdfc"/>
        <path id="Trazado_332" data-name="Trazado 332" d="M831.688,2967.609s.123,1.207,1.076,1.29c-.953.084-1.076,1.291-1.076,1.291s-.122-1.207-1.074-1.291C831.566,2968.816,831.688,2967.609,831.688,2967.609Z" fill="#edfdfc"/>
        <g id="Grupo_108" data-name="Grupo 108">
          <g id="Grupo_107" data-name="Grupo 107">
            <g id="Grupo_105" data-name="Grupo 105">
              <path id="Rectángulo_69" data-name="Rectángulo 69" d="M5,0h.05a5,5,0,0,1,5,5V8.742a0,0,0,0,1,0,0H0a0,0,0,0,1,0,0V5A5,5,0,0,1,5,0Z" transform="translate(772.742 2942.688) rotate(180)" fill="url(#linear-gradient-10)"/>
              <path id="Rectángulo_70" data-name="Rectángulo 70" d="M5,0h.05a5,5,0,0,1,5,5V8.742a0,0,0,0,1,0,0H0a0,0,0,0,1,0,0V5A5,5,0,0,1,5,0Z" transform="translate(782.783 2942.688) rotate(180)" fill="url(#linear-gradient-11)"/>
              <path id="Rectángulo_71" data-name="Rectángulo 71" d="M5,0h.051a4.995,4.995,0,0,1,4.995,4.995V8.742a0,0,0,0,1,0,0H0a0,0,0,0,1,0,0V5A5,5,0,0,1,5,0Z" transform="translate(792.824 2942.688) rotate(180)" fill="url(#linear-gradient-12)"/>
              <path id="Rectángulo_72" data-name="Rectángulo 72" d="M4.993,0h.052a5,5,0,0,1,5,5V8.742a0,0,0,0,1,0,0H0a0,0,0,0,1,0,0V4.993A4.993,4.993,0,0,1,4.993,0Z" transform="translate(802.864 2942.688) rotate(180)" fill="url(#linear-gradient-13)"/>
              <path id="Rectángulo_73" data-name="Rectángulo 73" d="M5,0h.051a5,5,0,0,1,5,5V8.742a0,0,0,0,1,0,0H0a0,0,0,0,1,0,0V5A5,5,0,0,1,5,0Z" transform="translate(812.907 2942.688) rotate(180)" fill="url(#linear-gradient-14)"/>
              <path id="Rectángulo_74" data-name="Rectángulo 74" d="M5,0h.051a5,5,0,0,1,5,5V8.742a0,0,0,0,1,0,0H0a0,0,0,0,1,0,0V5A5,5,0,0,1,5,0Z" transform="translate(742.641 2942.688) rotate(180)" fill="url(#linear-gradient-15)"/>
              <path id="Rectángulo_75" data-name="Rectángulo 75" d="M4.994,0h.051a5,5,0,0,1,5,5V8.742a0,0,0,0,1,0,0H0a0,0,0,0,1,0,0V4.994A4.994,4.994,0,0,1,4.994,0Z" transform="translate(752.682 2942.688) rotate(180)" fill="url(#linear-gradient-16)"/>
              <path id="Rectángulo_76" data-name="Rectángulo 76" d="M4.995,0h.052a5,5,0,0,1,5,5V8.742a0,0,0,0,1,0,0H0a0,0,0,0,1,0,0V4.995A4.995,4.995,0,0,1,4.995,0Z" transform="translate(762.7 2942.688) rotate(180)" fill="url(#linear-gradient-17)"/>
              <path id="Rectángulo_77" data-name="Rectángulo 77" d="M5,0h.051a5,5,0,0,1,5,5V8.742a0,0,0,0,1,0,0H0a0,0,0,0,1,0,0V5A5,5,0,0,1,5,0Z" transform="translate(822.948 2942.688) rotate(180)" fill="url(#linear-gradient-18)"/>
            </g>
            <g id="Grupo_106" data-name="Grupo 106">
              <path id="Trazado_333" data-name="Trazado 333" d="M774.192,2921.245h7.14l1.451,12.7H772.742Z" fill="#edfdfc"/>
              <path id="Trazado_334" data-name="Trazado 334" d="M781.331,2921.245h7.139l4.353,12.7H782.783Z" fill="url(#linear-gradient-19)"/>
              <path id="Trazado_335" data-name="Trazado 335" d="M788.471,2921.245h7.14l7.254,12.7H792.824Z" fill="#edfdfc"/>
              <path id="Trazado_336" data-name="Trazado 336" d="M795.61,2921.245h7.139l10.158,12.7H802.864Z" fill="url(#linear-gradient-20)"/>
              <path id="Trazado_337" data-name="Trazado 337" d="M802.749,2921.245h7.14l13.059,12.7H812.907Z" fill="#edfdfc"/>
              <path id="Trazado_338" data-name="Trazado 338" d="M745.683,2921.245h7.14l-10.182,12.7H732.6Z" fill="#edfdfc"/>
              <path id="Trazado_339" data-name="Trazado 339" d="M752.787,2921.245h7.139l-7.244,12.7H742.641Z" fill="url(#linear-gradient-21)"/>
              <path id="Trazado_340" data-name="Trazado 340" d="M759.926,2921.245h7.14l-4.365,12.7H752.659Z" fill="#edfdfc"/>
              <path id="Trazado_341" data-name="Trazado 341" d="M767.065,2921.245H774.2l-1.463,12.7H762.7Z" fill="url(#linear-gradient-22)"/>
            </g>
          </g>
        </g>
        <g id="Grupo_110" data-name="Grupo 110">
          <path id="Rectángulo_78" data-name="Rectángulo 78" d="M3.833,0H42.687a3.832,3.832,0,0,1,3.832,3.832V4.963a3.83,3.83,0,0,1-3.83,3.83H3.83A3.83,3.83,0,0,1,0,4.963V3.833A3.833,3.833,0,0,1,3.833,0Z" transform="translate(801.033 3009.941) rotate(180)" fill="url(#linear-gradient-23)"/>
          <g id="Grupo_109" data-name="Grupo 109">
            <path id="Trazado_342" data-name="Trazado 342" d="M787.227,3005.879a.906.906,0,0,1,.158-.281.9.9,0,0,1,.236-.2,1,1,0,0,1,.289-.107.9.9,0,0,1-.218-.133.824.824,0,0,1-.158-.187.865.865,0,0,1-.095-.227,1.122,1.122,0,0,1,.042-.66.777.777,0,0,1,.217-.3.955.955,0,0,1,.361-.185,1.91,1.91,0,0,1,.556-.065h.859a.213.213,0,0,1,.127.043.193.193,0,0,1,.06.162v3.371a.189.189,0,0,1-.06.16.207.207,0,0,1-.127.045h-.988a1.964,1.964,0,0,1-.379-.031,1.491,1.491,0,0,1-.309-.092,1.076,1.076,0,0,1-.26-.152.915.915,0,0,1-.2-.21,1.041,1.041,0,0,1-.127-.271,1.126,1.126,0,0,1-.045-.328A1,1,0,0,1,787.227,3005.879Zm.734-1.1a.534.534,0,0,0,.116.2.556.556,0,0,0,.2.138.832.832,0,0,0,.315.051h.571v-1.225h-.519a1.216,1.216,0,0,0-.347.041.551.551,0,0,0-.213.12.45.45,0,0,0-.119.187.74.74,0,0,0-.038.247A.8.8,0,0,0,787.961,3004.777Zm-.208,1.761a.538.538,0,0,0,.153.2.627.627,0,0,0,.226.12.959.959,0,0,0,.3.042h.729v-1.333h-.6a1.441,1.441,0,0,0-.392.045.739.739,0,0,0-.26.133.6.6,0,0,0-.157.217.744.744,0,0,0-.054.3A.637.637,0,0,0,787.753,3006.538Z" fill="#fff"/>
            <path id="Trazado_343" data-name="Trazado 343" d="M783.561,3003.609a.073.073,0,0,1,.013-.041.11.11,0,0,1,.041-.027.539.539,0,0,1,.076-.018,1.013,1.013,0,0,1,.119-.006,1.05,1.05,0,0,1,.121.006.525.525,0,0,1,.077.018.1.1,0,0,1,.042.027.089.089,0,0,1,.011.041v2.313a1.371,1.371,0,0,0,.063.443.841.841,0,0,0,.182.32.716.716,0,0,0,.288.192,1.081,1.081,0,0,0,.391.064,1.024,1.024,0,0,0,.384-.066.739.739,0,0,0,.292-.2.853.853,0,0,0,.186-.326,1.466,1.466,0,0,0,.064-.459v-2.286a.089.089,0,0,1,.011-.041.1.1,0,0,1,.04-.027.515.515,0,0,1,.078-.018,1.263,1.263,0,0,1,.243,0,.557.557,0,0,1,.075.018.106.106,0,0,1,.042.027.09.09,0,0,1,.011.041v2.348a1.76,1.76,0,0,1-.1.613,1.178,1.178,0,0,1-.284.444,1.211,1.211,0,0,1-.442.267,1.684,1.684,0,0,1-.569.092,1.813,1.813,0,0,1-.611-.1,1.2,1.2,0,0,1-.456-.283,1.229,1.229,0,0,1-.288-.456,1.762,1.762,0,0,1-.1-.615Z" fill="#fff"/>
            <path id="Trazado_344" data-name="Trazado 344" d="M780.467,3007.01a.171.171,0,0,1,.02-.064.116.116,0,0,1,.033-.036.091.091,0,0,1,.043-.012h1.5v-1.353h-1.269a.1.1,0,0,1-.042-.01.08.08,0,0,1-.032-.034.174.174,0,0,1-.019-.061.6.6,0,0,1-.006-.09.678.678,0,0,1,.006-.1.2.2,0,0,1,.019-.065.1.1,0,0,1,.032-.036.072.072,0,0,1,.042-.013h1.269v-1.188h-1.479a.083.083,0,0,1-.042-.01.072.072,0,0,1-.031-.037.288.288,0,0,1-.019-.064.5.5,0,0,1-.007-.092.568.568,0,0,1,.007-.1.273.273,0,0,1,.019-.064.074.074,0,0,1,.031-.038.063.063,0,0,1,.042-.012h1.794a.22.22,0,0,1,.128.043.193.193,0,0,1,.06.162v3.371a.189.189,0,0,1-.06.16.214.214,0,0,1-.128.045h-1.814a.066.066,0,0,1-.043-.013.083.083,0,0,1-.033-.036.183.183,0,0,1-.02-.066.491.491,0,0,1-.007-.092A.567.567,0,0,1,780.467,3007.01Z" fill="#fff"/>
            <path id="Trazado_345" data-name="Trazado 345" d="M775.431,3003.619a.068.068,0,0,1,.012-.038.083.083,0,0,1,.04-.031.263.263,0,0,1,.077-.019.994.994,0,0,1,.117-.006,1.056,1.056,0,0,1,.125.006.293.293,0,0,1,.076.019.089.089,0,0,1,.042.031.062.062,0,0,1,.013.038v2.053c0,.152,0,.312,0,.479s0,.328-.007.48h0l.135-.272c.047-.089.094-.182.14-.276s.1-.188.148-.286.1-.193.158-.3l.886-1.659a1.29,1.29,0,0,1,.092-.151.354.354,0,0,1,.092-.093.31.31,0,0,1,.105-.05.663.663,0,0,1,.147-.013h.246a.232.232,0,0,1,.145.05.19.19,0,0,1,.067.165v3.489a.064.064,0,0,1-.013.04.08.08,0,0,1-.04.03.329.329,0,0,1-.075.017.956.956,0,0,1-.121.007.966.966,0,0,1-.123-.007.407.407,0,0,1-.078-.017.083.083,0,0,1-.041-.03.07.07,0,0,1-.012-.04v-2.282c0-.143,0-.289,0-.436s.005-.289.01-.429h-.006c-.053.115-.109.233-.171.355s-.122.238-.182.35l-1.155,2.151a1.759,1.759,0,0,1-.111.187.573.573,0,0,1-.107.115.285.285,0,0,1-.111.059.572.572,0,0,1-.138.015h-.166a.272.272,0,0,1-.079-.011.162.162,0,0,1-.071-.039.17.17,0,0,1-.051-.066.225.225,0,0,1-.019-.1Z" fill="#fff"/>
            <path id="Trazado_346" data-name="Trazado 346" d="M771.357,3004.566a1.567,1.567,0,0,1,.307-.594,1.33,1.33,0,0,1,.516-.368,2.164,2.164,0,0,1,1.485.013,1.42,1.42,0,0,1,.54.4,1.659,1.659,0,0,1,.325.62,2.822,2.822,0,0,1,.108.811,3.13,3.13,0,0,1-.1.829,1.568,1.568,0,0,1-.3.6,1.3,1.3,0,0,1-.514.369,2.139,2.139,0,0,1-1.5-.012,1.4,1.4,0,0,1-.539-.4,1.719,1.719,0,0,1-.322-.626,2.94,2.94,0,0,1-.108-.827A3.023,3.023,0,0,1,771.357,3004.566Zm.49,1.432a1.4,1.4,0,0,0,.2.484,1,1,0,0,0,.361.331,1.132,1.132,0,0,0,.554.124,1.225,1.225,0,0,0,.554-.113.9.9,0,0,0,.352-.316,1.312,1.312,0,0,0,.186-.484,3.168,3.168,0,0,0,.056-.614,2.675,2.675,0,0,0-.06-.574,1.382,1.382,0,0,0-.2-.478,1.042,1.042,0,0,0-.361-.327,1.131,1.131,0,0,0-.549-.123,1.193,1.193,0,0,0-.548.113.922.922,0,0,0-.355.317,1.435,1.435,0,0,0-.19.48,3.036,3.036,0,0,0-.056.6A2.789,2.789,0,0,0,771.847,3006Z" fill="#fff"/>
            <path id="Trazado_347" data-name="Trazado 347" d="M765.9,3003.717a.649.649,0,0,1-.016-.108.061.061,0,0,1,.023-.056.125.125,0,0,1,.073-.03,1.3,1.3,0,0,1,.14-.006c.056,0,.1,0,.135,0a.342.342,0,0,1,.078.019.065.065,0,0,1,.038.034.369.369,0,0,1,.017.051l.834,3.165h.005l.868-3.162a.2.2,0,0,1,.022-.054.079.079,0,0,1,.043-.034.384.384,0,0,1,.076-.019c.033,0,.076,0,.131,0s.1,0,.141,0a.4.4,0,0,1,.084.019.081.081,0,0,1,.042.034.228.228,0,0,1,.023.054l.806,3.162h0l.851-3.169a.377.377,0,0,1,.016-.053.076.076,0,0,1,.039-.032.275.275,0,0,1,.08-.015c.034,0,.083,0,.143,0s.112,0,.15,0a.168.168,0,0,1,.079.027.071.071,0,0,1,.025.058.692.692,0,0,1-.02.107l-1,3.493a.158.158,0,0,1-.03.065.132.132,0,0,1-.063.038.5.5,0,0,1-.106.019c-.042,0-.1.005-.16.005s-.114,0-.154-.005a.41.41,0,0,1-.1-.019.116.116,0,0,1-.058-.038.136.136,0,0,1-.03-.065l-.731-2.856h-.007l-.791,2.856a.211.211,0,0,1-.032.065.116.116,0,0,1-.062.038.469.469,0,0,1-.1.019c-.043,0-.093.005-.153.005s-.109,0-.148-.005a.472.472,0,0,1-.1-.019.14.14,0,0,1-.064-.038.179.179,0,0,1-.036-.065Z" fill="#fff"/>
          </g>
        </g>
      </g>
      <text id="Tu_farmacia_digital_al_alcance_de_tu_mano" data-name="Tu farmacia digital
al alcance de tu mano" transform="translate(343.127 2955.869)" font-size="26.905" font-family="MADETOMMY-Bold, MADE TOMMY" font-weight="700"><tspan x="0" y="0">Tu farmacia digital</tspan><tspan x="0" y="27">al alcance de tu mano</tspan></text>
      <text id="Enviá_tus_recetas_y_pedidos_sin_moverte_de_tu_casa." data-name="Enviá tus recetas y pedidos
sin moverte de tu casa." transform="translate(343.127 3007.77)" font-size="13.428" font-family="MADETOMMY-Light, MADE TOMMY" font-weight="300"><tspan x="0" y="0">Enviá tus recetas y pedidos</tspan><tspan x="0" y="16.113">sin moverte de tu casa.</tspan></text>
      <text id="Descargate_la_App" data-name="Descargate la App" transform="translate(343.127 2912.617)" font-size="19.626" font-family="MADETOMMY-Light, MADE TOMMY" font-weight="300"><tspan x="0" y="0">Descargate la App</tspan></text>
      <line id="Línea_10" data-name="Línea 10" x2="57.177" transform="translate(343.127 2921.245)" fill="#c0f2f1" stroke="#000" stroke-miterlimit="10" stroke-width="1"/>
    </g>
  </g>
</svg>
