<svg xmlns="http://www.w3.org/2000/svg" xmlns:xlink="http://www.w3.org/1999/xlink" width="1416.523" height="392.443" viewBox="0 0 1416.523 392.443">
  <defs>
    <clipPath id="clip-path">
      <rect id="Rectángulo_46" data-name="Rectángulo 46" width="1416.523" height="392.443" transform="translate(258.75 1765.906)" fill="none"/>
    </clipPath>
  </defs>
  <g id="Grupo_373" data-name="Grupo 373" transform="translate(-258.75 -1765.906)">
    <g id="Grupo_67" data-name="Grupo 67">
      <g id="Grupo_66" data-name="Grupo 66" clip-path="url(#clip-path)">
        <rect id="Rectángulo_42" data-name="Rectángulo 42" width="1417.158" height="487.435" transform="translate(258.115 1719.369)" fill="#6fb353" opacity="0.36"/>
        <path id="Trazado_169" data-name="Trazado 169" d="M248.223,2194.716c.027.022,522.8-.07,522.8-.07s13.962-24.691,19.14-81.534c11.408-125.235-76.787-144.55-102.449-149.774-78.578-16-42.815-95.145-247.576-80.3-18.767,1.361-63.016,12.349-78.266,19.467-10.7,4.989-50.993,27.313-62.816,65.075a72.869,72.869,0,0,0-.866,40.309c13.326,52.847-21.415,49.809-46.8,74.994C217.505,2116.5,221.047,2171.467,248.223,2194.716Z" fill="#6fb353" opacity="0.5"/>
        <path id="Trazado_170" data-name="Trazado 170" d="M1118.3,1725.936c-.021-.017-415.1.055-415.1.055s-11.085,19.6-15.2,64.738c-9.058,99.436,60.968,114.772,81.344,118.92,62.391,12.7,33.995,75.544,196.575,63.754,14.9-1.081,50.034-9.8,62.142-15.457,8.492-3.961,40.488-21.686,49.876-51.669a57.868,57.868,0,0,0,.687-32.005c-10.581-41.96,17-39.549,37.161-59.545C1142.692,1788.04,1139.88,1744.4,1118.3,1725.936Z" fill="#6fb353" opacity="0.5"/>
        <path id="Trazado_171" data-name="Trazado 171" d="M1080.974,2214.059s-91.44-52.18-41.107-180.211,180.514-94.634,228.844-152.245,145.7-145.289,252.842-79.563,80.776,169.232,119.326,210.879,118.365,219.809-116.992,228.741S1080.974,2214.059,1080.974,2214.059Z" fill="#6fb353" opacity="0.3"/>
        <path id="Trazado_172" data-name="Trazado 172" d="M1509.146,1822.352a12.264,12.264,0,0,0-15.032-9.106,18.052,18.052,0,0,0-21.7-9.587,22.235,22.235,0,0,0-39.938,3.885,15.252,15.252,0,0,0-22.667,13.328c0,.5.026.993.073,1.48Z" fill="#fff"/>
        <path id="Trazado_173" data-name="Trazado 173" d="M1325.021,1871.588a6.483,6.483,0,0,1,7.95-4.816,9.55,9.55,0,0,1,11.479-5.071,11.759,11.759,0,0,1,21.122,2.055,8.066,8.066,0,0,1,11.989,7.049c0,.264-.014.525-.039.783Z" fill="#fff"/>
        <path id="Trazado_174" data-name="Trazado 174" d="M1489.267,1865.521a6.483,6.483,0,0,1,7.95-4.816,9.544,9.544,0,0,1,11.478-5.071,11.76,11.76,0,0,1,21.123,2.054,8.067,8.067,0,0,1,11.988,7.05q0,.4-.038.783Z" fill="#fff"/>
        <path id="Trazado_175" data-name="Trazado 175" d="M1563.12,1946.138a7.858,7.858,0,0,1,9.633-5.834,11.564,11.564,0,0,1,13.907-6.144,14.247,14.247,0,0,1,25.591,2.489,9.773,9.773,0,0,1,14.525,8.541c0,.32-.017.636-.047.948Z" fill="#fff"/>
        <path id="Trazado_176" data-name="Trazado 176" d="M1091.945,2028.971l-50.522-12.691-.7,12.359-36.39.3,48.5,16.148-.183-14.088Z" fill="#2a2a2a"/>
        <path id="Trazado_177" data-name="Trazado 177" d="M967.742,1907.317l-21.655,34.076,8.922,3.528-8.655,26.845,23.7-31.745-10.41-3.3Z" fill="#2a2a2a"/>
        <path id="Trazado_178" data-name="Trazado 178" d="M1040.669,1956.5l-28.993,7.858,3.131,6.414-18.223,10.407,28.95-5.549-4.064-7.035Z" fill="#2a2a2a"/>
        <text id="Súper" transform="translate(519.709 2087.856) rotate(-90)" fill="#2a2a2a" font-size="90.789" font-family="ProximaNova-Bold, Proxima Nova" font-weight="700"><tspan x="0" y="0">Súper</tspan></text>
        <text id="bene" transform="translate(542.893 1958.742)" fill="#2a2a2a" font-size="151.924" font-family="ProximaNova-Extrabld, Proxima Nova"><tspan x="0" y="0">bene</tspan></text>
        <ellipse id="_Path_" data-name="&lt;Path&gt;" cx="158.829" cy="9.276" rx="158.829" ry="9.276" transform="translate(1218.347 2112.35)" fill="#6fb353" opacity="0.36"/>
        <g id="Grupo_56" data-name="Grupo 56">
          <path id="Trazado_179" data-name="Trazado 179" d="M1342.234,1911.043c-10.409-3.644-6.245-32.949-31.269-17.19-5.671,3.572-12.555,27-7.8,32.439C1309.808,1933.886,1354.508,1915.34,1342.234,1911.043Z" fill="#263238"/>
          <path id="Trazado_180" data-name="Trazado 180" d="M1312.935,1938.865c-.206.387-.331.6-.5.876l-.475.763c-.32.5-.663.974-1.01,1.445a32.567,32.567,0,0,1-2.249,2.7,26.761,26.761,0,0,1-5.536,4.513,20.864,20.864,0,0,1-6.863,2.72,19.014,19.014,0,0,1-3.718.379c-.623.026-1.239-.042-1.856-.066l-.915-.108-.455-.055c-.178-.025-.432-.074-.642-.115a9.138,9.138,0,0,1-4.126-2.246,15.9,15.9,0,0,1-2.468-2.942,31.409,31.409,0,0,1-3.029-6.1,59.782,59.782,0,0,1-3.146-12.5l3.525-.793a89.487,89.487,0,0,0,4.62,11.081,29.033,29.033,0,0,0,2.97,4.76,9.591,9.591,0,0,0,1.659,1.685,2.841,2.841,0,0,0,1.309.63l1.076.052c.418-.022.839.008,1.251-.046a13.948,13.948,0,0,0,2.438-.393,15.727,15.727,0,0,0,4.552-2.04,20.84,20.84,0,0,0,3.98-3.429,24.649,24.649,0,0,0,1.735-2.071c.269-.361.53-.729.777-1.1l.362-.546.288-.465Z" fill="#e4897b"/>
          <path id="Trazado_181" data-name="Trazado 181" d="M1314.916,1930.349c-7.345.036-13.18,6.818-13.18,6.818l8.981,12.126s7.266-6.834,8.04-10.7C1319.562,1934.562,1319.343,1930.328,1314.916,1930.349Z" fill="#263238"/>
          <path id="Trazado_182" data-name="Trazado 182" d="M1279.118,1929.062l3.216-5.324-7.452.192s-.588,3.511,1.377,5.731Z" fill="#e4897b"/>
          <path id="Trazado_183" data-name="Trazado 183" d="M1282.041,1917.5l-5.506,1.175-1.652,5.253,7.452-.192Z" fill="#e4897b"/>
          <path id="Trazado_184" data-name="Trazado 184" d="M1351.864,2114.06l-7.037.673-3.586-16.4,7.037-.674Z" fill="#e4897b"/>
          <path id="Trazado_185" data-name="Trazado 185" d="M1415.74,2092.825l-5.33,4.74-12.691-10.819,5.33-4.74Z" fill="#e4897b"/>
          <path id="Trazado_186" data-name="Trazado 186" d="M1408.489,2096.661l3.092-7.393a.564.564,0,0,1,.669-.337l6.2,1.6a1.146,1.146,0,0,1,.728,1.545c-1.122,2.559-1.793,3.738-3.153,6.989-.836,2-2.393,6.547-3.548,9.309-1.13,2.7-3.948,1.767-3.714.514,1.047-5.621.4-8.614-.332-10.962A1.861,1.861,0,0,1,1408.489,2096.661Z" fill="#263238"/>
          <path id="Trazado_187" data-name="Trazado 187" d="M1343.942,2112.6h8.462a.7.7,0,0,1,.668.514l1.84,6.7a1.047,1.047,0,0,1-1.032,1.34c-2.957-.051-4.4-.224-8.123-.224-2.289,0-8.206.238-11.368.238-3.092,0-3.739-3.127-2.459-3.41,5.736-1.269,9.043-3.02,10.813-4.69A1.741,1.741,0,0,1,1343.942,2112.6Z" fill="#263238"/>
          <path id="Trazado_188" data-name="Trazado 188" d="M1341.243,2098.338l1.847,8.453h7.188l-1.995-9.127Z" opacity="0.2"/>
          <path id="Trazado_189" data-name="Trazado 189" d="M1403.053,2082.008l-5.332,4.742,6.544,5.574,5.332-4.742Z" opacity="0.2"/>
          <path id="Trazado_190" data-name="Trazado 190" d="M1308.034,1932.328s-2.953,2.064,14.83,40.559l27.908-7.769c-3.631-11.228-5.594-18.229-6.654-43.05a85.416,85.416,0,0,0-12.286,1.737,92.171,92.171,0,0,0-12.673,3.529C1313.855,1929.346,1308.034,1932.328,1308.034,1932.328Z" fill="#263238"/>
          <path id="Trazado_191" data-name="Trazado 191" d="M1326.6,1909.885c.336,4.3,1.618,11.994,5.228,13.92a24.118,24.118,0,0,1-5.8,17.522c-9.689-5.027-6.871-13.993-6.871-13.993,4.245-2.352,3.189-5.693,1.514-8.64Z" fill="#e4897b"/>
          <path id="Trazado_192" data-name="Trazado 192" d="M1328.089,1918.063l-4.863-1.649a7.9,7.9,0,0,0,.721,2.774c.825,1.593,3.533,2.192,5.464,2A15.482,15.482,0,0,1,1328.089,1918.063Z" opacity="0.2"/>
          <path id="Trazado_193" data-name="Trazado 193" d="M1312.486,1905.386c1.88,6.826,2.53,9.754,6.769,12.568,6.377,4.233,14.349.431,14.546-6.818.177-6.525-2.927-16.59-10.275-17.917A9.655,9.655,0,0,0,1312.486,1905.386Z" fill="#e4897b"/>
          <path id="Trazado_194" data-name="Trazado 194" d="M1322.658,1892.106c-.554,4.634-4.011,20.576-10.535,20.462-5.379-4.7-2.723-13.537-1.057-17.13S1322.658,1892.106,1322.658,1892.106Z" fill="#263238"/>
          <path id="Trazado_195" data-name="Trazado 195" d="M1319.917,1895.386c3.28,1.745,9.724,2.505,8.7-.156s-.729-4.868-5.168-4.816S1319.917,1895.386,1319.917,1895.386Z" fill="#263238"/>
          <path id="Trazado_196" data-name="Trazado 196" d="M1312.725,1911.851a5.179,5.179,0,0,0,2.569,3c1.622.81,2.777-.558,2.613-2.27-.148-1.54-1.17-3.817-2.937-3.916A2.324,2.324,0,0,0,1312.725,1911.851Z" fill="#e4897b"/>
          <g id="Grupo_54" data-name="Grupo 54">
            <path id="Trazado_197" data-name="Trazado 197" d="M1322.864,1972.887s-1.611,56.38,2.906,77.664c4.7,22.137,13.868,53.78,13.868,53.78l13.369-.646s-6.47-40.148-8.04-57.258c-2.165-23.59-1.667-79.229-1.667-79.229Z" fill="#457bfb"/>
            <path id="Trazado_198" data-name="Trazado 198" d="M1322.864,1972.887s-1.611,56.38,2.906,77.664c4.7,22.137,13.868,53.78,13.868,53.78l13.369-.646s-6.47-40.148-8.04-57.258c-2.165-23.59-1.667-79.229-1.667-79.229Z" fill="#fafafa" opacity="0.4"/>
            <path id="Trazado_199" data-name="Trazado 199" d="M1343.265,1988.408c-2.08-5.22-3.908-8.1-4.133-2.9-.478,11,1.443,23.579,4.443,29.812C1343.378,2006,1343.3,1996.486,1343.265,1988.408Z" opacity="0.2"/>
          </g>
          <path id="Trazado_200" data-name="Trazado 200" d="M1353.942,2104.331l-15.24.737-1.8-5.572,16.518-1.289Z" fill="#263238"/>
          <g id="Grupo_55" data-name="Grupo 55">
            <path id="Trazado_201" data-name="Trazado 201" d="M1330.234,1970.836s17.117,46.053,28.655,71.482c9.319,20.539,42.341,49.24,42.341,49.24l7.5-6.344s-23.872-32.714-30.315-46.647c-20.622-44.594-15.238-63.482-27.646-73.449Z" fill="#457bfb"/>
            <path id="Trazado_202" data-name="Trazado 202" d="M1330.234,1970.836s17.117,46.053,28.655,71.482c9.319,20.539,42.341,49.24,42.341,49.24l7.5-6.344s-23.872-32.714-30.315-46.647c-20.622-44.594-15.238-63.482-27.646-73.449Z" fill="#fafafa" opacity="0.4"/>
          </g>
          <path id="Trazado_203" data-name="Trazado 203" d="M1409.352,2085.139l-8.39,7.407-4.262-3.086,9.884-8.435Z" fill="#263238"/>
          <path id="Trazado_204" data-name="Trazado 204" d="M1350.734,1963.364l1.954,2.147c.151.167-.023.429-.346.518l-29.268,8.148c-.252.071-.494.005-.554-.149l-.947-2.428c-.066-.168.111-.375.387-.452l28.261-7.867A.524.524,0,0,1,1350.734,1963.364Z" fill="#457bfb"/>
          <path id="Trazado_205" data-name="Trazado 205" d="M1347.818,1967.58l.757-.21c.151-.042.244-.152.207-.244l-1.258-3.147c-.037-.092-.191-.133-.342-.091l-.756.211c-.151.042-.244.151-.207.244l1.258,3.146C1347.514,1967.581,1347.667,1967.622,1347.818,1967.58Z" fill="#263238"/>
          <path id="Trazado_206" data-name="Trazado 206" d="M1325.277,1973.856l.757-.211c.15-.042.243-.152.207-.244l-1.259-3.146c-.037-.093-.19-.134-.341-.092l-.757.211c-.151.042-.244.152-.207.244l1.259,3.147C1324.972,1973.857,1325.126,1973.9,1325.277,1973.856Z" fill="#263238"/>
          <path id="Trazado_207" data-name="Trazado 207" d="M1336.547,1970.718l.757-.211c.151-.042.244-.151.207-.243l-1.258-3.147c-.037-.092-.19-.133-.341-.091l-.757.211c-.151.041-.244.151-.207.243l1.258,3.147C1336.243,1970.719,1336.4,1970.76,1336.547,1970.718Z" fill="#263238"/>
          <path id="Trazado_208" data-name="Trazado 208" d="M1323.381,1905.111c.118.563.512.957.88.88s.571-.6.452-1.16-.513-.957-.881-.879S1323.262,1904.548,1323.381,1905.111Z" fill="#263238"/>
          <path id="Trazado_209" data-name="Trazado 209" d="M1329.744,1903.772c.119.563.513.956.881.879s.57-.6.452-1.16-.513-.956-.881-.879S1329.626,1903.209,1329.744,1903.772Z" fill="#263238"/>
          <path id="Trazado_210" data-name="Trazado 210" d="M1330.04,1902.678l1.27-.675S1330.839,1903.2,1330.04,1902.678Z" fill="#263238"/>
          <path id="Trazado_211" data-name="Trazado 211" d="M1328.266,1905.093a15.388,15.388,0,0,0,2.763,3.171,2.474,2.474,0,0,1-1.927.8Z" fill="#de5652"/>
          <path id="Trazado_212" data-name="Trazado 212" d="M1327.649,1911.671a.169.169,0,0,0-.132-.3,4.566,4.566,0,0,1-4-.978.167.167,0,0,0-.239,0,.169.169,0,0,0,0,.239,4.828,4.828,0,0,0,4.312,1.07A.167.167,0,0,0,1327.649,1911.671Z" fill="#263238"/>
          <path id="Trazado_213" data-name="Trazado 213" d="M1321.155,1903.409a.332.332,0,0,0,.112-.133,2.693,2.693,0,0,1,1.886-1.55.338.338,0,1,0-.093-.669,3.35,3.35,0,0,0-2.4,1.931.338.338,0,0,0,.5.421Z" fill="#263238"/>
          <path id="Trazado_214" data-name="Trazado 214" d="M1332.139,1900.178a.275.275,0,0,0,.049-.041.338.338,0,0,0-.005-.478,3.347,3.347,0,0,0-2.926-.975.338.338,0,0,0,.145.66,2.676,2.676,0,0,1,2.308.8A.337.337,0,0,0,1332.139,1900.178Z" fill="#263238"/>
          <path id="Trazado_215" data-name="Trazado 215" d="M1349.124,1928.505c.631.732,1.418,1.587,2.156,2.374.754.8,1.531,1.584,2.323,2.351,1.58,1.537,3.2,3.038,4.893,4.425a50.385,50.385,0,0,0,10.807,6.992,36.956,36.956,0,0,0,12.39,2.644c2.211.167,4.455.223,6.706.178,2.243-.014,4.545-.131,6.739-.3l.669,3.551a67.263,67.263,0,0,1-14.2,2.061,49.556,49.556,0,0,1-7.341-.275,30.956,30.956,0,0,1-7.479-1.767,43.223,43.223,0,0,1-6.735-3.292,54.936,54.936,0,0,1-6.061-4.173,71.44,71.44,0,0,1-5.505-4.769q-1.3-1.266-2.552-2.591c-.849-.9-1.614-1.76-2.465-2.806Z" fill="#e4897b"/>
          <path id="Trazado_216" data-name="Trazado 216" d="M1394.242,1951.078l7.054-1.1-5.823-5.545s-2.766,2.242-2.762,5.207Z" fill="#e4897b"/>
          <path id="Trazado_217" data-name="Trazado 217" d="M1405.093,1944.349l-4.9-2.764-4.716,2.844,5.824,5.545Z" fill="#e4897b"/>
          <path id="Trazado_218" data-name="Trazado 218" d="M1344.118,1922.068c3.033.071,9.071,8.764,9.071,8.764l-8.689,10.776s-5.063-7.093-4.894-11.034C1339.782,1926.47,1340.657,1921.986,1344.118,1922.068Z" fill="#263238"/>
          <path id="Trazado_219" data-name="Trazado 219" d="M1407.141,2100.534a1.311,1.311,0,0,1-.249-.117.577.577,0,0,1-.308-.493c-.026-.911,2.1-2.37,2.342-2.534a.17.17,0,0,1,.261.168c-.155.937-.538,2.565-1.359,2.947A.887.887,0,0,1,1407.141,2100.534Zm1.639-2.628c-.833.609-1.872,1.529-1.858,2.008a.237.237,0,0,0,.143.212.639.639,0,0,0,.621.073C1408.129,2099.993,1408.529,2099.148,1408.78,2097.906Z" fill="#457bfb"/>
          <path id="Trazado_220" data-name="Trazado 220" d="M1406.091,2098.377a.749.749,0,0,1-.186-.09.588.588,0,0,1-.215-.706.877.877,0,0,1,.484-.573c.933-.45,2.831.333,2.912.367a.169.169,0,0,1,.038.289A4.478,4.478,0,0,1,1406.091,2098.377Zm2.5-.826a3.773,3.773,0,0,0-2.274-.239.549.549,0,0,0-.306.361c-.059.209.011.288.079.334a3.638,3.638,0,0,0,2.554-.437Z" fill="#457bfb"/>
          <path id="Trazado_221" data-name="Trazado 221" d="M1340.188,2114a2.811,2.811,0,0,1-1.651-.4,1.054,1.054,0,0,1-.43-.813.488.488,0,0,1,.213-.46c.767-.52,3.649.789,4.219,1.056a.169.169,0,0,1-.036.318A11.244,11.244,0,0,1,1340.188,2114Zm-1.347-1.46a.6.6,0,0,0-.332.072.154.154,0,0,0-.064.16.716.716,0,0,0,.3.563c.5.376,1.666.425,3.181.145A10.516,10.516,0,0,0,1338.841,2112.541Z" fill="#457bfb"/>
          <path id="Trazado_222" data-name="Trazado 222" d="M1342.467,2113.711a.172.172,0,0,1-.064-.012c-.955-.391-2.881-1.935-2.773-2.734.024-.175.143-.394.578-.446,1.674-.2,2.394,2.856,2.424,2.986a.169.169,0,0,1-.165.206Zm-2.1-2.863c-.037,0-.075,0-.114.006-.177.022-.272.074-.283.157-.063.463,1.268,1.683,2.241,2.217C1341.984,2112.49,1341.375,2110.848,1340.362,2110.848Z" fill="#457bfb"/>
          <path id="Trazado_223" data-name="Trazado 223" d="M1323.676,1904.017l1.27-.674S1324.475,1904.545,1323.676,1904.017Z" fill="#263238"/>
        </g>
        <g id="Grupo_58" data-name="Grupo 58">
          <g id="Grupo_57" data-name="Grupo 57">
            <path id="Trazado_224" data-name="Trazado 224" d="M1365.652,1980.931s-14.558,11.9-9.144,38.057c3.192,15.425,12.823,23.267,21.25,21.556s14.236-12.689,11.158-28.137C1383.7,1986.207,1365.652,1980.931,1365.652,1980.931Z" fill="#6fb353"/>
            <path id="Trazado_225" data-name="Trazado 225" d="M1365.652,1980.931s-14.558,11.9-9.144,38.057c3.192,15.425,12.823,23.267,21.25,21.556s14.236-12.689,11.158-28.137C1383.7,1986.207,1365.652,1980.931,1365.652,1980.931Z" fill="#6fb353" opacity="0.2"/>
          </g>
        </g>
        <path id="Trazado_226" data-name="Trazado 226" d="M1457.416,1930.181s-26.734-5.945-51.8,23.821c-14.78,17.552-15.078,35.641-5.528,43.744s27.35,4.863,42.26-12.578C1467.635,1955.59,1457.416,1930.181,1457.416,1930.181Z" fill="#6fb353"/>
        <path id="Trazado_227" data-name="Trazado 227" d="M1422.316,1812.056s-5.973,1.644-7.829,10.249c-1.1,5.073.762,8.721,3.53,9.328s5.981-1.926,7.113-6.991C1427.05,1816.051,1422.316,1812.056,1422.316,1812.056Z" fill="#6fb353"/>
        <g id="Grupo_60" data-name="Grupo 60">
          <g id="Grupo_59" data-name="Grupo 59">
            <path id="Trazado_228" data-name="Trazado 228" d="M1374.963,2076.857a128.367,128.367,0,0,1-4.779-37.445,147.652,147.652,0,0,1,5.358-36.282,176.331,176.331,0,0,1,5.655-17.058c1.073-2.777,2.219-5.514,3.415-8.219.579-1.363,1.228-2.689,1.839-4.032l.915-1.945.9-1.882c4.772-10.041,9.315-20.136,13.419-30.388a309.74,309.74,0,0,0,10.759-31.235,190.517,190.517,0,0,0,6.348-32.289,116.257,116.257,0,0,0-1.016-32.843,82.12,82.12,0,0,0-12.339-30.77,83.989,83.989,0,0,1,15.981,29.873,121.83,121.83,0,0,1,4.868,34.064,199.764,199.764,0,0,1-2.854,34.387,322.776,322.776,0,0,1-7.527,33.595c-3.051,11.044-6.562,21.933-10.275,32.691l-.7,2.015-.35,1.006-.317.952c-.413,1.272-.867,2.53-1.246,3.808-.8,2.544-1.546,5.095-2.218,7.657a154.739,154.739,0,0,0-3.261,15.421,123.052,123.052,0,0,0-1.091,30.627,100.037,100.037,0,0,0,6.971,28.668Z" fill="#365f18"/>
            <path id="Trazado_229" data-name="Trazado 229" d="M1374.963,2076.857a128.367,128.367,0,0,1-4.779-37.445,147.652,147.652,0,0,1,5.358-36.282,176.331,176.331,0,0,1,5.655-17.058c1.073-2.777,2.219-5.514,3.415-8.219.579-1.363,1.228-2.689,1.839-4.032l.915-1.945.9-1.882c4.772-10.041,9.315-20.136,13.419-30.388a309.74,309.74,0,0,0,10.759-31.235,190.517,190.517,0,0,0,6.348-32.289,116.257,116.257,0,0,0-1.016-32.843,82.12,82.12,0,0,0-12.339-30.77,83.989,83.989,0,0,1,15.981,29.873,121.83,121.83,0,0,1,4.868,34.064,199.764,199.764,0,0,1-2.854,34.387,322.776,322.776,0,0,1-7.527,33.595c-3.051,11.044-6.562,21.933-10.275,32.691l-.7,2.015-.35,1.006-.317.952c-.413,1.272-.867,2.53-1.246,3.808-.8,2.544-1.546,5.095-2.218,7.657a154.739,154.739,0,0,0-3.261,15.421,123.052,123.052,0,0,0-1.091,30.627,100.037,100.037,0,0,0,6.971,28.668Z" fill="#365f18" opacity="0.2"/>
          </g>
        </g>
        <path id="Trazado_230" data-name="Trazado 230" d="M1431.428,2047.572l-.843,9.371-5.453,60.893a4.163,4.163,0,0,1-4.146,3.792h-69.16a4.163,4.163,0,0,1-4.146-3.792l-5.453-60.893-.843-9.371Z" fill="#6fb353"/>
        <rect id="Rectángulo_43" data-name="Rectángulo 43" width="21.949" height="0.819" transform="translate(1428.491 2103.305) rotate(-84.889)" fill="#6fb353"/>
        <rect id="Rectángulo_44" data-name="Rectángulo 44" width="5.185" height="0.819" transform="translate(1431.02 2075.043) rotate(-84.889)" fill="#6fb353"/>
        <g id="Grupo_62" data-name="Grupo 62">
          <g id="Grupo_61" data-name="Grupo 61">
            <path id="Trazado_231" data-name="Trazado 231" d="M1372.816,1854.665s-15.447,20.569.306,53.55c9.289,19.447,24.65,26.712,35.284,21.681s14.76-21.515,5.616-41.03C1398.515,1855.769,1372.816,1854.665,1372.816,1854.665Z" fill="#6fb353"/>
            <path id="Trazado_232" data-name="Trazado 232" d="M1372.816,1854.665s-15.447,20.569.306,53.55c9.289,19.447,24.65,26.712,35.284,21.681s14.76-21.515,5.616-41.03C1398.515,1855.769,1372.816,1854.665,1372.816,1854.665Z" fill="#6fb353" opacity="0.2"/>
          </g>
        </g>
        <path id="Trazado_233" data-name="Trazado 233" d="M1431.428,2047.572l-.843,9.372h-88.358l-.843-9.372Z" opacity="0.2"/>
        <rect id="Rectángulo_45" data-name="Rectángulo 45" width="104.664" height="16.244" rx="2.389" transform="translate(1334.074 2036.013)" fill="#6fb353"/>
        <circle id="Elipse_1" data-name="Elipse 1" cx="32.799" cy="32.799" r="32.799" transform="translate(1410.172 1868.578) rotate(-36.963)" fill="#6fb353"/>
        <path id="Trazado_234" data-name="Trazado 234" d="M1482.415,1883.209a26.864,26.864,0,1,0-48.049,8.772,27.544,27.544,0,1,1,48.049-8.772Z" opacity="0.1"/>
        <g id="Grupo_63" data-name="Grupo 63">
          <path id="Trazado_235" data-name="Trazado 235" d="M1466.216,1879.823l-3.276,6.937a2.1,2.1,0,0,1-1.272,1.12,2.2,2.2,0,0,1-1.723-.085l-6.1-2.881-2.308,4.887a2.116,2.116,0,0,1-1.265,1.137,2.15,2.15,0,0,1-1.683-.08,2.21,2.21,0,0,1-1.178-1.271,2.111,2.111,0,0,1,.074-1.7l2.329-4.934-6.055-2.859a2.151,2.151,0,0,1-1.131-1.248,2.208,2.208,0,0,1,3.022-2.757l14.161,6.685,1.361-2.885-14.112-6.662a2.162,2.162,0,0,1-1.149-1.242,2.12,2.12,0,0,1,.091-1.706l3.264-6.914a2.207,2.207,0,0,1,2.948-1.057l6.008,2.836,2.307-4.887a2.186,2.186,0,0,1,3.019-1.023,2.1,2.1,0,0,1,1.119,1.242,2.136,2.136,0,0,1-.085,1.694l-2.308,4.888,6.151,2.9a2.206,2.206,0,0,1,1.161,1.277,2.107,2.107,0,0,1-.056,1.694,2.3,2.3,0,0,1-3.018,1.082l-14.161-6.685-1.351,2.86,14.114,6.663a2.2,2.2,0,0,1,1.16,1.277A2.107,2.107,0,0,1,1466.216,1879.823Z" fill="#fafafa"/>
        </g>
        <text id="ficios" transform="translate(590.376 2083)" fill="#2a2a2a" font-size="151.924" font-family="ProximaNova-Extrabld, Proxima Nova"><tspan x="0" y="0">ficios</tspan></text>
        <g id="Grupo_65" data-name="Grupo 65">
          <g id="Grupo_64" data-name="Grupo 64">
            <path id="Trazado_236" data-name="Trazado 236" d="M346.479,1850.7a1.623,1.623,0,1,0-2.3,0A1.625,1.625,0,0,0,346.479,1850.7Z" fill="#2a2a2a"/>
            <path id="Trazado_237" data-name="Trazado 237" d="M367.125,1839.231a8.111,8.111,0,1,0-11.471,0A8.106,8.106,0,0,0,367.125,1839.231Zm-9.177-9.177a4.867,4.867,0,1,1,0,6.883A4.865,4.865,0,0,1,357.948,1830.054Z" fill="#2a2a2a"/>
            <path id="Trazado_238" data-name="Trazado 238" d="M319.474,1848.758a1.618,1.618,0,0,0,1.767-.352,10.326,10.326,0,0,1,8.59-2.881l.568.568a57.113,57.113,0,0,0-2.68,7.879,4.592,4.592,0,0,0,.2,2.818,15.366,15.366,0,0,0-4.381,3.089c-4.176,4.176-5.024,14.353-5.058,14.784a1.622,1.622,0,0,0,1.617,1.75c.043,0,.085,0,.128-.005.431-.034,10.608-.882,14.784-5.058a15.34,15.34,0,0,0,3.088-4.38,4.58,4.58,0,0,0,2.82.2,56.914,56.914,0,0,0,7.878-2.679l.568.568a10.329,10.329,0,0,1-2.882,8.589,1.623,1.623,0,0,0,1.147,2.77c6.421,0,15.4-3.824,18.7-10,1.436-2.683,2.414-6.927-.7-12.223,1.322-1.117,2.6-2.285,3.8-3.486a54.317,54.317,0,0,0,12.5-20.609,72.052,72.052,0,0,0,4.034-19.482,1.622,1.622,0,0,0-1.679-1.68,72.126,72.126,0,0,0-19.482,4.034,54.325,54.325,0,0,0-20.61,12.5c-1.2,1.2-2.368,2.473-3.485,3.8-5.3-3.118-9.541-2.14-12.224-.7-6.178,3.307-10,12.283-10,18.7A1.622,1.622,0,0,0,319.474,1848.758Zm13.238,20.3c-2.231,2.23-7.463,3.407-10.77,3.887.48-3.307,1.657-8.54,3.887-10.77a11.707,11.707,0,0,1,4.153-2.73l5.46,5.459A11.7,11.7,0,0,1,332.712,1869.056Zm7.4-5.034a1.521,1.521,0,0,1-1.418-.46l-7.367-7.367a1.523,1.523,0,0,1-.461-1.417,52.607,52.607,0,0,1,2.026-6.2L346.3,1862A52.441,52.441,0,0,1,340.108,1864.022Zm23.361.858c-2.126,3.971-7.477,6.9-12.354,7.906a13.807,13.807,0,0,0,1.33-8.909,1.688,1.688,0,0,0-.494-.82,65.562,65.562,0,0,0,11.111-6.816C364.75,1859.326,364.889,1862.227,363.469,1864.88Zm16.209-38.334-11.339-11.339a72.973,72.973,0,0,1,14.235-2.9A72.973,72.973,0,0,1,379.678,1826.546Zm-33.2,1.212a50.583,50.583,0,0,1,18.441-11.384l13.593,13.593a50.58,50.58,0,0,1-11.385,18.441,58.737,58.737,0,0,1-4.678,4.2,62.35,62.35,0,0,1-12.932,8.017l-15.253-15.252a62.3,62.3,0,0,1,8.017-12.933A58.939,58.939,0,0,1,346.477,1827.758Zm-16.472,3.658c2.654-1.42,5.554-1.281,8.638.407a65.62,65.62,0,0,0-6.815,11.111,1.724,1.724,0,0,0-.859-.505,13.874,13.874,0,0,0-8.87,1.341C323.106,1838.893,326.033,1833.541,330.005,1831.416Z" fill="#2a2a2a"/>
            <path id="Trazado_239" data-name="Trazado 239" d="M337.3,1882.821l4.588-4.59a1.622,1.622,0,0,0-2.3-2.294l-4.588,4.59a1.622,1.622,0,0,0,2.3,2.294Z" fill="#2a2a2a"/>
            <path id="Trazado_240" data-name="Trazado 240" d="M314.358,1859.878l4.589-4.588a1.622,1.622,0,1,0-2.293-2.3l-4.59,4.588a1.622,1.622,0,0,0,2.294,2.3Z" fill="#2a2a2a"/>
            <path id="Trazado_241" data-name="Trazado 241" d="M328.125,1878.233l-10.99,10.987a1.622,1.622,0,1,0,2.294,2.294l10.99-10.987a1.622,1.622,0,0,0-2.294-2.294Z" fill="#2a2a2a"/>
            <path id="Trazado_242" data-name="Trazado 242" d="M315.147,1878.233l-10.99,10.987a1.622,1.622,0,1,0,2.294,2.294l10.99-10.987a1.622,1.622,0,0,0-2.294-2.294Z" fill="#2a2a2a"/>
            <path id="Trazado_243" data-name="Trazado 243" d="M305.665,1877.75l10.987-10.99a1.622,1.622,0,0,0-2.294-2.294l-10.988,10.989a1.623,1.623,0,0,0,2.3,2.3Z" fill="#2a2a2a"/>
            <path id="Trazado_244" data-name="Trazado 244" d="M351.067,1846.113l2.294-2.294a1.623,1.623,0,1,0-2.295-2.295l-2.294,2.294a1.623,1.623,0,0,0,2.295,2.3Z" fill="#2a2a2a"/>
          </g>
        </g>
        <path id="Trazado_245" data-name="Trazado 245" d="M1664.873,2158.35s41.574-57.477,19.992-68.111c0,0-3.856-6.1-19.377,15.709,0,0-9.59,3.154-10.137-7.969s15.2-28.046,5.16-37.691-15.226,7.709-22.3,11.006-3.725-41.051-13.539-45.809-12.486,12.738-17.98,14.78-21.726-49.634-47.984-40.029,3.738,28.951,16.337,40.925-13.409,5.291-16.125,20.6,43.7,2.979,39.492,17.867-17.505,6.4-19.984,17.523c-4.007,17.978,41.977.7,40.94,13.075-.827,9.871-17.5,3.378-19.279,11.009S1627.179,2156.214,1664.873,2158.35Z" fill="#365f18"/>
        <path id="Trazado_246" data-name="Trazado 246" d="M1686.327,2091.1c-.191-.131-.388-.258-.591-.38-5.3,14.559-12.4,28.422-30.566,38.429a237.672,237.672,0,0,0-14.06-25.781c4.56-24.165,11.6-35,19.261-43.205-.17-.161-.339-.313-.508-.458-7.609,8.133-14.672,18.97-19.29,42.8q-8.679-13.841-20.04-28.647c-1.479-7.508-2.621-37,2.456-48.988a6.587,6.587,0,0,0-.673-.131c-4.964,13.415-4.132,37.333-2.612,48.042-16.6-22.424-52.038-59.38-64.874-70.849-.216.114-.425.229-.629.344,10.255,9.3,39.122,38.554,56,59.667-11.95-2.221-34.6-3.53-51.264-.289-.047.237-.08.48-.1.71,15.559-3.378,42.367-1.747,52.029.391,7.326,8.99,14.837,18.832,21.873,29.127-16.153-2.014-41.878,3.552-54.531,6.687-.02.245-.029.481-.027.709,12.7-3.155,38.993-8.873,55.075-6.641,9.975,14.673,18.951,30.237,25.033,45.534-19.864,2.829-42.461-9.3-57.337-18.729a4.173,4.173,0,0,0-.385.562c15.066,9.546,37.844,21.767,57.981,18.816a123.321,123.321,0,0,1,5.972,19.51c.119.007.236.017.355.024l.267-.374a137.375,137.375,0,0,0-9.683-28.21C1670.519,2122.2,1681.028,2107.122,1686.327,2091.1Z" fill="#fff" opacity="0.1" style="mix-blend-mode: color-dodge;isolation: isolate"/>
        <path id="Trazado_247" data-name="Trazado 247" d="M1661.339,2152.74s-23.7-39.045-79.969-47.039l7.224,15.151-13.351-15.124s-32.873-3.271-56.389.574c0,0,42.822,33.7,54.391,38.1l16.855-1.809-10.853,10.35s23.421,19.3,50.8,21.273S1661.339,2152.74,1661.339,2152.74Z" fill="#6fb353"/>
      </g>
    </g>
  </g>
</svg>
