<svg xmlns="http://www.w3.org/2000/svg" xmlns:xlink="http://www.w3.org/1999/xlink" width="652.921" height="239.834" viewBox="0 0 652.921 239.834">
  <defs>
    <linearGradient id="linear-gradient" x1="6.658" y1="-0.032" x2="7.042" y2="0.873" gradientUnits="objectBoundingBox">
      <stop offset="0" stop-color="#53cd9f"/>
      <stop offset="1" stop-color="#0d7a5c"/>
    </linearGradient>
    <linearGradient id="linear-gradient-2" x1="31.613" y1="1.27" x2="30.21" y2="-0.122" gradientUnits="objectBoundingBox">
      <stop offset="0" stop-color="#00503e"/>
      <stop offset="1" stop-color="#023222"/>
    </linearGradient>
    <linearGradient id="linear-gradient-3" x1="31.612" y1="0.151" x2="30.64" y2="0.75" gradientUnits="objectBoundingBox">
      <stop offset="0" stop-color="#c7a44f"/>
      <stop offset="1" stop-color="#609a3f"/>
    </linearGradient>
    <linearGradient id="linear-gradient-4" x1="34.768" y1="-0.905" x2="33.694" y2="0.713" xlink:href="#linear-gradient-3"/>
    <linearGradient id="linear-gradient-5" x1="34.562" y1="2.487" x2="33.013" y2="-2.545" xlink:href="#linear-gradient-2"/>
    <linearGradient id="linear-gradient-6" x1="17.472" y1="0.5" x2="18.472" y2="0.5" xlink:href="#linear-gradient-2"/>
    <linearGradient id="linear-gradient-7" x1="32.586" y1="-0.163" x2="31.603" y2="1.214" gradientUnits="objectBoundingBox">
      <stop offset="0" stop-color="#c9cd55"/>
      <stop offset="0.507" stop-color="#659c52"/>
      <stop offset="1" stop-color="#287f50"/>
    </linearGradient>
    <linearGradient id="linear-gradient-8" x1="79.804" y1="-4.247" x2="65.528" y2="2.157" xlink:href="#linear-gradient"/>
    <linearGradient id="linear-gradient-9" x1="64.306" y1="-0.51" x2="54.676" y2="3.93" xlink:href="#linear-gradient"/>
    <linearGradient id="linear-gradient-10" x1="124.543" y1="5.199" x2="124.589" y2="0.853" gradientUnits="objectBoundingBox">
      <stop offset="0" stop-color="#fb9a2b"/>
      <stop offset="1" stop-color="#e65925"/>
    </linearGradient>
    <linearGradient id="linear-gradient-11" x1="127.579" y1="-4.617" x2="119.47" y2="3.468" xlink:href="#linear-gradient-3"/>
    <linearGradient id="linear-gradient-12" x1="120.549" y1="5.172" x2="120.595" y2="0.825" xlink:href="#linear-gradient-10"/>
    <linearGradient id="linear-gradient-13" x1="124.725" y1="-5.755" x2="116.615" y2="2.33" xlink:href="#linear-gradient-3"/>
    <linearGradient id="linear-gradient-14" x1="116.534" y1="5.144" x2="116.58" y2="0.797" xlink:href="#linear-gradient-10"/>
    <linearGradient id="linear-gradient-15" x1="133.288" y1="-2.344" x2="125.179" y2="5.741" xlink:href="#linear-gradient-3"/>
    <linearGradient id="linear-gradient-16" x1="128.545" y1="5.227" x2="128.591" y2="0.881" xlink:href="#linear-gradient-10"/>
    <linearGradient id="linear-gradient-17" x1="130.432" y1="-3.48" x2="122.323" y2="4.605" xlink:href="#linear-gradient-3"/>
    <linearGradient id="linear-gradient-18" x1="121.859" y1="-6.892" x2="113.75" y2="1.193" xlink:href="#linear-gradient-3"/>
    <linearGradient id="linear-gradient-19" x1="105.172" y1="1.957" x2="106.398" y2="-1.626" xlink:href="#linear-gradient-10"/>
    <linearGradient id="linear-gradient-20" x1="68.082" y1="1.547" x2="68.896" y2="-2.036" xlink:href="#linear-gradient-10"/>
    <linearGradient id="linear-gradient-21" x1="73.987" y1="2.725" x2="74.802" y2="-0.857" xlink:href="#linear-gradient-10"/>
    <linearGradient id="linear-gradient-22" x1="108.059" y1="2.343" x2="109.283" y2="-1.239" xlink:href="#linear-gradient-10"/>
    <linearGradient id="linear-gradient-23" x1="26.355" y1="0.5" x2="27.355" y2="0.5" xlink:href="#linear-gradient-10"/>
  </defs>
  <g id="Grupo_387" data-name="Grupo 387" transform="translate(-304.449 -1567.032)">
    <g id="Grupo_70" data-name="Grupo 70">
      <rect id="Rectángulo_42" data-name="Rectángulo 42" width="652.921" height="239.834" transform="translate(304.449 1567.032)" fill="#dcf9f7"/>
      <g id="Grupo_69" data-name="Grupo 69">
        <path id="Trazado_147" data-name="Trazado 147" d="M780.277,1795.519s79.316-5.836,88.853-44.618-11.6-44.062-18.818-65.785,25.52-34.533,3.608-64.088-54.226-30.072-67.843-16.152-29.316-8.508-54.593,4.124-31.464,38.156-23.472,58.094-24.778,39-28.887,61.6S712.107,1805.484,780.277,1795.519Z" fill="url(#linear-gradient)"/>
        <path id="Trazado_148" data-name="Trazado 148" d="M860.642,1806.117H813.114l-3.943-10.614a15.02,15.02,0,0,0-7.909-8.437,37.783,37.783,0,0,1-12.565-9.425,87.294,87.294,0,0,1-13.377-20.333l29.455-.145s-2.652-16.477,11.989-38.358a12.4,12.4,0,0,0,2.035-7.96l-1.388-15.961s-9.949-11.117-3.845-24.91c0,0,5.837-8.081,8.153-5.123,0,0,17.63,41.983,19.235,48.225s3.746,10.165,1.606,29.784a118.885,118.885,0,0,0-.764,13.086,46.445,46.445,0,0,0,4.464,19.768Z" fill="#ffc0bb"/>
        <path id="Trazado_149" data-name="Trazado 149" d="M816.313,1778.884c4.412-4.9,10.54-4.123,16.985-6.359s8.512-18.342,8.512-18.342h0c-.01.606-.015,1.2-.014,1.764a46.445,46.445,0,0,0,4.464,19.768l14.382,30.4H813.114l-3.943-10.614a15.02,15.02,0,0,0-7.909-8.437,37.017,37.017,0,0,1-10.555-7.319C803.8,1785.251,811.9,1783.781,816.313,1778.884Z" fill="#ffc0bb" opacity="0.2" style="mix-blend-mode: multiply;isolation: isolate"/>
        <path id="Trazado_150" data-name="Trazado 150" d="M712.309,1669.064a1.639,1.639,0,0,1,1.6-1.272,1.669,1.669,0,0,1,.414.052,2.414,2.414,0,0,1,2.186-1.392,2.469,2.469,0,0,1,.719.108,2.975,2.975,0,0,1,5.344.521,2.041,2.041,0,0,1,3.034,1.784c0,.067,0,.134-.009.2Z" fill="#edfdfc"/>
        <path id="Trazado_151" data-name="Trazado 151" d="M731.484,1620.979a4.284,4.284,0,0,1,4.172-3.32,4.374,4.374,0,0,1,1.081.139,6.311,6.311,0,0,1,7.583-3.35,7.769,7.769,0,0,1,13.954,1.358,5.331,5.331,0,0,1,7.92,4.658c0,.174-.009.346-.026.515Z" fill="#edfdfc"/>
        <path id="Trazado_152" data-name="Trazado 152" d="M825.579,1653.661a3.592,3.592,0,0,1,4.4-2.664,5.28,5.28,0,0,1,6.346-2.8A6.5,6.5,0,0,1,848,1649.329a4.463,4.463,0,0,1,6.629,3.9,4.125,4.125,0,0,1-.022.433Z" fill="#edfdfc"/>
        <g id="Grupo_55" data-name="Grupo 55">
          <path id="Trazado_153" data-name="Trazado 153" d="M837.329,1615.923c-10.926,17.24-37.857,32.6-37.857,32.6s21.408-1.738,32.033-15.576l-3.852-3.189s3.061.3,5.626.592A28.969,28.969,0,0,0,837.329,1615.923Z" fill="url(#linear-gradient-2)"/>
          <path id="Trazado_154" data-name="Trazado 154" d="M808.66,1623.053c1.661.755,4.119,1.9,4.119,1.9l-2.369-3.4a27.608,27.608,0,0,1,8.8-4.512c1.22,1.774,2.653,3.759,2.653,3.759l.284-4.53a42.006,42.006,0,0,1,15.179-.347c-10.926,17.24-37.857,32.6-37.857,32.6C799.594,1635.86,803.451,1627.95,808.66,1623.053Z" fill="url(#linear-gradient-3)"/>
        </g>
        <g id="Grupo_56" data-name="Grupo 56">
          <path id="Trazado_155" data-name="Trazado 155" d="M841.342,1640.249a25.388,25.388,0,0,0-9.644-3.322c-.954,1.09-2.126,2.371-2.126,2.371l-.065-2.567c-12.179-.583-22.448,7.088-22.448,7.088,6.97,4.239,12.968,5.43,17.91,5.078.311-.9.754-2.234.754-2.234l.827,2.065a22.363,22.363,0,0,0,6.295-1.869c-.438-1.071-.9-2.294-.9-2.294l2.6,1.423A23.094,23.094,0,0,0,841.342,1640.249Z" fill="url(#linear-gradient-4)"/>
          <path id="Trazado_156" data-name="Trazado 156" d="M824.969,1648.9c.311-.9.754-2.234.754-2.234l.827,2.065a22.363,22.363,0,0,0,6.295-1.869c-.438-1.071-.9-2.294-.9-2.294l2.6,1.423a23.094,23.094,0,0,0,6.8-5.739c-14.171-1.621-34.283,3.57-34.283,3.57C814.029,1648.058,820.027,1649.249,824.969,1648.9Z" fill="url(#linear-gradient-5)"/>
        </g>
        <g id="Grupo_57" data-name="Grupo 57">
          <path id="Trazado_157" data-name="Trazado 157" d="M748.746,1636.858s-10.068-6.738-12.366-2.3,13.078,20.147,13.078,20.147Z" fill="#eaa0a0"/>
          <path id="Trazado_158" data-name="Trazado 158" d="M748.746,1666.216s-10.068-6.738-12.366-2.3,13.078,20.148,13.078,20.148Z" fill="#eaa0a0"/>
          <path id="Trazado_159" data-name="Trazado 159" d="M748.746,1686.22s-10.068-6.741-12.366-2.3,13.078,20.146,13.078,20.146Z" fill="#eaa0a0"/>
        </g>
        <path id="Trazado_160" data-name="Trazado 160" d="M755.7,1629.309h55.267a7.451,7.451,0,0,1,7.452,7.451v112.952a7.454,7.454,0,0,1-7.452,7.451H755.7a7.453,7.453,0,0,1-7.452-7.451V1636.76A7.453,7.453,0,0,1,755.7,1629.309Z" fill="url(#linear-gradient-6)"/>
        <path id="Trazado_161" data-name="Trazado 161" d="M813.382,1724.278s10,24.471,9.027,29.1-7.036,10.814-21.919,8.752a228.761,228.761,0,0,1-25.17-4.82s-.622-33.025,0-34.7,27.382-13.562,28.434-13.562S813.382,1724.278,813.382,1724.278Z" fill="#ffc0bb" opacity="0.2" style="mix-blend-mode: multiply;isolation: isolate"/>
        <rect id="Rectángulo_43" data-name="Rectángulo 43" width="62.946" height="107.542" transform="translate(814.805 1747.007) rotate(180)" fill="#edfdfc"/>
        <g id="Grupo_59" data-name="Grupo 59">
          <path id="Rectángulo_44" data-name="Rectángulo 44" d="M3.908,0H34.873a3.91,3.91,0,0,1,3.91,3.91V44.918a3.908,3.908,0,0,1-3.908,3.908H3.908A3.908,3.908,0,0,1,0,44.918V3.908A3.908,3.908,0,0,1,3.908,0Z" transform="translate(802.723 1712.823) rotate(180)" fill="url(#linear-gradient-7)"/>
          <g id="Grupo_58" data-name="Grupo 58">
            <path id="Trazado_162" data-name="Trazado 162" d="M769.849,1683.77l3.072,14.748a1.363,1.363,0,0,0,1.322,1.1H792.42a1.363,1.363,0,0,0,1.322-1.1l3.073-14.748Zm20.8,13.674,1.034-10.451a.744.744,0,1,1,1.487,0l-1.031,10.451a.745.745,0,1,1-1.49,0Zm-3.743,0,.413-10.451a.745.745,0,1,1,1.49,0l-.414,10.451a.745.745,0,0,1-.744.745h0A.746.746,0,0,1,786.906,1697.444Zm-4.319-10.451a.745.745,0,1,1,1.489,0v10.451a.745.745,0,1,1-1.489,0Zm-4.731,0a.744.744,0,1,1,1.488,0l.413,10.451a.744.744,0,1,1-1.488,0Zm-4.364,0a.745.745,0,1,1,1.489,0l1.032,10.451a.744.744,0,1,1-1.488,0Z" fill="#edfdfc"/>
            <path id="Trazado_163" data-name="Trazado 163" d="M769.657,1684.962h27.349a1.192,1.192,0,0,0,1.192-1.192h0a1.192,1.192,0,0,0-1.192-1.191H769.657a1.191,1.191,0,0,0-1.191,1.191h0A1.191,1.191,0,0,0,769.657,1684.962Z" fill="#edfdfc"/>
            <path id="Trazado_164" data-name="Trazado 164" d="M791.263,1682.669v-1.027a3.1,3.1,0,0,0-3.1-3.106H778.5a3.105,3.105,0,0,0-3.1,3.106v1.027a.667.667,0,0,1-.667.667h0a.667.667,0,0,1-.667-.667v-1.027a4.437,4.437,0,0,1,4.437-4.439h9.657a4.437,4.437,0,0,1,4.437,4.439v1.027a.667.667,0,0,1-.667.667h0A.666.666,0,0,1,791.263,1682.669Z" fill="#edfdfc"/>
          </g>
        </g>
        <path id="Rectángulo_45" data-name="Rectángulo 45" d="M.541,0H26.394a.541.541,0,0,1,.541.541V.8a.542.542,0,0,1-.542.542H.541A.541.541,0,0,1,0,.806V.541A.541.541,0,0,1,.541,0Z" transform="translate(796.748 1636.085) rotate(-180)" fill="#b7d972"/>
        <path id="Trazado_165" data-name="Trazado 165" d="M819.67,1704.515a4.7,4.7,0,0,1-1.239,2.107l-1.02-11.738s-7.318-8.18-5.55-19.209a16.485,16.485,0,0,1,5.355-9.776c1.641-1.442,3.441-2.4,4.5-1.048,0,0,8.291,19.742,14.019,34.163Z" fill="#ffc0bb"/>
        <g id="Grupo_61" data-name="Grupo 61">
          <path id="Trazado_166" data-name="Trazado 166" d="M780.277,1752.189a3.091,3.091,0,1,0,3.09-3.092A3.09,3.09,0,0,0,780.277,1752.189Z" fill="#daeef7" opacity="0.3"/>
          <g id="Grupo_60" data-name="Grupo 60">
            <path id="Trazado_167" data-name="Trazado 167" d="M782.081,1753.109v-1.842a.365.365,0,0,1,.365-.366h1.843a.366.366,0,0,1,.367.366v1.842a.367.367,0,0,1-.367.367h-1.843A.366.366,0,0,1,782.081,1753.109Zm.365-2.11a.266.266,0,0,0-.266.268v1.842a.266.266,0,0,0,.266.267h1.843a.267.267,0,0,0,.267-.267v-1.842a.267.267,0,0,0-.267-.268Z" fill="#daeef7"/>
          </g>
        </g>
        <rect id="Rectángulo_46" data-name="Rectángulo 46" width="62.946" height="6.361" transform="translate(814.805 1747.007) rotate(180)" fill="#b7d972"/>
        <rect id="Rectángulo_47" data-name="Rectángulo 47" width="62.946" height="5.708" transform="translate(814.805 1645.173) rotate(180)" fill="#c0efff"/>
        <path id="Trazado_168" data-name="Trazado 168" d="M820.227,1676.446c-2.29-1.054-3.486-7.014-3.914-9.693,1.839-1.85,4.145-3.516,5.406-1.9,0,0,1.825,4.347,4.355,10.451C824.344,1676.267,821.94,1677.235,820.227,1676.446Z" fill="#eaa0a0"/>
        <path id="Trazado_169" data-name="Trazado 169" d="M846.948,1778.071c-5.029,3.09-21.22,12.33-37.962,14.3a1.468,1.468,0,0,0-1.38,1.791l2.925,7.835a1.3,1.3,0,0,0,1.43.739c4.934-.6,25.292-3.662,39.615-14.742a1.284,1.284,0,0,0,.511-1.437l-2.985-8A1.458,1.458,0,0,0,846.948,1778.071Z" fill="#473b1e"/>
        <path id="Trazado_170" data-name="Trazado 170" d="M848.417,1785.564l.056-.022a.57.57,0,0,0,.334-.731l-.9-2.41a.567.567,0,0,0-.73-.334l-.056.022a.566.566,0,0,0-.333.73l.9,2.41A.569.569,0,0,0,848.417,1785.564Z" fill="#212121"/>
        <path id="Trazado_171" data-name="Trazado 171" d="M845.406,1787.42l.055-.022a.567.567,0,0,0,.333-.73l-.9-2.411a.568.568,0,0,0-.729-.334l-.056.02a.567.567,0,0,0-.333.73l.9,2.412A.569.569,0,0,0,845.406,1787.42Z" fill="#212121"/>
        <path id="Trazado_172" data-name="Trazado 172" d="M842.39,1789.262l.055-.021a.568.568,0,0,0,.334-.73l-.9-2.411a.567.567,0,0,0-.73-.333l-.055.021a.566.566,0,0,0-.334.729l.9,2.412A.567.567,0,0,0,842.39,1789.262Z" fill="#212121"/>
        <path id="Trazado_173" data-name="Trazado 173" d="M839.286,1790.762l.055-.021a.567.567,0,0,0,.333-.73l-.9-2.412a.568.568,0,0,0-.73-.334l-.055.021a.568.568,0,0,0-.334.731l.9,2.411A.569.569,0,0,0,839.286,1790.762Z" fill="#212121"/>
        <path id="Trazado_174" data-name="Trazado 174" d="M836.233,1792.5l.055-.02a.568.568,0,0,0,.333-.73l-.9-2.41a.567.567,0,0,0-.73-.335l-.055.02a.569.569,0,0,0-.333.732l.9,2.411A.566.566,0,0,0,836.233,1792.5Z" fill="#212121"/>
        <path id="Trazado_175" data-name="Trazado 175" d="M833.044,1793.886l.056-.022a.566.566,0,0,0,.332-.729l-.9-2.411a.567.567,0,0,0-.731-.334l-.055.021a.568.568,0,0,0-.333.731l.9,2.41A.568.568,0,0,0,833.044,1793.886Z" fill="#212121"/>
        <path id="Trazado_176" data-name="Trazado 176" d="M829.792,1795.1l.056-.021a.567.567,0,0,0,.333-.729l-.9-2.411a.567.567,0,0,0-.729-.336l-.056.022a.566.566,0,0,0-.333.729l.9,2.413A.567.567,0,0,0,829.792,1795.1Z" fill="#212121"/>
        <path id="Trazado_177" data-name="Trazado 177" d="M826.478,1796.145l.056-.021a.568.568,0,0,0,.334-.729l-.9-2.412a.569.569,0,0,0-.73-.334l-.055.021a.566.566,0,0,0-.333.729l.9,2.414A.566.566,0,0,0,826.478,1796.145Z" fill="#212121"/>
        <path id="Trazado_178" data-name="Trazado 178" d="M823.03,1796.831l.056-.021a.567.567,0,0,0,.332-.731l-.9-2.41a.57.57,0,0,0-.731-.336l-.056.021a.571.571,0,0,0-.333.731l.9,2.412A.569.569,0,0,0,823.03,1796.831Z" fill="#212121"/>
        <path id="Trazado_179" data-name="Trazado 179" d="M819.673,1797.759l.055-.022a.564.564,0,0,0,.333-.729l-.9-2.411a.568.568,0,0,0-.731-.334l-.055.021a.568.568,0,0,0-.333.729l.9,2.412A.57.57,0,0,0,819.673,1797.759Z" fill="#212121"/>
        <path id="Trazado_180" data-name="Trazado 180" d="M816.186,1798.343l.056-.02a.568.568,0,0,0,.333-.73l-.9-2.412a.566.566,0,0,0-.729-.334l-.056.021a.567.567,0,0,0-.333.73l.9,2.412A.568.568,0,0,0,816.186,1798.343Z" fill="#212121"/>
        <path id="Trazado_181" data-name="Trazado 181" d="M812.7,1798.915l.056-.02a.569.569,0,0,0,.333-.731l-.9-2.411a.57.57,0,0,0-.73-.335l-.056.022a.567.567,0,0,0-.333.729l.9,2.414A.566.566,0,0,0,812.7,1798.915Z" fill="#212121"/>
        <path id="Trazado_182" data-name="Trazado 182" d="M837.01,1796.211l-.012-.036a.7.7,0,0,0,.157-.039l3.962-1.479a.791.791,0,0,0,.424-1.031l-3.573-9.57a.79.79,0,0,0-1-.5l-3.962,1.478a.74.74,0,0,0-.452.521q-.466.2-.941.4a1.712,1.712,0,0,1,1.044-1.86l3.962-1.48a1.755,1.755,0,0,1,2.21,1.115l3.573,9.568a1.757,1.757,0,0,1-.94,2.29l-3.962,1.478a1.668,1.668,0,0,1-1.71-.369C836.2,1796.543,836.6,1796.378,837.01,1796.211Z" fill="#edfdfc"/>
        <path id="Trazado_183" data-name="Trazado 183" d="M837.879,1788.618l1.724-.642a.646.646,0,0,1,.451,1.207l-1.723.643Z" fill="#b7d972"/>
        <g id="Grupo_62" data-name="Grupo 62">
          <path id="Trazado_184" data-name="Trazado 184" d="M762.505,1710.294s8.5.713,8.8,2.971-.357,6.244-8.384,7.016h-8.312s2.487-6.9,2.368-7.134S762.505,1710.294,762.505,1710.294Z" fill="#efadab"/>
          <path id="Trazado_185" data-name="Trazado 185" d="M776.146,1743.995a2.306,2.306,0,0,1,.9,3.194c-3.913,6.747-19.468,33.561-20.87,35.742-1.606,2.5-5.531,8.383-18.55,11.416s-18.37,11.77-18.37,11.77h-40.13s9.453-14.981,17.3-53.864c0,0,6.063-32.281,17.478-31.21,0,0,6.956-7.312,13.733-5.886,0,0,12.842-7.67,20.154-7.67l17.565-20.758a5.085,5.085,0,0,1,6.94-.822,3.325,3.325,0,0,1,1.357,2.139c.535,3.389-3.924,11.951-11.058,22.295s-24.792,43.162-17.122,57.608a77.517,77.517,0,0,0,14.625-15.338C765.773,1744.7,772.449,1742.032,776.146,1743.995Z" fill="#ffc0bb"/>
          <path id="Trazado_186" data-name="Trazado 186" d="M747.727,1707.495a73.307,73.307,0,0,0-6.579,6.434,75.932,75.932,0,0,0-8.369,11,34.99,34.99,0,0,0-5.137,12.783l.053.012a40.5,40.5,0,0,1,5.51-12.528,92.8,92.8,0,0,1,8.261-10.988c1.868-2.156,4.237-4.7,6.3-6.673Z" fill="#eaa0a0"/>
          <path id="Trazado_187" data-name="Trazado 187" d="M727.752,1715.1a19.847,19.847,0,0,0-5.082,3.853,24.6,24.6,0,0,0-3.851,5.139,25.11,25.11,0,0,0-2.411,5.949,24.209,24.209,0,0,0-.806,6.325l.053.005a31.164,31.164,0,0,1,1.156-6.21,28.276,28.276,0,0,1,2.474-5.808,27.439,27.439,0,0,1,3.7-5.115,23.848,23.848,0,0,1,4.8-4.092Z" fill="#eaa0a0"/>
          <path id="Trazado_188" data-name="Trazado 188" d="M714.052,1720.893a17.668,17.668,0,0,0-4.2,5.03,22.674,22.674,0,0,0-2.4,6.115,18.989,18.989,0,0,0-.559,4.327l.052.009a32.251,32.251,0,0,1,.911-4.221,29.616,29.616,0,0,1,2.436-5.989,23.907,23.907,0,0,1,3.779-5.231Z" fill="#eaa0a0"/>
          <path id="Trazado_189" data-name="Trazado 189" d="M768.046,1752.3c-.356-1.806,1.748-4.669,3.658-6.829a4.437,4.437,0,0,1,4.73-1.289,2.31,2.31,0,0,1,.611,3.01c-1.051,1.813-2.943,5.076-5.176,8.917C770.2,1755.257,768.376,1753.968,768.046,1752.3Z" fill="#eaa0a0"/>
          <path id="Trazado_190" data-name="Trazado 190" d="M766.36,1694.876c-1.015-.2-5.618-1.735-5.336-2.573h0l4.54-5.367a5.165,5.165,0,0,1,3.461-1.806h0a.1.1,0,0,1,.022,0c.036,0,.12-.01.236-.01a2.3,2.3,0,0,1,2.438,1.824c.325,1.627-2.369,5.584-3.557,7.229A1.788,1.788,0,0,1,766.36,1694.876Z" fill="#eaa0a0"/>
          <path id="Trazado_191" data-name="Trazado 191" d="M719.255,1806.117h-40.13s6.2-9.823,12.722-34.2c2.863,17.951,18.661,16.915,24.93,17.911,7.218,1.148,35.239-4.694,39.164-6.536-1.746,2.667-5.885,8.16-18.316,11.057C724.6,1797.378,719.255,1806.117,719.255,1806.117Z" fill="#ffc0bb" opacity="0.2" style="mix-blend-mode: multiply;isolation: isolate"/>
          <path id="Trazado_192" data-name="Trazado 192" d="M760.473,1713.6c-7.869,12.64-21.985,41.681-15,54.352l-4.636,4.576s-11.713-12.975,6.926-41.59A190.985,190.985,0,0,1,760.473,1713.6Z" fill="#ffc0bb" opacity="0.2" style="mix-blend-mode: multiply;isolation: isolate"/>
        </g>
        <path id="Trazado_193" data-name="Trazado 193" d="M869.1,1676.815c1.632-8.263-10.69-11.038-12.673-2.855a12.674,12.674,0,0,0-.33,2.488c-.384,9.836,5.566,20.542,11.9,18.741s2.686-8.521.767-12.552C867.865,1680.757,868.677,1678.944,869.1,1676.815Z" fill="url(#linear-gradient-8)"/>
        <path id="Trazado_194" data-name="Trazado 194" d="M689.854,1658.8a7.094,7.094,0,0,1,8.921,4.234,33.559,33.559,0,0,1,2.375,10.067c.2,6.149-2.247,19.348-11.6,22.609s-14.934-5.339-8.707-15.287C683.5,1676.171,682.175,1661.478,689.854,1658.8Z" fill="url(#linear-gradient-9)"/>
        <path id="Trazado_195" data-name="Trazado 195" d="M736.144,1657.5a3.391,3.391,0,0,0-3.3-2.63,3.441,3.441,0,0,0-.856.109,4.995,4.995,0,0,0-6.006-2.652,6.152,6.152,0,0,0-11.051,1.074,4.221,4.221,0,0,0-6.272,3.689c0,.138.007.275.02.41Z" fill="#edfdfc"/>
        <path id="Trazado_196" data-name="Trazado 196" d="M722.586,1700.039s.413,4.076,3.631,4.358c-3.218.284-3.631,4.36-3.631,4.36s-.414-4.076-3.63-4.36C722.172,1704.115,722.586,1700.039,722.586,1700.039Z" fill="#edfdfc"/>
        <path id="Trazado_197" data-name="Trazado 197" d="M840.1,1669.912s.413,4.075,3.63,4.359c-3.217.281-3.63,4.357-3.63,4.357s-.414-4.076-3.63-4.357C839.69,1673.987,840.1,1669.912,840.1,1669.912Z" fill="#edfdfc"/>
        <path id="Trazado_198" data-name="Trazado 198" d="M714.075,1688.761s.274,2.7,2.4,2.884c-2.128.186-2.4,2.883-2.4,2.883s-.273-2.7-2.4-2.883C713.8,1691.458,714.075,1688.761,714.075,1688.761Z" fill="#edfdfc"/>
        <path id="Trazado_199" data-name="Trazado 199" d="M833.336,1660.374s.273,2.7,2.4,2.883c-2.129.187-2.4,2.884-2.4,2.884s-.274-2.7-2.4-2.884C833.062,1663.072,833.336,1660.374,833.336,1660.374Z" fill="#edfdfc"/>
        <path id="Trazado_200" data-name="Trazado 200" d="M726.511,1680.663s.122,1.207,1.073,1.291c-.951.084-1.073,1.291-1.073,1.291s-.124-1.207-1.075-1.291C726.387,1681.87,726.511,1680.663,726.511,1680.663Z" fill="#edfdfc"/>
        <path id="Trazado_201" data-name="Trazado 201" d="M837.247,1685.829s.122,1.207,1.075,1.29c-.953.084-1.075,1.29-1.075,1.29s-.123-1.206-1.075-1.29C837.124,1687.036,837.247,1685.829,837.247,1685.829Z" fill="#edfdfc"/>
        <g id="Grupo_66" data-name="Grupo 66">
          <g id="Grupo_65" data-name="Grupo 65">
            <g id="Grupo_63" data-name="Grupo 63">
              <path id="Rectángulo_48" data-name="Rectángulo 48" d="M5,0h.051a4.995,4.995,0,0,1,4.995,4.995V8.742a0,0,0,0,1,0,0H0a0,0,0,0,1,0,0V5A5,5,0,0,1,5,0Z" transform="translate(778.3 1660.907) rotate(180)" fill="url(#linear-gradient-10)"/>
              <path id="Rectángulo_49" data-name="Rectángulo 49" d="M5,0h.051a5,5,0,0,1,5,5V8.742a0,0,0,0,1,0,0H0a0,0,0,0,1,0,0V5A5,5,0,0,1,5,0Z" transform="translate(788.341 1660.907) rotate(-180)" fill="url(#linear-gradient-11)"/>
              <path id="Rectángulo_50" data-name="Rectángulo 50" d="M5,0h.051a5,5,0,0,1,5,5V8.742a0,0,0,0,1,0,0H0a0,0,0,0,1,0,0V5A5,5,0,0,1,5,0Z" transform="translate(798.382 1660.907) rotate(180)" fill="url(#linear-gradient-12)"/>
              <path id="Rectángulo_51" data-name="Rectángulo 51" d="M5,0h.05a5,5,0,0,1,5,5V8.742a0,0,0,0,1,0,0H0a0,0,0,0,1,0,0V5A5,5,0,0,1,5,0Z" transform="translate(808.422 1660.907) rotate(-180)" fill="url(#linear-gradient-13)"/>
              <path id="Rectángulo_52" data-name="Rectángulo 52" d="M5,0h.052a5,5,0,0,1,5,5V8.742a0,0,0,0,1,0,0H0a0,0,0,0,1,0,0V5A5,5,0,0,1,5,0Z" transform="translate(818.465 1660.907) rotate(180)" fill="url(#linear-gradient-14)"/>
              <path id="Rectángulo_53" data-name="Rectángulo 53" d="M5,0h.051a5,5,0,0,1,5,5V8.742a0,0,0,0,1,0,0H0a0,0,0,0,1,0,0V5A5,5,0,0,1,5,0Z" transform="translate(748.199 1660.907) rotate(180)" fill="url(#linear-gradient-15)"/>
              <path id="Rectángulo_54" data-name="Rectángulo 54" d="M5,0h.051a5,5,0,0,1,5,5V8.742a0,0,0,0,1,0,0H0a0,0,0,0,1,0,0V5A5,5,0,0,1,5,0Z" transform="translate(758.24 1660.907) rotate(-180)" fill="url(#linear-gradient-16)"/>
              <path id="Rectángulo_55" data-name="Rectángulo 55" d="M5,0h.051a5,5,0,0,1,5,5V8.742a0,0,0,0,1,0,0H0a0,0,0,0,1,0,0V5A5,5,0,0,1,5,0Z" transform="translate(768.258 1660.907) rotate(180)" fill="url(#linear-gradient-17)"/>
              <path id="Rectángulo_56" data-name="Rectángulo 56" d="M5,0h.051a5,5,0,0,1,5,5V8.742a0,0,0,0,1,0,0H0a0,0,0,0,1,0,0V5A5,5,0,0,1,5,0Z" transform="translate(828.506 1660.907) rotate(180)" fill="url(#linear-gradient-18)"/>
            </g>
            <g id="Grupo_64" data-name="Grupo 64">
              <path id="Trazado_202" data-name="Trazado 202" d="M779.75,1639.465h7.14l1.451,12.7H778.3Z" fill="#edfdfc"/>
              <path id="Trazado_203" data-name="Trazado 203" d="M786.89,1639.465h7.139l4.353,12.7H788.341Z" fill="url(#linear-gradient-19)"/>
              <path id="Trazado_204" data-name="Trazado 204" d="M794.029,1639.465h7.14l7.254,12.7H798.382Z" fill="#edfdfc"/>
              <path id="Trazado_205" data-name="Trazado 205" d="M801.168,1639.465h7.139l10.158,12.7H808.422Z" fill="url(#linear-gradient-20)"/>
              <path id="Trazado_206" data-name="Trazado 206" d="M808.307,1639.465h7.14l13.059,12.7H818.465Z" fill="#edfdfc"/>
              <path id="Trazado_207" data-name="Trazado 207" d="M751.241,1639.465h7.14l-10.182,12.7H738.157Z" fill="#edfdfc"/>
              <path id="Trazado_208" data-name="Trazado 208" d="M758.345,1639.465h7.139l-7.244,12.7H748.2Z" fill="url(#linear-gradient-21)"/>
              <path id="Trazado_209" data-name="Trazado 209" d="M765.484,1639.465h7.14l-4.365,12.7H758.217Z" fill="#edfdfc"/>
              <path id="Trazado_210" data-name="Trazado 210" d="M772.623,1639.465h7.139l-1.463,12.7H768.258Z" fill="url(#linear-gradient-22)"/>
            </g>
          </g>
        </g>
        <g id="Grupo_68" data-name="Grupo 68">
          <path id="Rectángulo_57" data-name="Rectángulo 57" d="M3.833,0H42.687a3.832,3.832,0,0,1,3.832,3.832V4.963a3.83,3.83,0,0,1-3.83,3.83H3.83A3.83,3.83,0,0,1,0,4.962V3.833A3.833,3.833,0,0,1,3.833,0Z" transform="translate(806.591 1728.161) rotate(180)" fill="url(#linear-gradient-23)"/>
          <g id="Grupo_67" data-name="Grupo 67">
            <path id="Trazado_211" data-name="Trazado 211" d="M792.785,1724.1a.87.87,0,0,1,.394-.479.948.948,0,0,1,.289-.107.9.9,0,0,1-.218-.133.807.807,0,0,1-.252-.414,1.008,1.008,0,0,1-.032-.256,1.054,1.054,0,0,1,.073-.4.776.776,0,0,1,.217-.3.965.965,0,0,1,.361-.186,1.924,1.924,0,0,1,.556-.064h.859a.21.21,0,0,1,.127.043.192.192,0,0,1,.06.162v3.371a.19.19,0,0,1-.06.16.205.205,0,0,1-.127.045h-.988a2.046,2.046,0,0,1-.379-.031,1.537,1.537,0,0,1-.309-.092,1.1,1.1,0,0,1-.26-.152.941.941,0,0,1-.2-.21,1.031,1.031,0,0,1-.127-.272,1.121,1.121,0,0,1-.044-.327A.991.991,0,0,1,792.785,1724.1Zm.734-1.1a.523.523,0,0,0,.116.2.548.548,0,0,0,.2.139.837.837,0,0,0,.315.051h.571v-1.225H794.2a1.215,1.215,0,0,0-.347.041.544.544,0,0,0-.212.119.445.445,0,0,0-.12.188.766.766,0,0,0-.038.247A.8.8,0,0,0,793.519,1723Zm-.208,1.761a.544.544,0,0,0,.153.2.63.63,0,0,0,.226.12.992.992,0,0,0,.3.042h.729v-1.333h-.6a1.445,1.445,0,0,0-.392.045.718.718,0,0,0-.26.133.6.6,0,0,0-.157.217.74.74,0,0,0-.054.3A.639.639,0,0,0,793.311,1724.758Z" fill="#fff"/>
            <path id="Trazado_212" data-name="Trazado 212" d="M789.12,1721.829a.07.07,0,0,1,.012-.041.1.1,0,0,1,.041-.027.544.544,0,0,1,.076-.018.8.8,0,0,1,.119-.007.828.828,0,0,1,.121.007.527.527,0,0,1,.077.018.089.089,0,0,1,.042.027.088.088,0,0,1,.012.041v2.313a1.377,1.377,0,0,0,.063.443.847.847,0,0,0,.181.32.724.724,0,0,0,.288.192,1.085,1.085,0,0,0,.391.064,1.018,1.018,0,0,0,.384-.066.742.742,0,0,0,.292-.2.842.842,0,0,0,.186-.325,1.473,1.473,0,0,0,.064-.46v-2.285a.087.087,0,0,1,.011-.041.094.094,0,0,1,.04-.027.544.544,0,0,1,.078-.018.816.816,0,0,1,.119-.007.827.827,0,0,1,.124.007.525.525,0,0,1,.075.018.1.1,0,0,1,.042.027.087.087,0,0,1,.011.041v2.348a1.767,1.767,0,0,1-.1.613,1.168,1.168,0,0,1-.284.443,1.216,1.216,0,0,1-.442.268,1.7,1.7,0,0,1-.569.092,1.817,1.817,0,0,1-.611-.1,1.2,1.2,0,0,1-.456-.283,1.243,1.243,0,0,1-.288-.456,1.764,1.764,0,0,1-.1-.615Z" fill="#fff"/>
            <path id="Trazado_213" data-name="Trazado 213" d="M786.025,1725.229a.2.2,0,0,1,.02-.063.1.1,0,0,1,.034-.036.083.083,0,0,1,.042-.012h1.5v-1.353h-1.269a.093.093,0,0,1-.042-.01.084.084,0,0,1-.033-.034.2.2,0,0,1-.019-.062.594.594,0,0,1-.006-.09.669.669,0,0,1,.006-.1.229.229,0,0,1,.019-.066.1.1,0,0,1,.033-.035.063.063,0,0,1,.042-.014h1.269v-1.187h-1.48a.085.085,0,0,1-.042-.01.078.078,0,0,1-.031-.037.308.308,0,0,1-.019-.064.507.507,0,0,1-.007-.092.566.566,0,0,1,.007-.1.258.258,0,0,1,.019-.064.072.072,0,0,1,.031-.038.063.063,0,0,1,.042-.012h1.794a.219.219,0,0,1,.128.043.192.192,0,0,1,.06.162v3.371a.19.19,0,0,1-.06.16.214.214,0,0,1-.128.045h-1.814a.063.063,0,0,1-.042-.014.07.07,0,0,1-.034-.036.2.2,0,0,1-.02-.065.506.506,0,0,1-.006-.092A.6.6,0,0,1,786.025,1725.229Z" fill="#fff"/>
            <path id="Trazado_214" data-name="Trazado 214" d="M780.989,1721.839a.068.068,0,0,1,.012-.038.076.076,0,0,1,.04-.031.267.267,0,0,1,.077-.019.971.971,0,0,1,.117-.006,1.034,1.034,0,0,1,.125.006.287.287,0,0,1,.076.019.082.082,0,0,1,.042.031.063.063,0,0,1,.013.038v2.053c0,.152,0,.312,0,.479s0,.327-.007.48h0l.136-.272c.046-.09.093-.182.139-.276s.1-.189.148-.286l.158-.3.887-1.66a1.223,1.223,0,0,1,.091-.15.374.374,0,0,1,.092-.094.317.317,0,0,1,.1-.049.678.678,0,0,1,.147-.013h.246a.232.232,0,0,1,.145.05.189.189,0,0,1,.067.165v3.489a.066.066,0,0,1-.013.04.077.077,0,0,1-.04.029.273.273,0,0,1-.075.018.982.982,0,0,1-.121.007.994.994,0,0,1-.123-.007.332.332,0,0,1-.078-.018.08.08,0,0,1-.041-.029.072.072,0,0,1-.012-.04v-2.282c0-.144,0-.289,0-.436s.006-.289.01-.43h-.006c-.053.116-.109.234-.171.356s-.121.238-.182.35l-1.155,2.151a1.491,1.491,0,0,1-.111.186.613.613,0,0,1-.107.116.269.269,0,0,1-.111.058.524.524,0,0,1-.138.016h-.166a.244.244,0,0,1-.079-.012.165.165,0,0,1-.071-.038.172.172,0,0,1-.051-.066.227.227,0,0,1-.019-.1Z" fill="#fff"/>
            <path id="Trazado_215" data-name="Trazado 215" d="M776.915,1722.786a1.578,1.578,0,0,1,.307-.595,1.327,1.327,0,0,1,.516-.367,2.148,2.148,0,0,1,1.485.013,1.415,1.415,0,0,1,.54.4,1.655,1.655,0,0,1,.325.621,2.822,2.822,0,0,1,.108.811,3.089,3.089,0,0,1-.1.829,1.573,1.573,0,0,1-.3.6,1.3,1.3,0,0,1-.514.369,2.141,2.141,0,0,1-1.5-.012,1.4,1.4,0,0,1-.538-.4,1.722,1.722,0,0,1-.323-.626,2.944,2.944,0,0,1-.108-.827A3.06,3.06,0,0,1,776.915,1722.786Zm.49,1.432a1.41,1.41,0,0,0,.2.484.99.99,0,0,0,.361.33,1.123,1.123,0,0,0,.555.124,1.222,1.222,0,0,0,.553-.112.911.911,0,0,0,.352-.316,1.312,1.312,0,0,0,.186-.484,3.165,3.165,0,0,0,.056-.614,2.667,2.667,0,0,0-.06-.574,1.378,1.378,0,0,0-.2-.478,1.033,1.033,0,0,0-.361-.327,1.13,1.13,0,0,0-.548-.123,1.194,1.194,0,0,0-.549.113.922.922,0,0,0-.355.317,1.415,1.415,0,0,0-.19.48,3.04,3.04,0,0,0-.056.6A2.8,2.8,0,0,0,777.405,1724.218Z" fill="#fff"/>
            <path id="Trazado_216" data-name="Trazado 216" d="M771.46,1721.936a.634.634,0,0,1-.016-.107.064.064,0,0,1,.023-.057.13.13,0,0,1,.073-.029,1.039,1.039,0,0,1,.14-.007c.056,0,.1,0,.135.005a.367.367,0,0,1,.079.019.06.06,0,0,1,.037.034.39.39,0,0,1,.017.051l.834,3.165h.006l.867-3.162a.2.2,0,0,1,.022-.054.074.074,0,0,1,.043-.034.4.4,0,0,1,.076-.019c.034,0,.077-.005.131-.005s.1,0,.141.005a.412.412,0,0,1,.084.019.075.075,0,0,1,.042.034.2.2,0,0,1,.023.054l.806,3.162h0l.851-3.169a.337.337,0,0,1,.016-.053.072.072,0,0,1,.039-.032.273.273,0,0,1,.08-.015c.034,0,.083-.005.143-.005s.112,0,.15.005a.172.172,0,0,1,.079.027.071.071,0,0,1,.025.058.706.706,0,0,1-.02.107l-1,3.493a.155.155,0,0,1-.03.065.122.122,0,0,1-.063.037.435.435,0,0,1-.106.02c-.042,0-.1.005-.16.005s-.114,0-.154-.005a.365.365,0,0,1-.1-.02.108.108,0,0,1-.058-.037.135.135,0,0,1-.03-.065l-.731-2.857h-.006l-.792,2.857a.188.188,0,0,1-.032.065.109.109,0,0,1-.062.037.419.419,0,0,1-.1.02c-.043,0-.093.005-.153.005s-.109,0-.148-.005a.419.419,0,0,1-.1-.02.13.13,0,0,1-.064-.037.177.177,0,0,1-.036-.065Z" fill="#fff"/>
          </g>
        </g>
      </g>
      <text id="Tu_farmacia_digital_al_alcance_de_tu_mano" data-name="Tu farmacia digital
al alcance de tu mano" transform="translate(348.685 1674.089)" font-size="26.905" font-family="MADETOMMY-Bold, MADE TOMMY" font-weight="700"><tspan x="0" y="0">Tu farmacia digital</tspan><tspan x="0" y="27">al alcance de tu mano</tspan></text>
      <text id="Enviá_tus_recetas_y_pedidos_sin_moverte_de_tu_casa." data-name="Enviá tus recetas y pedidos
sin moverte de tu casa." transform="translate(348.686 1725.989)" font-size="13.428" font-family="MADETOMMY-Light, MADE TOMMY" font-weight="300"><tspan x="0" y="0">Enviá tus recetas y pedidos</tspan><tspan x="0" y="16.113">sin moverte de tu casa.</tspan></text>
      <text id="Descargate_la_App" data-name="Descargate la App" transform="translate(348.686 1630.837)" font-size="19.626" font-family="MADETOMMY-Light, MADE TOMMY" font-weight="300"><tspan x="0" y="0">Descargate la App</tspan></text>
      <line id="Línea_5" data-name="Línea 5" x2="57.177" transform="translate(348.685 1639.465)" fill="#c0f2f1" stroke="#000" stroke-miterlimit="10" stroke-width="1"/>
    </g>
  </g>
</svg>
