<svg xmlns="http://www.w3.org/2000/svg" xmlns:xlink="http://www.w3.org/1999/xlink" width="652.921" height="239.834" viewBox="0 0 652.921 239.834">
  <defs>
    <linearGradient id="linear-gradient" x1="6.711" y1="-0.032" x2="7.095" y2="0.873" gradientUnits="objectBoundingBox">
      <stop offset="0" stop-color="#53cd9f"/>
      <stop offset="1" stop-color="#0d7a5c"/>
    </linearGradient>
    <linearGradient id="linear-gradient-2" x1="31.883" y1="1.27" x2="30.479" y2="-0.122" gradientUnits="objectBoundingBox">
      <stop offset="0" stop-color="#00503e"/>
      <stop offset="1" stop-color="#023222"/>
    </linearGradient>
    <linearGradient id="linear-gradient-3" x1="31.881" y1="0.151" x2="30.909" y2="0.75" gradientUnits="objectBoundingBox">
      <stop offset="0" stop-color="#c7a44f"/>
      <stop offset="1" stop-color="#609a3f"/>
    </linearGradient>
    <linearGradient id="linear-gradient-4" x1="35.067" y1="-0.905" x2="33.993" y2="0.713" xlink:href="#linear-gradient-3"/>
    <linearGradient id="linear-gradient-5" x1="34.862" y1="2.487" x2="33.312" y2="-2.545" xlink:href="#linear-gradient-2"/>
    <linearGradient id="linear-gradient-6" x1="17.617" y1="0.5" x2="18.617" y2="0.5" xlink:href="#linear-gradient-2"/>
    <linearGradient id="linear-gradient-7" x1="32.849" y1="-0.163" x2="31.867" y2="1.214" gradientUnits="objectBoundingBox">
      <stop offset="0" stop-color="#c9cd55"/>
      <stop offset="0.507" stop-color="#659c52"/>
      <stop offset="1" stop-color="#287f50"/>
    </linearGradient>
    <linearGradient id="linear-gradient-8" x1="80.463" y1="-4.247" x2="66.187" y2="2.157" xlink:href="#linear-gradient"/>
    <linearGradient id="linear-gradient-9" x1="64.75" y1="-0.51" x2="55.121" y2="3.93" xlink:href="#linear-gradient"/>
    <linearGradient id="linear-gradient-10" x1="125.561" y1="5.2" x2="125.607" y2="0.853" gradientUnits="objectBoundingBox">
      <stop offset="0" stop-color="#fb9a2b"/>
      <stop offset="1" stop-color="#e65925"/>
    </linearGradient>
    <linearGradient id="linear-gradient-11" x1="128.597" y1="-4.617" x2="120.488" y2="3.468" xlink:href="#linear-gradient-3"/>
    <linearGradient id="linear-gradient-12" x1="121.568" y1="5.172" x2="121.614" y2="0.825" xlink:href="#linear-gradient-10"/>
    <linearGradient id="linear-gradient-13" x1="125.743" y1="-5.755" x2="117.634" y2="2.33" xlink:href="#linear-gradient-3"/>
    <linearGradient id="linear-gradient-14" x1="117.552" y1="5.144" x2="117.598" y2="0.797" xlink:href="#linear-gradient-10"/>
    <linearGradient id="linear-gradient-15" x1="134.306" y1="-2.344" x2="126.197" y2="5.741" xlink:href="#linear-gradient-3"/>
    <linearGradient id="linear-gradient-16" x1="129.563" y1="5.227" x2="129.609" y2="0.881" xlink:href="#linear-gradient-10"/>
    <linearGradient id="linear-gradient-17" x1="131.45" y1="-3.48" x2="123.341" y2="4.605" xlink:href="#linear-gradient-3"/>
    <linearGradient id="linear-gradient-18" x1="122.877" y1="-6.892" x2="114.768" y2="1.193" xlink:href="#linear-gradient-3"/>
    <linearGradient id="linear-gradient-19" x1="106.062" y1="1.957" x2="107.288" y2="-1.626" xlink:href="#linear-gradient-10"/>
    <linearGradient id="linear-gradient-20" x1="68.673" y1="1.547" x2="69.488" y2="-2.036" xlink:href="#linear-gradient-10"/>
    <linearGradient id="linear-gradient-21" x1="74.578" y1="2.725" x2="75.393" y2="-0.857" xlink:href="#linear-gradient-10"/>
    <linearGradient id="linear-gradient-22" x1="108.947" y1="2.343" x2="110.172" y2="-1.239" xlink:href="#linear-gradient-10"/>
    <linearGradient id="linear-gradient-23" x1="26.575" y1="0.5" x2="27.575" y2="0.5" xlink:href="#linear-gradient-10"/>
  </defs>
  <g id="Grupo_463" data-name="Grupo 463" transform="translate(-299.337 -1912.305)">
    <g id="Grupo_138" data-name="Grupo 138">
      <rect id="Rectángulo_67" data-name="Rectángulo 67" width="652.921" height="239.834" transform="translate(299.337 1912.305)" fill="#dcf9f7"/>
      <g id="Grupo_137" data-name="Grupo 137">
        <path id="Trazado_238" data-name="Trazado 238" d="M775.165,2140.791s79.315-5.836,88.853-44.617-11.6-44.063-18.818-65.785,25.52-34.534,3.608-64.088-54.227-30.073-67.844-16.153-29.315-8.507-54.592,4.124-31.464,38.157-23.472,58.094-24.778,39-28.887,61.6S706.995,2150.757,775.165,2140.791Z" fill="url(#linear-gradient)"/>
        <path id="Trazado_239" data-name="Trazado 239" d="M855.53,2151.39H808l-3.942-10.615a15.016,15.016,0,0,0-7.91-8.436,37.827,37.827,0,0,1-12.565-9.426,87.315,87.315,0,0,1-13.377-20.333l29.456-.145s-2.652-16.476,11.988-38.358a12.383,12.383,0,0,0,2.035-7.96l-1.387-15.961s-9.949-11.117-3.845-24.91c0,0,5.837-8.081,8.152-5.123,0,0,17.631,41.983,19.235,48.226s3.746,10.165,1.606,29.784a118.822,118.822,0,0,0-.763,13.086,46.439,46.439,0,0,0,4.463,19.767Z" fill="#ffc0bb"/>
        <path id="Trazado_240" data-name="Trazado 240" d="M811.2,2124.156c4.411-4.9,10.54-4.123,16.984-6.358s8.512-18.343,8.512-18.343h0c-.01.606-.015,1.2-.014,1.765a46.439,46.439,0,0,0,4.463,19.767l14.383,30.4H808l-3.942-10.615a15.016,15.016,0,0,0-7.91-8.436,37.031,37.031,0,0,1-10.554-7.319C798.686,2130.523,806.789,2129.054,811.2,2124.156Z" fill="#ffc0bb" opacity="0.2" style="mix-blend-mode: multiply;isolation: isolate"/>
        <path id="Trazado_241" data-name="Trazado 241" d="M707.2,2014.336a1.639,1.639,0,0,1,1.6-1.271,1.716,1.716,0,0,1,.414.051,2.412,2.412,0,0,1,2.186-1.391,2.467,2.467,0,0,1,.718.108,2.977,2.977,0,0,1,5.345.52,2.042,2.042,0,0,1,3.034,1.785c0,.066,0,.134-.01.2Z" fill="#edfdfc"/>
        <path id="Trazado_242" data-name="Trazado 242" d="M726.372,1966.252a4.284,4.284,0,0,1,4.172-3.32,4.372,4.372,0,0,1,1.08.138,6.311,6.311,0,0,1,7.583-3.349,7.77,7.77,0,0,1,13.955,1.357,5.33,5.33,0,0,1,7.919,4.658c0,.174-.008.347-.025.516Z" fill="#edfdfc"/>
        <path id="Trazado_243" data-name="Trazado 243" d="M820.466,1998.934a3.585,3.585,0,0,1,3.491-2.779,3.514,3.514,0,0,1,.906.115,5.276,5.276,0,0,1,6.346-2.8,6.5,6.5,0,0,1,11.679,1.136,4.461,4.461,0,0,1,6.629,3.9c0,.147-.008.291-.022.434Z" fill="#edfdfc"/>
        <g id="Grupo_123" data-name="Grupo 123">
          <path id="Trazado_244" data-name="Trazado 244" d="M832.217,1961.195c-10.926,17.24-37.858,32.606-37.858,32.606s21.409-1.738,32.034-15.576l-3.853-3.19s3.062.3,5.627.593A28.984,28.984,0,0,0,832.217,1961.195Z" fill="url(#linear-gradient-2)"/>
          <path id="Trazado_245" data-name="Trazado 245" d="M803.548,1968.325c1.66.755,4.118,1.9,4.118,1.9l-2.368-3.4a27.605,27.605,0,0,1,8.8-4.511c1.219,1.774,2.652,3.758,2.652,3.758l.285-4.53a42.032,42.032,0,0,1,15.179-.347c-10.926,17.24-37.858,32.606-37.858,32.606C794.481,1981.133,798.338,1973.223,803.548,1968.325Z" fill="url(#linear-gradient-3)"/>
        </g>
        <g id="Grupo_124" data-name="Grupo 124">
          <path id="Trazado_246" data-name="Trazado 246" d="M836.229,1985.522a25.389,25.389,0,0,0-9.643-3.323c-.955,1.09-2.127,2.371-2.127,2.371L824.4,1982c-12.179-.583-22.448,7.088-22.448,7.088,6.969,4.238,12.968,5.43,17.909,5.077.312-.9.755-2.234.755-2.234l.826,2.065a22.356,22.356,0,0,0,6.3-1.868c-.439-1.072-.9-2.295-.9-2.295l2.6,1.424A23.1,23.1,0,0,0,836.229,1985.522Z" fill="url(#linear-gradient-4)"/>
          <path id="Trazado_247" data-name="Trazado 247" d="M819.856,1994.169c.312-.9.755-2.234.755-2.234l.826,2.065a22.356,22.356,0,0,0,6.3-1.868c-.439-1.072-.9-2.295-.9-2.295l2.6,1.424a23.1,23.1,0,0,0,6.8-5.739c-14.17-1.622-34.282,3.57-34.282,3.57C808.916,1993.33,814.915,1994.522,819.856,1994.169Z" fill="url(#linear-gradient-5)"/>
        </g>
        <g id="Grupo_125" data-name="Grupo 125">
          <path id="Trazado_248" data-name="Trazado 248" d="M743.633,1982.131s-10.067-6.738-12.365-2.3,13.078,20.147,13.078,20.147Z" fill="#eaa0a0"/>
          <path id="Trazado_249" data-name="Trazado 249" d="M743.633,2011.488s-10.067-6.738-12.365-2.3,13.078,20.147,13.078,20.147Z" fill="#eaa0a0"/>
          <path id="Trazado_250" data-name="Trazado 250" d="M743.633,2031.492s-10.067-6.74-12.365-2.3,13.078,20.147,13.078,20.147Z" fill="#eaa0a0"/>
        </g>
        <path id="Trazado_251" data-name="Trazado 251" d="M750.586,1974.581h55.266a7.451,7.451,0,0,1,7.453,7.451v112.952a7.453,7.453,0,0,1-7.453,7.451H750.586a7.453,7.453,0,0,1-7.453-7.451V1982.032A7.454,7.454,0,0,1,750.586,1974.581Z" fill="url(#linear-gradient-6)"/>
        <path id="Trazado_252" data-name="Trazado 252" d="M808.269,2069.551s10,24.47,9.028,29.1-7.036,10.815-21.919,8.752a228.541,228.541,0,0,1-25.171-4.82s-.621-33.024,0-34.7,27.383-13.563,28.435-13.563S808.269,2069.551,808.269,2069.551Z" fill="#ffc0bb" opacity="0.2" style="mix-blend-mode: multiply;isolation: isolate"/>
        <rect id="Rectángulo_68" data-name="Rectángulo 68" width="62.946" height="107.542" transform="translate(809.692 2092.279) rotate(180)" fill="#edfdfc"/>
        <g id="Grupo_127" data-name="Grupo 127">
          <path id="Rectángulo_69" data-name="Rectángulo 69" d="M3.908,0H34.873a3.91,3.91,0,0,1,3.91,3.91V44.917a3.909,3.909,0,0,1-3.909,3.909H3.908A3.908,3.908,0,0,1,0,44.918V3.908A3.908,3.908,0,0,1,3.908,0Z" transform="translate(797.611 2058.096) rotate(180)" fill="url(#linear-gradient-7)"/>
          <g id="Grupo_126" data-name="Grupo 126">
            <path id="Trazado_253" data-name="Trazado 253" d="M764.736,2029.042l3.073,14.748a1.363,1.363,0,0,0,1.321,1.1h18.178a1.361,1.361,0,0,0,1.321-1.1l3.074-14.748Zm20.8,13.675,1.033-10.451a.744.744,0,1,1,1.488,0l-1.032,10.451a.745.745,0,0,1-1.489,0Zm-3.743,0,.413-10.451a.745.745,0,1,1,1.489,0l-.413,10.451a.744.744,0,0,1-.744.744h0A.744.744,0,0,1,781.794,2042.717Zm-4.319-10.451a.745.745,0,1,1,1.489,0v10.451a.745.745,0,0,1-1.489,0Zm-4.731,0a.744.744,0,1,1,1.488,0l.412,10.451a.743.743,0,1,1-1.487,0Zm-4.364,0a.745.745,0,1,1,1.489,0l1.032,10.451a.744.744,0,1,1-1.488,0Z" fill="#edfdfc"/>
            <path id="Trazado_254" data-name="Trazado 254" d="M764.544,2030.234h27.35a1.192,1.192,0,0,0,1.191-1.192h0a1.192,1.192,0,0,0-1.191-1.19h-27.35a1.19,1.19,0,0,0-1.19,1.19h0A1.191,1.191,0,0,0,764.544,2030.234Z" fill="#edfdfc"/>
            <path id="Trazado_255" data-name="Trazado 255" d="M786.15,2027.941v-1.027a3.1,3.1,0,0,0-3.1-3.1h-9.657a3.1,3.1,0,0,0-3.1,3.1v1.027a.667.667,0,0,1-.667.667h0a.666.666,0,0,1-.667-.667v-1.027a4.437,4.437,0,0,1,4.437-4.438h9.657a4.437,4.437,0,0,1,4.437,4.438v1.027a.668.668,0,0,1-.668.667h0A.667.667,0,0,1,786.15,2027.941Z" fill="#edfdfc"/>
          </g>
        </g>
        <path id="Rectángulo_70" data-name="Rectángulo 70" d="M.54,0H26.393a.541.541,0,0,1,.541.541V.8a.542.542,0,0,1-.542.542H.542A.542.542,0,0,1,0,.8V.54A.54.54,0,0,1,.54,0Z" transform="translate(791.636 1981.357) rotate(180)" fill="#b7d972"/>
        <path id="Trazado_256" data-name="Trazado 256" d="M814.558,2049.787a4.709,4.709,0,0,1-1.239,2.108l-1.02-11.739s-7.319-8.179-5.551-19.209a16.485,16.485,0,0,1,5.356-9.775c1.641-1.443,3.44-2.4,4.5-1.049,0,0,8.291,19.742,14.019,34.163Z" fill="#ffc0bb"/>
        <g id="Grupo_129" data-name="Grupo 129">
          <path id="Trazado_257" data-name="Trazado 257" d="M775.165,2097.461a3.091,3.091,0,1,0,3.09-3.092A3.091,3.091,0,0,0,775.165,2097.461Z" fill="#daeef7" opacity="0.3"/>
          <g id="Grupo_128" data-name="Grupo 128">
            <path id="Trazado_258" data-name="Trazado 258" d="M776.968,2098.382v-1.843a.365.365,0,0,1,.366-.365h1.843a.365.365,0,0,1,.367.365v1.843a.367.367,0,0,1-.367.366h-1.843A.366.366,0,0,1,776.968,2098.382Zm.366-2.111a.268.268,0,0,0-.267.268v1.843a.267.267,0,0,0,.267.266h1.843a.267.267,0,0,0,.267-.266v-1.843a.268.268,0,0,0-.267-.268Z" fill="#daeef7"/>
          </g>
        </g>
        <rect id="Rectángulo_71" data-name="Rectángulo 71" width="62.946" height="6.361" transform="translate(809.692 2092.279) rotate(180)" fill="#b7d972"/>
        <rect id="Rectángulo_72" data-name="Rectángulo 72" width="62.946" height="5.708" transform="translate(809.692 1990.445) rotate(180)" fill="#c0efff"/>
        <path id="Trazado_259" data-name="Trazado 259" d="M815.115,2021.719c-2.29-1.055-3.486-7.015-3.914-9.694,1.839-1.849,4.145-3.515,5.405-1.9,0,0,1.826,4.348,4.355,10.451C819.232,2021.539,816.828,2022.508,815.115,2021.719Z" fill="#eaa0a0"/>
        <path id="Trazado_260" data-name="Trazado 260" d="M841.836,2123.344c-5.029,3.09-21.22,12.33-37.962,14.3a1.468,1.468,0,0,0-1.38,1.791l2.924,7.835a1.3,1.3,0,0,0,1.431.739c4.934-.6,25.292-3.662,39.614-14.742a1.286,1.286,0,0,0,.512-1.438l-2.985-7.995A1.458,1.458,0,0,0,841.836,2123.344Z" fill="#473b1e"/>
        <path id="Trazado_261" data-name="Trazado 261" d="M843.3,2130.836l.056-.021a.57.57,0,0,0,.333-.731l-.9-2.41a.565.565,0,0,0-.729-.334l-.056.021a.567.567,0,0,0-.333.731l.9,2.41A.568.568,0,0,0,843.3,2130.836Z" fill="#212121"/>
        <path id="Trazado_262" data-name="Trazado 262" d="M840.293,2132.692l.056-.021a.568.568,0,0,0,.333-.731l-.9-2.411a.568.568,0,0,0-.729-.334l-.055.021a.566.566,0,0,0-.333.729l.9,2.412A.568.568,0,0,0,840.293,2132.692Z" fill="#212121"/>
        <path id="Trazado_263" data-name="Trazado 263" d="M837.278,2134.534l.054-.02a.568.568,0,0,0,.334-.731l-.9-2.411a.568.568,0,0,0-.73-.333l-.056.021a.566.566,0,0,0-.333.729l.9,2.412A.568.568,0,0,0,837.278,2134.534Z" fill="#212121"/>
        <path id="Trazado_264" data-name="Trazado 264" d="M834.174,2136.034l.055-.02a.569.569,0,0,0,.333-.731l-.9-2.412a.569.569,0,0,0-.73-.334l-.056.022a.566.566,0,0,0-.333.73l.9,2.411A.568.568,0,0,0,834.174,2136.034Z" fill="#212121"/>
        <path id="Trazado_265" data-name="Trazado 265" d="M831.121,2137.775l.054-.019a.568.568,0,0,0,.333-.731l-.9-2.41a.569.569,0,0,0-.731-.335l-.054.021a.569.569,0,0,0-.334.731l.9,2.411A.565.565,0,0,0,831.121,2137.775Z" fill="#212121"/>
        <path id="Trazado_266" data-name="Trazado 266" d="M827.932,2139.158l.055-.021a.567.567,0,0,0,.333-.73l-.9-2.411a.568.568,0,0,0-.731-.334l-.056.022a.567.567,0,0,0-.333.73l.9,2.41A.567.567,0,0,0,827.932,2139.158Z" fill="#212121"/>
        <path id="Trazado_267" data-name="Trazado 267" d="M824.68,2140.372l.056-.02a.568.568,0,0,0,.333-.73l-.9-2.411a.569.569,0,0,0-.73-.336l-.055.022a.568.568,0,0,0-.334.73l.9,2.412A.566.566,0,0,0,824.68,2140.372Z" fill="#212121"/>
        <path id="Trazado_268" data-name="Trazado 268" d="M821.366,2141.417l.056-.021a.567.567,0,0,0,.333-.729l-.9-2.411a.569.569,0,0,0-.731-.334l-.055.02a.568.568,0,0,0-.333.73l.9,2.413A.565.565,0,0,0,821.366,2141.417Z" fill="#212121"/>
        <path id="Trazado_269" data-name="Trazado 269" d="M817.918,2142.1l.056-.022a.566.566,0,0,0,.332-.73l-.9-2.411a.57.57,0,0,0-.731-.336l-.056.022a.569.569,0,0,0-.333.73l.9,2.413A.57.57,0,0,0,817.918,2142.1Z" fill="#212121"/>
        <path id="Trazado_270" data-name="Trazado 270" d="M814.56,2143.031l.056-.021a.566.566,0,0,0,.333-.73l-.9-2.411a.569.569,0,0,0-.731-.334l-.055.022a.566.566,0,0,0-.333.728l.9,2.412A.568.568,0,0,0,814.56,2143.031Z" fill="#212121"/>
        <path id="Trazado_271" data-name="Trazado 271" d="M811.074,2143.615l.055-.019a.57.57,0,0,0,.334-.731l-.9-2.412a.568.568,0,0,0-.73-.334l-.056.022a.566.566,0,0,0-.333.729l.9,2.412A.567.567,0,0,0,811.074,2143.615Z" fill="#212121"/>
        <path id="Trazado_272" data-name="Trazado 272" d="M807.583,2144.188l.056-.021a.569.569,0,0,0,.333-.73l-.9-2.412a.572.572,0,0,0-.731-.335l-.055.023a.565.565,0,0,0-.333.728l.9,2.414A.568.568,0,0,0,807.583,2144.188Z" fill="#212121"/>
        <path id="Trazado_273" data-name="Trazado 273" d="M831.9,2141.483l-.013-.036a.656.656,0,0,0,.158-.039l3.962-1.478a.793.793,0,0,0,.424-1.032l-3.574-9.57a.79.79,0,0,0-1-.5l-3.961,1.479a.739.739,0,0,0-.452.52c-.311.136-.624.271-.942.405a1.715,1.715,0,0,1,1.045-1.86l3.962-1.479a1.754,1.754,0,0,1,2.21,1.115l3.572,9.567a1.755,1.755,0,0,1-.939,2.29l-3.962,1.479a1.672,1.672,0,0,1-1.71-.369C831.086,2141.815,831.492,2141.65,831.9,2141.483Z" fill="#edfdfc"/>
        <path id="Trazado_274" data-name="Trazado 274" d="M832.767,2133.891l1.724-.643a.646.646,0,0,1,.451,1.207l-1.723.644Z" fill="#b7d972"/>
        <g id="Grupo_130" data-name="Grupo 130">
          <path id="Trazado_275" data-name="Trazado 275" d="M757.393,2055.566s8.5.713,8.8,2.971-.356,6.244-8.383,7.017H749.5s2.486-6.9,2.368-7.135S757.393,2055.566,757.393,2055.566Z" fill="#efadab"/>
          <path id="Trazado_276" data-name="Trazado 276" d="M771.034,2089.268a2.3,2.3,0,0,1,.9,3.193c-3.914,6.748-19.469,33.561-20.871,35.742-1.606,2.5-5.53,8.383-18.549,11.416s-18.37,11.771-18.37,11.771h-40.13s9.453-14.982,17.3-53.865c0,0,6.063-32.281,17.478-31.21,0,0,6.957-7.311,13.734-5.885,0,0,12.842-7.67,20.154-7.67L760.244,2032a5.083,5.083,0,0,1,6.94-.822,3.323,3.323,0,0,1,1.357,2.138c.535,3.389-3.924,11.952-11.058,22.3s-24.792,43.162-17.123,57.609a77.57,77.57,0,0,0,14.626-15.338C760.661,2089.969,767.337,2087.3,771.034,2089.268Z" fill="#ffc0bb"/>
          <path id="Trazado_277" data-name="Trazado 277" d="M742.614,2052.768a73.53,73.53,0,0,0-6.578,6.433,75.922,75.922,0,0,0-8.37,11,34.995,34.995,0,0,0-5.136,12.783l.052.012a40.524,40.524,0,0,1,5.51-12.527,92.834,92.834,0,0,1,8.261-10.988c1.869-2.157,4.238-4.7,6.3-6.673Z" fill="#eaa0a0"/>
          <path id="Trazado_278" data-name="Trazado 278" d="M722.64,2060.373a19.828,19.828,0,0,0-5.082,3.854,24.62,24.62,0,0,0-3.851,5.138,25.06,25.06,0,0,0-2.411,5.95,24.239,24.239,0,0,0-.807,6.325l.053.005a31.069,31.069,0,0,1,1.157-6.21,28.2,28.2,0,0,1,2.473-5.808,27.428,27.428,0,0,1,3.7-5.115,23.785,23.785,0,0,1,4.8-4.092Z" fill="#eaa0a0"/>
          <path id="Trazado_279" data-name="Trazado 279" d="M708.94,2066.165a17.677,17.677,0,0,0-4.2,5.03,22.666,22.666,0,0,0-2.4,6.115,19,19,0,0,0-.559,4.328l.052.008a32.242,32.242,0,0,1,.911-4.22,29.564,29.564,0,0,1,2.436-5.99,23.927,23.927,0,0,1,3.779-5.231Z" fill="#eaa0a0"/>
          <path id="Trazado_280" data-name="Trazado 280" d="M762.934,2097.569c-.356-1.805,1.748-4.669,3.658-6.829a4.439,4.439,0,0,1,4.729-1.289,2.31,2.31,0,0,1,.612,3.01c-1.052,1.813-2.944,5.076-5.176,8.918C765.085,2100.529,763.264,2099.24,762.934,2097.569Z" fill="#eaa0a0"/>
          <path id="Trazado_281" data-name="Trazado 281" d="M761.248,2040.148c-1.015-.2-5.618-1.735-5.336-2.573h0l4.54-5.366a5.167,5.167,0,0,1,3.461-1.807h0a.079.079,0,0,1,.022,0c.036,0,.12-.009.236-.009a2.3,2.3,0,0,1,2.438,1.823c.325,1.628-2.369,5.585-3.558,7.229A1.785,1.785,0,0,1,761.248,2040.148Z" fill="#eaa0a0"/>
          <path id="Trazado_282" data-name="Trazado 282" d="M714.143,2151.39h-40.13s6.2-9.824,12.722-34.2c2.863,17.951,18.66,16.915,24.93,17.911,7.218,1.147,35.238-4.7,39.164-6.536-1.747,2.666-5.885,8.16-18.316,11.056C719.493,2142.65,714.143,2151.39,714.143,2151.39Z" fill="#ffc0bb" opacity="0.2" style="mix-blend-mode: multiply;isolation: isolate"/>
          <path id="Trazado_283" data-name="Trazado 283" d="M755.361,2058.869c-7.869,12.641-21.985,41.682-15,54.353l-4.635,4.576s-11.713-12.976,6.925-41.59A190.863,190.863,0,0,1,755.361,2058.869Z" fill="#ffc0bb" opacity="0.2" style="mix-blend-mode: multiply;isolation: isolate"/>
        </g>
        <path id="Trazado_284" data-name="Trazado 284" d="M863.985,2022.088c1.632-8.264-10.69-11.038-12.673-2.856a12.764,12.764,0,0,0-.331,2.489c-.383,9.836,5.566,20.542,11.9,18.74s2.686-8.521.768-12.552C862.753,2026.029,863.564,2024.217,863.985,2022.088Z" fill="url(#linear-gradient-8)"/>
        <path id="Trazado_285" data-name="Trazado 285" d="M684.742,2004.07a7.1,7.1,0,0,1,8.921,4.235,33.558,33.558,0,0,1,2.375,10.066c.2,6.15-2.248,19.349-11.6,22.609s-14.933-5.338-8.707-15.287C678.39,2021.443,677.062,2006.75,684.742,2004.07Z" fill="url(#linear-gradient-9)"/>
        <path id="Trazado_286" data-name="Trazado 286" d="M731.032,2002.776a3.393,3.393,0,0,0-4.159-2.52,5,5,0,0,0-6.006-2.653,6.152,6.152,0,0,0-11.051,1.075,4.221,4.221,0,0,0-6.273,3.688c0,.139.007.276.02.41Z" fill="#edfdfc"/>
        <path id="Trazado_287" data-name="Trazado 287" d="M717.474,2045.311s.413,4.077,3.63,4.359c-3.217.283-3.63,4.359-3.63,4.359s-.414-4.076-3.631-4.359C717.06,2049.388,717.474,2045.311,717.474,2045.311Z" fill="#edfdfc"/>
        <path id="Trazado_288" data-name="Trazado 288" d="M834.992,2015.185s.413,4.075,3.63,4.358c-3.217.281-3.63,4.357-3.63,4.357s-.414-4.076-3.63-4.357C834.578,2019.26,834.992,2015.185,834.992,2015.185Z" fill="#edfdfc"/>
        <path id="Trazado_289" data-name="Trazado 289" d="M708.963,2034.033s.274,2.7,2.4,2.884c-2.128.186-2.4,2.884-2.4,2.884s-.274-2.7-2.4-2.884C708.689,2036.73,708.963,2034.033,708.963,2034.033Z" fill="#edfdfc"/>
        <path id="Trazado_290" data-name="Trazado 290" d="M828.224,2005.647s.273,2.7,2.4,2.882c-2.128.188-2.4,2.884-2.4,2.884s-.274-2.7-2.4-2.884C827.95,2008.345,828.224,2005.647,828.224,2005.647Z" fill="#edfdfc"/>
        <path id="Trazado_291" data-name="Trazado 291" d="M721.4,2025.935s.123,1.208,1.074,1.292c-.951.083-1.074,1.291-1.074,1.291s-.123-1.208-1.074-1.291C721.275,2027.143,721.4,2025.935,721.4,2025.935Z" fill="#edfdfc"/>
        <path id="Trazado_292" data-name="Trazado 292" d="M832.134,2031.1s.123,1.207,1.075,1.29c-.952.084-1.075,1.29-1.075,1.29s-.122-1.206-1.074-1.29C832.012,2032.309,832.134,2031.1,832.134,2031.1Z" fill="#edfdfc"/>
        <g id="Grupo_134" data-name="Grupo 134">
          <g id="Grupo_133" data-name="Grupo 133">
            <g id="Grupo_131" data-name="Grupo 131">
              <path id="Rectángulo_73" data-name="Rectángulo 73" d="M5,0h.051a4.995,4.995,0,0,1,4.995,4.995V8.742a0,0,0,0,1,0,0H0a0,0,0,0,1,0,0V5A5,5,0,0,1,5,0Z" transform="translate(773.188 2006.18) rotate(180)" fill="url(#linear-gradient-10)"/>
              <path id="Rectángulo_74" data-name="Rectángulo 74" d="M5,0h.051a5,5,0,0,1,5,5V8.742a0,0,0,0,1,0,0H0a0,0,0,0,1,0,0V5A5,5,0,0,1,5,0Z" transform="translate(783.228 2006.18) rotate(180)" fill="url(#linear-gradient-11)"/>
              <path id="Rectángulo_75" data-name="Rectángulo 75" d="M5,0h.051a5,5,0,0,1,5,5V8.742a0,0,0,0,1,0,0H0a0,0,0,0,1,0,0V5A5,5,0,0,1,5,0Z" transform="translate(793.27 2006.18) rotate(180)" fill="url(#linear-gradient-12)"/>
              <path id="Rectángulo_76" data-name="Rectángulo 76" d="M5,0h.05a5,5,0,0,1,5,5V8.742a0,0,0,0,1,0,0H0a0,0,0,0,1,0,0V5A5,5,0,0,1,5,0Z" transform="translate(803.31 2006.18) rotate(-180)" fill="url(#linear-gradient-13)"/>
              <path id="Rectángulo_77" data-name="Rectángulo 77" d="M5,0h.052a5,5,0,0,1,5,5V8.742a0,0,0,0,1,0,0H0a0,0,0,0,1,0,0V5A5,5,0,0,1,5,0Z" transform="translate(813.352 2006.18) rotate(180)" fill="url(#linear-gradient-14)"/>
              <path id="Rectángulo_78" data-name="Rectángulo 78" d="M5,0h.051a5,5,0,0,1,5,5V8.742a0,0,0,0,1,0,0H0a0,0,0,0,1,0,0V5A5,5,0,0,1,5,0Z" transform="translate(743.086 2006.18) rotate(180)" fill="url(#linear-gradient-15)"/>
              <path id="Rectángulo_79" data-name="Rectángulo 79" d="M5,0h.05a5,5,0,0,1,5,5V8.742a0,0,0,0,1,0,0H0a0,0,0,0,1,0,0V5A5,5,0,0,1,5,0Z" transform="translate(753.127 2006.18) rotate(180)" fill="url(#linear-gradient-16)"/>
              <path id="Rectángulo_80" data-name="Rectángulo 80" d="M4.995,0h.052a5,5,0,0,1,5,5V8.742a0,0,0,0,1,0,0H0a0,0,0,0,1,0,0V4.995A4.995,4.995,0,0,1,4.995,0Z" transform="translate(763.146 2006.18) rotate(180)" fill="url(#linear-gradient-17)"/>
              <path id="Rectángulo_81" data-name="Rectángulo 81" d="M5,0h.051a5,5,0,0,1,5,5V8.742a0,0,0,0,1,0,0H0a0,0,0,0,1,0,0V5A5,5,0,0,1,5,0Z" transform="translate(823.394 2006.18) rotate(-180)" fill="url(#linear-gradient-18)"/>
            </g>
            <g id="Grupo_132" data-name="Grupo 132">
              <path id="Trazado_293" data-name="Trazado 293" d="M774.638,1984.737h7.14l1.451,12.7H773.188Z" fill="#edfdfc"/>
              <path id="Trazado_294" data-name="Trazado 294" d="M781.777,1984.737h7.139l4.353,12.7H783.228Z" fill="url(#linear-gradient-19)"/>
              <path id="Trazado_295" data-name="Trazado 295" d="M788.917,1984.737h7.14l7.254,12.7H793.269Z" fill="#edfdfc"/>
              <path id="Trazado_296" data-name="Trazado 296" d="M796.056,1984.737h7.139l10.158,12.7H803.31Z" fill="url(#linear-gradient-20)"/>
              <path id="Trazado_297" data-name="Trazado 297" d="M803.195,1984.737h7.14l13.059,12.7H813.352Z" fill="#edfdfc"/>
              <path id="Trazado_298" data-name="Trazado 298" d="M746.128,1984.737h7.14l-10.182,12.7H733.045Z" fill="#edfdfc"/>
              <path id="Trazado_299" data-name="Trazado 299" d="M753.233,1984.737h7.139l-7.244,12.7H743.086Z" fill="url(#linear-gradient-21)"/>
              <path id="Trazado_300" data-name="Trazado 300" d="M760.372,1984.737h7.14l-4.365,12.7H753.1Z" fill="#edfdfc"/>
              <path id="Trazado_301" data-name="Trazado 301" d="M767.511,1984.737h7.139l-1.463,12.7H763.146Z" fill="url(#linear-gradient-22)"/>
            </g>
          </g>
        </g>
        <g id="Grupo_136" data-name="Grupo 136">
          <path id="Rectángulo_82" data-name="Rectángulo 82" d="M3.833,0H42.687a3.832,3.832,0,0,1,3.832,3.832V4.963a3.83,3.83,0,0,1-3.83,3.83H3.83A3.83,3.83,0,0,1,0,4.963V3.833A3.833,3.833,0,0,1,3.833,0Z" transform="translate(801.479 2073.434) rotate(-180)" fill="url(#linear-gradient-23)"/>
          <g id="Grupo_135" data-name="Grupo 135">
            <path id="Trazado_302" data-name="Trazado 302" d="M787.672,2069.371a.9.9,0,0,1,.159-.281.855.855,0,0,1,.236-.2.967.967,0,0,1,.289-.108.88.88,0,0,1-.218-.133.843.843,0,0,1-.159-.187.905.905,0,0,1-.094-.227,1.122,1.122,0,0,1,.042-.66.764.764,0,0,1,.217-.3.957.957,0,0,1,.361-.185,1.912,1.912,0,0,1,.555-.065h.86a.211.211,0,0,1,.127.043.193.193,0,0,1,.06.162v3.372a.192.192,0,0,1-.06.16.214.214,0,0,1-.127.045h-.988a1.96,1.96,0,0,1-.379-.032,1.4,1.4,0,0,1-.309-.092,1.044,1.044,0,0,1-.26-.152.9.9,0,0,1-.2-.21,1.007,1.007,0,0,1-.127-.271,1.126,1.126,0,0,1-.045-.327A1.022,1.022,0,0,1,787.672,2069.371Zm.735-1.1a.53.53,0,0,0,.116.2.556.556,0,0,0,.2.138.809.809,0,0,0,.315.051h.571v-1.225h-.519a1.168,1.168,0,0,0-.347.042.534.534,0,0,0-.213.119.456.456,0,0,0-.119.187.744.744,0,0,0-.038.247A.808.808,0,0,0,788.407,2068.27Zm-.208,1.76a.538.538,0,0,0,.153.2.641.641,0,0,0,.226.121,1,1,0,0,0,.3.042h.729v-1.334h-.6a1.441,1.441,0,0,0-.392.045.739.739,0,0,0-.26.133.606.606,0,0,0-.157.217.745.745,0,0,0-.054.3A.637.637,0,0,0,788.2,2070.03Z" fill="#fff"/>
            <path id="Trazado_303" data-name="Trazado 303" d="M784.007,2067.1a.073.073,0,0,1,.013-.042.1.1,0,0,1,.041-.027.53.53,0,0,1,.076-.017.777.777,0,0,1,.118-.007.793.793,0,0,1,.121.007.534.534,0,0,1,.078.017.1.1,0,0,1,.042.027.1.1,0,0,1,.011.042v2.312a1.371,1.371,0,0,0,.063.443.864.864,0,0,0,.181.321.726.726,0,0,0,.289.191,1.076,1.076,0,0,0,.391.065,1.019,1.019,0,0,0,.384-.067.748.748,0,0,0,.292-.195.848.848,0,0,0,.185-.325,1.469,1.469,0,0,0,.065-.46V2067.1a.091.091,0,0,1,.011-.042.105.105,0,0,1,.04-.027.547.547,0,0,1,.077-.017.824.824,0,0,1,.12-.007.789.789,0,0,1,.123.007.566.566,0,0,1,.076.017.106.106,0,0,1,.042.027.089.089,0,0,1,.01.042v2.347a1.77,1.77,0,0,1-.1.614,1.177,1.177,0,0,1-.284.443,1.214,1.214,0,0,1-.442.267,1.684,1.684,0,0,1-.569.092,1.834,1.834,0,0,1-.611-.1,1.215,1.215,0,0,1-.456-.284,1.23,1.23,0,0,1-.288-.456,1.757,1.757,0,0,1-.1-.615Z" fill="#fff"/>
            <path id="Trazado_304" data-name="Trazado 304" d="M780.913,2070.5a.167.167,0,0,1,.02-.063.1.1,0,0,1,.033-.037.1.1,0,0,1,.043-.011h1.5v-1.354h-1.269a.1.1,0,0,1-.042-.01.077.077,0,0,1-.032-.034.151.151,0,0,1-.019-.061.609.609,0,0,1-.006-.09.681.681,0,0,1,.006-.1.174.174,0,0,1,.019-.065.093.093,0,0,1,.032-.035.064.064,0,0,1,.042-.014h1.269v-1.188h-1.479a.1.1,0,0,1-.042-.009.08.08,0,0,1-.031-.038.291.291,0,0,1-.019-.064.5.5,0,0,1-.007-.092.544.544,0,0,1,.007-.1.27.27,0,0,1,.019-.065.081.081,0,0,1,.031-.038.061.061,0,0,1,.042-.012h1.794a.218.218,0,0,1,.128.043.193.193,0,0,1,.06.162v3.372a.191.191,0,0,1-.06.16.221.221,0,0,1-.128.045h-1.814a.065.065,0,0,1-.043-.014.077.077,0,0,1-.033-.036.183.183,0,0,1-.02-.066.49.49,0,0,1-.007-.091A.58.58,0,0,1,780.913,2070.5Z" fill="#fff"/>
            <path id="Trazado_305" data-name="Trazado 305" d="M775.876,2067.111a.065.065,0,0,1,.013-.038.083.083,0,0,1,.04-.031.271.271,0,0,1,.077-.019c.033,0,.071,0,.117,0s.093,0,.125,0a.3.3,0,0,1,.076.019.09.09,0,0,1,.042.031.073.073,0,0,1,.013.038v2.053c0,.152,0,.313,0,.48s0,.327-.006.479h0l.136-.271c.047-.09.093-.183.14-.277l.147-.286.159-.3.886-1.659a1.13,1.13,0,0,1,.092-.15.373.373,0,0,1,.091-.094.32.32,0,0,1,.106-.05.661.661,0,0,1,.146-.013h.247a.234.234,0,0,1,.145.05.192.192,0,0,1,.066.165v3.489a.07.07,0,0,1-.012.04.08.08,0,0,1-.04.03.249.249,0,0,1-.075.017,1.016,1.016,0,0,1-.122.007,1,1,0,0,1-.122-.007.288.288,0,0,1-.078-.017.078.078,0,0,1-.041-.03.063.063,0,0,1-.012-.04v-2.282c0-.143,0-.289,0-.435s.005-.289.01-.43h-.006c-.053.115-.11.233-.171.356s-.122.238-.182.349l-1.155,2.151a1.644,1.644,0,0,1-.111.187.57.57,0,0,1-.107.115.283.283,0,0,1-.112.059.557.557,0,0,1-.137.015H776.1a.239.239,0,0,1-.079-.011.169.169,0,0,1-.071-.038.189.189,0,0,1-.052-.067.233.233,0,0,1-.019-.1Z" fill="#fff"/>
            <path id="Trazado_306" data-name="Trazado 306" d="M771.8,2068.059a1.561,1.561,0,0,1,.307-.595,1.326,1.326,0,0,1,.516-.367,1.9,1.9,0,0,1,.728-.126,1.944,1.944,0,0,1,.757.138,1.42,1.42,0,0,1,.54.4,1.662,1.662,0,0,1,.325.62,2.827,2.827,0,0,1,.108.811,3.1,3.1,0,0,1-.1.83,1.582,1.582,0,0,1-.3.6,1.3,1.3,0,0,1-.514.369,1.926,1.926,0,0,1-.738.129,1.952,1.952,0,0,1-.758-.14,1.406,1.406,0,0,1-.539-.4,1.735,1.735,0,0,1-.323-.626,2.976,2.976,0,0,1-.107-.827A3.013,3.013,0,0,1,771.8,2068.059Zm.489,1.431a1.41,1.41,0,0,0,.2.485,1,1,0,0,0,.361.33,1.121,1.121,0,0,0,.554.124,1.212,1.212,0,0,0,.554-.113.91.91,0,0,0,.352-.316,1.33,1.33,0,0,0,.186-.483,3.185,3.185,0,0,0,.056-.615,2.675,2.675,0,0,0-.06-.574,1.348,1.348,0,0,0-.2-.477,1.025,1.025,0,0,0-.36-.328,1.131,1.131,0,0,0-.549-.123,1.19,1.19,0,0,0-.548.114.924.924,0,0,0-.356.316,1.451,1.451,0,0,0-.189.48,2.96,2.96,0,0,0-.057.6A2.86,2.86,0,0,0,772.292,2069.49Z" fill="#fff"/>
            <path id="Trazado_307" data-name="Trazado 307" d="M766.348,2067.209a.647.647,0,0,1-.016-.107.064.064,0,0,1,.022-.057.13.13,0,0,1,.074-.029.994.994,0,0,1,.139-.007c.056,0,.1,0,.136,0a.366.366,0,0,1,.078.018.068.068,0,0,1,.038.034.45.45,0,0,1,.017.051l.833,3.165h.006l.867-3.162a.327.327,0,0,1,.022-.054.087.087,0,0,1,.043-.034.445.445,0,0,1,.077-.018c.033,0,.076,0,.13,0s.106,0,.142,0a.44.44,0,0,1,.084.018.075.075,0,0,1,.041.034.182.182,0,0,1,.023.054l.807,3.162h0l.851-3.169a.276.276,0,0,1,.016-.053.076.076,0,0,1,.039-.032.278.278,0,0,1,.079-.014c.035,0,.083,0,.143,0s.113,0,.15,0a.17.17,0,0,1,.079.026.069.069,0,0,1,.025.059.607.607,0,0,1-.02.106l-1,3.493a.146.146,0,0,1-.029.066.138.138,0,0,1-.063.037.514.514,0,0,1-.106.019c-.042,0-.1,0-.161,0s-.113,0-.153,0a.432.432,0,0,1-.1-.019.132.132,0,0,1-.058-.037.147.147,0,0,1-.029-.066l-.731-2.856h-.007l-.791,2.856a.235.235,0,0,1-.032.066.126.126,0,0,1-.062.037.483.483,0,0,1-.1.019c-.043,0-.093,0-.153,0s-.109,0-.148,0a.486.486,0,0,1-.1-.019.137.137,0,0,1-.064-.037.166.166,0,0,1-.036-.066Z" fill="#fff"/>
          </g>
        </g>
      </g>
      <text id="Tu_farmacia_digital_al_alcance_de_tu_mano" data-name="Tu farmacia digital
al alcance de tu mano" transform="translate(343.573 2019.361)" font-size="26.905" font-family="MADETOMMY-Bold, MADE TOMMY" font-weight="700"><tspan x="0" y="0">Tu farmacia digital</tspan><tspan x="0" y="27">al alcance de tu mano</tspan></text>
      <text id="Enviá_tus_recetas_y_pedidos_sin_moverte_de_tu_casa." data-name="Enviá tus recetas y pedidos
sin moverte de tu casa." transform="translate(343.573 2071.262)" font-size="13.428" font-family="MADETOMMY-Light, MADE TOMMY" font-weight="300"><tspan x="0" y="0">Enviá tus recetas y pedidos</tspan><tspan x="0" y="16.113">sin moverte de tu casa.</tspan></text>
      <text id="Descargate_la_App" data-name="Descargate la App" transform="translate(343.573 1976.109)" font-size="19.626" font-family="MADETOMMY-Light, MADE TOMMY" font-weight="300"><tspan x="0" y="0">Descargate la App</tspan></text>
      <line id="Línea_5" data-name="Línea 5" x2="57.177" transform="translate(343.573 1984.737)" fill="#c0f2f1" stroke="#000" stroke-miterlimit="10" stroke-width="1"/>
    </g>
  </g>
</svg>
