<svg xmlns="http://www.w3.org/2000/svg" width="25.858" height="35" viewBox="0 0 25.858 35"><defs><style>.a{fill:#fff;}</style></defs><g transform="translate(-120 -71.92)"><path class="a" d="M122.591,92.622l8.865,13.432a1.686,1.686,0,0,0,2.946,0l8.866-13.433a20.761,20.761,0,0,0,1.494-2.795,14.914,14.914,0,0,0,1.1-4.978,12.929,12.929,0,0,0-25.858,0,14.917,14.917,0,0,0,1.1,4.978A20.851,20.851,0,0,0,122.591,92.622Zm10.338-19.181a11.421,11.421,0,0,1,11.408,11.408,13.553,13.553,0,0,1-.977,4.388A19.105,19.105,0,0,1,142,91.784l-8.866,13.433c-.175.265-.23.265-.405,0l-8.866-13.433a19.116,19.116,0,0,1-1.362-2.549,13.541,13.541,0,0,1-.978-4.387A11.421,11.421,0,0,1,132.929,73.441Z" transform="translate(0)"/><path class="a" d="M190.845,149.618A6.845,6.845,0,1,0,184,142.773,6.853,6.853,0,0,0,190.845,149.618Zm0-12.169a5.324,5.324,0,1,1-5.324,5.324A5.33,5.33,0,0,1,190.845,137.449Z" transform="translate(-57.916 -57.923)"/></g></svg>