<svg xmlns="http://www.w3.org/2000/svg" width="43.667" height="28.696" viewBox="0 0 43.667 28.696"><defs><style>.a{fill:#fff;}</style></defs><g transform="translate(-488 21)"><path class="a" d="M528.548,7.7H491.119A3.123,3.123,0,0,1,488,4.577V-17.881A3.123,3.123,0,0,1,491.119-21h37.429a3.122,3.122,0,0,1,3.119,3.119V4.577A3.122,3.122,0,0,1,528.548,7.7ZM491.119-19.752a1.871,1.871,0,0,0-1.871,1.871V4.577a1.871,1.871,0,0,0,1.871,1.871h37.429a1.871,1.871,0,0,0,1.871-1.871V-17.881a1.871,1.871,0,0,0-1.871-1.871Zm0,0"/><path class="a" d="M513.521,10.5a.625.625,0,0,1-.407-.151l-20.923-18L493-8.593,513.521,9.055,534.036-8.593l.811.947-20.922,18a.624.624,0,0,1-.4.151Zm0,0" transform="translate(-3.687 -10.915)"/><path class="a" d="M728.574,88.238l.92-.843,12.819,13.976-.919.843Zm0,0" transform="translate(-211.653 -95.364)"/><path class="a" d="M495.441,100.685l12.8-13.974.92.842-12.8,13.973Zm0,0" transform="translate(-6.546 -94.763)"/></g></svg>