<?xml version="1.0" encoding="UTF-8" standalone="no"?>
<!DOCTYPE svg PUBLIC "-//W3C//DTD SVG 1.0//EN" "http://www.w3.org/TR/2001/REC-SVG-20010904/DTD/svg10.dtd">
<svg xmlns="http://www.w3.org/2000/svg" version="1.0" viewBox="0.00 0.00 224.00 222.00" width="25px" height="25px">
<path fill="#80ed99" d="
  M 125.59 222.00
  L 10.55 222.00
  L 8.46 220.96
  L 6.60 219.74
  L 4.97 218.34
  L 3.58 216.77
  L 3.58 216.77
  L 1.86 213.92
  L 1.26 212.24
  L 0.83 210.18
  L 0.49 204.86
  L 0.46 115.75
  L 0.72 104.52
  L 1.54 95.81
  L 2.50 90.19
  L 3.69 84.71
  L 5.11 79.37
  L 6.77 74.16
  L 8.66 69.10
  L 10.79 64.17
  L 13.14 59.38
  L 15.74 54.73
  L 15.74 54.73
  L 15.74 54.73
  L 15.74 54.73
  L 18.63 50.12
  L 21.76 45.66
  L 25.14 41.34
  L 28.76 37.16
  L 32.62 33.13
  L 36.73 29.24
  L 41.08 25.50
  L 45.68 21.90
  L 46.51 21.29
  L 53.58 16.53
  L 60.94 12.40
  L 68.68 8.82
  L 76.64 5.88
  L 84.91 3.54
  L 93.32 1.85
  L 101.93 0.81
  L 110.58 0.43
  L 119.24 0.71
  L 127.85 1.65
  L 136.38 3.25
  L 144.78 5.50
  L 152.87 8.35
  L 160.75 11.83
  L 168.27 15.87
  L 175.51 20.52
  L 182.15 25.55
  L 187.14 29.90
  L 191.84 34.51
  L 196.29 39.44
  L 200.42 44.62
  L 204.25 50.05
  L 207.74 55.69
  L 210.89 61.52
  L 213.68 67.53
  L 216.11 73.70
  L 218.18 80.01
  L 219.88 86.45
  L 221.19 92.98
  L 222.10 99.58
  L 222.63 106.24
  L 222.75 112.85
  L 222.48 119.50
  L 221.50 128.29
  L 219.81 137.07
  L 218.62 141.69
  L 217.25 146.23
  L 213.97 155.01
  L 212.04 159.32
  L 209.94 163.52
  L 205.24 171.59
  L 201.84 176.58
  L 198.19 181.37
  L 194.29 185.94
  L 190.14 190.29
  L 185.74 194.43
  L 181.11 198.34
  L 176.27 201.99
  L 171.22 205.38
  L 166.03 208.48
  L 160.66 211.30
  L 155.12 213.84
  L 149.42 216.09
  L 143.61 218.04
  L 137.66 219.68
  L 131.68 220.99
  L 125.59 222.00
  Z
  M 177.93 111.57
  L 177.61 105.07
  L 176.65 98.62
  L 175.07 92.31
  L 172.88 86.18
  L 170.09 80.29
  L 166.75 74.70
  L 162.87 69.47
  L 158.49 64.65
  L 153.67 60.27
  L 148.44 56.39
  L 142.85 53.05
  L 136.96 50.26
  L 130.83 48.07
  L 124.52 46.49
  L 118.07 45.53
  L 111.57 45.21
  L 105.07 45.53
  L 98.62 46.49
  L 92.31 48.07
  L 86.18 50.26
  L 80.29 53.05
  L 74.70 56.39
  L 69.47 60.27
  L 64.65 64.65
  L 60.27 69.47
  L 56.39 74.70
  L 53.05 80.29
  L 50.26 86.18
  L 48.07 92.31
  L 46.49 98.62
  L 45.53 105.07
  L 45.21 111.57
  L 45.53 118.07
  L 46.49 124.52
  L 48.07 130.83
  L 50.26 136.96
  L 53.05 142.85
  L 56.39 148.44
  L 60.27 153.67
  L 64.65 158.49
  L 69.47 162.87
  L 74.70 166.75
  L 80.29 170.09
  L 86.18 172.88
  L 92.31 175.07
  L 98.62 176.65
  L 105.07 177.61
  L 111.57 177.93
  L 118.07 177.61
  L 124.52 176.65
  L 130.83 175.07
  L 136.96 172.88
  L 142.85 170.09
  L 148.44 166.75
  L 153.67 162.87
  L 158.49 158.49
  L 162.87 153.67
  L 166.75 148.44
  L 170.09 142.85
  L 172.88 136.96
  L 175.07 130.83
  L 176.65 124.52
  L 177.61 118.07
  L 177.93 111.57
  Z"
/>
<path fill="#80ed99" d="
  M 99.00 98.68
  L 99.00 73.07
  L 99.32 72.75
  L 123.93 72.75
  L 124.25 73.07
  L 124.25 98.68
  L 124.57 99.00
  L 150.18 99.00
  L 150.41 99.09
  L 150.50 99.32
  L 150.50 123.93
  L 150.41 124.16
  L 150.18 124.25
  L 124.57 124.25
  L 124.25 124.57
  L 124.25 150.18
  L 124.16 150.41
  L 123.93 150.50
  L 99.32 150.50
  L 99.09 150.41
  L 99.00 150.18
  L 99.00 124.57
  L 98.68 124.25
  L 73.07 124.25
  L 72.75 123.93
  L 72.75 99.32
  L 73.07 99.00
  L 98.68 99.00
  L 99.00 98.68
  Z"
/>
</svg>
